<?xml version="1.0" ?><!DOCTYPE svg  PUBLIC '-//W3C//DTD SVG 1.1//EN'  'http://www.w3.org/Graphics/SVG/1.1/DTD/svg11.dtd'><svg enable-background="new 0 0 512 512" height="512px" id="Layer_1" version="1.1" viewBox="0 0 512 512" width="512px" xml:space="preserve" xmlns="http://www.w3.org/2000/svg" xmlns:xlink="http://www.w3.org/1999/xlink"><g><path d="M512,256c0,141.38-114.62,256-256,256c-2.12,0-4.22-0.03-6.33-0.07C111.21,508.56,0,395.26,0,256    C0,114.61,114.61,0,256,0c111.23,0,205.9,70.94,241.22,170.06C506.79,196.92,512,225.85,512,256z" fill="#6696C4"/><g><radialGradient cx="298.8955" cy="305.395" gradientUnits="userSpaceOnUse" id="SVGID_1_" r="209.8799"><stop offset="0.5744" style="stop-color:#130C0E"/><stop offset="0.7977" style="stop-color:#130C0E"/><stop offset="1" style="stop-color:#130C0E"/></radialGradient><path d="M512,256c0,141.38-114.62,256-256,256c-2.12,0-4.345-0.03-6.455-0.07     l-97.755-97.07v-15.05l-66-64.06V98.79h338.16l73.27,71.4C506.79,197.05,512,225.85,512,256z" fill="url(#SVGID_1_)" opacity="0.16"/><g><g><g><g><rect fill="#5D5D5D" height="18.146" width="31.743" x="152.585" y="396.02"/><rect fill="#3C3D3B" height="6.531" width="26.666" x="155.12" y="389.489"/><rect fill="#5D5D5D" height="54.429" width="31.741" x="152.585" y="335.06"/></g><rect fill="#FFFFFF" height="18.146" opacity="0.2" width="6.53" x="152.585" y="396.02"/><rect fill="#FFFFFF" height="6.531" opacity="0.2" width="6.532" x="155.12" y="389.489"/><rect fill="#FFFFFF" height="54.429" opacity="0.2" width="6.53" x="152.585" y="335.06"/><rect fill="#393939" height="18.146" width="5.442" x="178.886" y="396.02"/><rect fill="#393939" height="6.531" width="5.442" x="176.344" y="389.489"/><rect fill="#393939" height="54.429" width="5.443" x="178.883" y="335.06"/></g><g><g><rect fill="#5D5D5D" height="18.146" width="31.749" x="327.664" y="396.02"/><rect fill="#3C3D3B" height="6.531" width="26.665" x="330.205" y="389.489"/><rect fill="#5D5D5D" height="54.429" width="31.746" x="327.667" y="335.06"/></g><rect fill="#FFFFFF" height="18.146" opacity="0.2" width="6.533" x="327.664" y="396.02"/><rect fill="#FFFFFF" height="6.531" opacity="0.2" width="6.531" x="330.205" y="389.489"/><rect fill="#FFFFFF" height="54.429" opacity="0.2" width="6.532" x="327.667" y="335.06"/><rect fill="#393939" height="18.146" width="5.442" x="353.971" y="396.02"/><rect fill="#393939" height="6.531" width="5.441" x="351.429" y="389.489"/><rect fill="#393939" height="54.429" width="5.442" x="353.971" y="335.06"/></g><rect fill="#232528" height="237.233" width="337.46" x="87.268" y="97.826"/><rect fill="#FFFFFF" height="217.08" width="337.46" x="87.268" y="107.034"/><rect height="3.476" opacity="0.3" width="337.46" x="87.268" y="322.375"/></g><g><g><g><rect fill="#173657" height="1.089" width="3.268" x="122.282" y="132.042"/><path d="M385.391,133.13h-6.496v-1.089h6.496V133.13z M372.399,133.13h-6.498v-1.089h6.498V133.13z          M359.407,133.13h-6.495v-1.089h6.495V133.13z M346.415,133.13h-6.502v-1.089h6.502V133.13z M333.423,133.13h-6.491v-1.089         h6.491V133.13z M320.432,133.13h-6.502v-1.089h6.502V133.13z M307.439,133.13h-6.494v-1.089h6.494V133.13z M294.447,133.13         h-6.5v-1.089h6.5V133.13z M281.455,133.13h-6.495v-1.089h6.495V133.13z M268.457,133.13h-6.489v-1.089h6.489V133.13z          M255.471,133.13h-6.495v-1.089h6.495V133.13z M242.481,133.13h-6.503v-1.089h6.503V133.13z M229.489,133.13h-6.497v-1.089         h6.497V133.13z M216.491,133.13H210v-1.089h6.491V133.13z M203.503,133.13h-6.501v-1.089h6.501V133.13z M190.508,133.13         h-6.492v-1.089h6.492V133.13z M177.519,133.13h-6.498v-1.089h6.498V133.13z M164.523,133.13h-6.491v-1.089h6.491V133.13z          M151.536,133.13h-6.5v-1.089h6.5V133.13z M138.543,133.13h-6.495v-1.089h6.495V133.13z" fill="#173657"/><rect fill="#173657" height="1.089" width="3.269" x="391.886" y="132.042"/></g><g><rect fill="#173657" height="1.092" width="3.268" x="122.282" y="174.405"/><path d="M385.391,175.497h-6.496v-1.092h6.496V175.497z M372.399,175.497h-6.498v-1.092h6.498V175.497z          M359.407,175.497h-6.495v-1.092h6.495V175.497z M346.415,175.497h-6.502v-1.092h6.502V175.497z M333.423,175.497h-6.491         v-1.092h6.491V175.497z M320.432,175.497h-6.502v-1.092h6.502V175.497z M307.439,175.497h-6.494v-1.092h6.494V175.497z          M294.447,175.497h-6.5v-1.092h6.5V175.497z M281.455,175.497h-6.495v-1.092h6.495V175.497z M268.457,175.497h-6.489v-1.092         h6.489V175.497z M255.471,175.497h-6.495v-1.092h6.495V175.497z M242.481,175.497h-6.503v-1.092h6.503V175.497z          M229.489,175.497h-6.497v-1.092h6.497V175.497z M216.491,175.497H210v-1.092h6.491V175.497z M203.503,175.497h-6.501v-1.092         h6.501V175.497z M190.508,175.497h-6.492v-1.092h6.492V175.497z M177.519,175.497h-6.498v-1.092h6.498V175.497z          M164.523,175.497h-6.491v-1.092h6.491V175.497z M151.536,175.497h-6.5v-1.092h6.5V175.497z M138.543,175.497h-6.495v-1.092         h6.495V175.497z" fill="#173657"/><rect fill="#173657" height="1.092" width="3.269" x="391.886" y="174.405"/></g><g><rect fill="#173657" height="1.087" width="3.268" x="122.282" y="216.769"/><path d="M385.391,217.856h-6.496v-1.087h6.496V217.856z M372.399,217.856h-6.498v-1.087h6.498V217.856z          M359.407,217.856h-6.495v-1.087h6.495V217.856z M346.415,217.856h-6.502v-1.087h6.502V217.856z M333.423,217.856h-6.491         v-1.087h6.491V217.856z M320.432,217.856h-6.502v-1.087h6.502V217.856z M307.439,217.856h-6.494v-1.087h6.494V217.856z          M294.447,217.856h-6.5v-1.087h6.5V217.856z M281.455,217.856h-6.495v-1.087h6.495V217.856z M268.457,217.856h-6.489v-1.087         h6.489V217.856z M255.471,217.856h-6.495v-1.087h6.495V217.856z M242.481,217.856h-6.503v-1.087h6.503V217.856z          M229.489,217.856h-6.497v-1.087h6.497V217.856z M216.491,217.856H210v-1.087h6.491V217.856z M203.503,217.856h-6.501v-1.087         h6.501V217.856z M190.508,217.856h-6.492v-1.087h6.492V217.856z M177.519,217.856h-6.498v-1.087h6.498V217.856z          M164.523,217.856h-6.491v-1.087h6.491V217.856z M151.536,217.856h-6.5v-1.087h6.5V217.856z M138.543,217.856h-6.495v-1.087         h6.495V217.856z" fill="#173657"/><rect fill="#173657" height="1.087" width="3.269" x="391.886" y="216.769"/></g><g><rect fill="#173657" height="1.088" width="3.268" x="122.282" y="259.132"/><path d="M385.391,260.22h-6.496v-1.088h6.496V260.22z M372.399,260.22h-6.498v-1.088h6.498V260.22z          M359.407,260.22h-6.495v-1.088h6.495V260.22z M346.415,260.22h-6.502v-1.088h6.502V260.22z M333.423,260.22h-6.491v-1.088         h6.491V260.22z M320.432,260.22h-6.502v-1.088h6.502V260.22z M307.439,260.22h-6.494v-1.088h6.494V260.22z M294.447,260.22         h-6.5v-1.088h6.5V260.22z M281.455,260.22h-6.495v-1.088h6.495V260.22z M268.457,260.22h-6.489v-1.088h6.489V260.22z          M255.471,260.22h-6.495v-1.088h6.495V260.22z M242.481,260.22h-6.503v-1.088h6.503V260.22z M229.489,260.22h-6.497v-1.088         h6.497V260.22z M216.491,260.22H210v-1.088h6.491V260.22z M203.503,260.22h-6.501v-1.088h6.501V260.22z M190.508,260.22         h-6.492v-1.088h6.492V260.22z M177.519,260.22h-6.498v-1.088h6.498V260.22z M164.523,260.22h-6.491v-1.088h6.491V260.22z          M151.536,260.22h-6.5v-1.088h6.5V260.22z M138.543,260.22h-6.495v-1.088h6.495V260.22z" fill="#173657"/><rect fill="#173657" height="1.088" width="3.269" x="391.886" y="259.132"/></g><rect fill="#173657" height="3.266" width="275.414" x="119.74" y="300.407"/><rect fill="#232528" height="7.505" width="12.146" x="122.106" y="136.396"/><g><rect fill="#232528" height="3.874" width="12.155" x="119.74" y="306.998"/><rect fill="#232528" height="3.874" width="12.15" x="172.394" y="306.998"/><rect fill="#232528" height="3.874" width="12.151" x="225.044" y="306.998"/><rect fill="#232528" height="3.874" width="12.15" x="277.697" y="306.998"/><rect fill="#232528" height="3.874" width="12.147" x="330.351" y="306.998"/><rect fill="#232528" height="3.874" width="12.153" x="383.001" y="306.998"/></g><rect fill="#232528" height="7.503" width="12.146" x="122.106" y="178.762"/><rect fill="#232528" height="7.504" width="12.146" x="122.106" y="221.125"/><rect fill="#232528" height="7.504" width="12.146" x="122.106" y="263.487"/></g><g><radialGradient cx="256.5283" cy="216.8833" gradientUnits="userSpaceOnUse" id="SVGID_2_" r="115.0413"><stop offset="0.5744" style="stop-color:#130C0E"/><stop offset="0.7977" style="stop-color:#130C0E"/><stop offset="1" style="stop-color:#130C0E"/></radialGradient><path d="M395.154,136.699v165.342H119.739l-1.837-1.164l1.837-2.937l32.385-51.675        c4.32-6.89,11.75-11.386,19.854-12.017c7.95-0.621,36.119,28.243,36.119,28.243c4.123,2.022,13.099,2.154,17.851,1.379        c7.782-1.271,12.939-7.688,15.952-14.992l24.393-59.085c1.47-3.561,4.812-5.999,8.651-6.311        c3.84-0.312,7.524,1.558,9.553,4.833c16.189,26.147,47.779,67.937,66.742,30.257l37.199-86.846L395.154,136.699z" fill="url(#SVGID_2_)" opacity="0.15"/><path d="M387.311,128.92l-38.033,88.812c-2.898,6.767-9.245,11.477-16.561,12.287        c-7.359,0.83-14.577-2.435-18.855-8.354l-27.1-37.495c-2.603-3.605-7.027-5.583-11.493-5.051        c-4.464,0.526-8.298,3.431-10.013,7.581l-25.335,61.363c-2.726,6.609-8.566,11.243-15.621,12.396        c-6.995,1.148-14.127-1.446-18.754-6.777l-10.456-12.033c-5.779-6.647-14.37-10.23-23.269-9.536        c-8.792,0.687-16.829,5.556-21.507,13.023l-35.361,56.425l7.31,4.581l35.363-56.424c3.233-5.161,8.79-8.524,14.866-9        c6.135-0.477,12.086,1.995,16.078,6.589l10.457,12.034c6.581,7.578,16.755,11.252,26.665,9.636        c10.026-1.64,18.336-8.224,22.207-17.62l24.425-59.158c0.7-1.705,2.282-2.901,4.117-3.118        c1.838-0.205,3.652,0.596,4.728,2.082l25.696,35.558c6.077,8.408,16.353,13.036,26.804,11.88        c10.399-1.156,19.419-7.85,23.542-17.472l38.035-88.808L387.311,128.92z" fill="#0F5092"/><g><path d="M136.057,293.47c0,8.01-6.486,14.498-14.501,14.498c-8.001,0-14.492-6.488-14.492-14.498         c0-8.005,6.491-14.495,14.492-14.495C129.57,278.976,136.057,285.465,136.057,293.47z" fill="#FE541A"/><path d="M128.668,293.47c0,3.93-3.188,7.119-7.115,7.119c-3.93,0-7.109-3.189-7.109-7.119         c0-3.924,3.18-7.109,7.109-7.109C125.48,286.361,128.668,289.546,128.668,293.47z" fill="#FFFFFF"/></g><g><path d="M290.329,179.967c0,8.008-6.485,14.497-14.496,14.497c-8.005,0-14.501-6.489-14.501-14.497         c0-8.003,6.496-14.497,14.501-14.497C283.844,165.47,290.329,171.964,290.329,179.967z" fill="#FE541A"/><path d="M282.941,179.967c0,3.933-3.188,7.117-7.115,7.117c-3.931,0-7.109-3.185-7.109-7.117         c0-3.926,3.179-7.111,7.109-7.111C279.754,172.855,282.941,176.041,282.941,179.967z" fill="#FFFFFF"/></g><g><path d="M403.887,132.438c0,8.006-6.484,14.497-14.499,14.497c-8,0-14.497-6.491-14.497-14.497         c0-8.005,6.497-14.497,14.497-14.497C397.402,117.94,403.887,124.433,403.887,132.438z" fill="#FE541A"/><path d="M396.499,132.438c0,3.931-3.188,7.117-7.115,7.117c-3.932,0-7.11-3.187-7.11-7.117         c0-3.927,3.179-7.111,7.11-7.111C393.311,125.326,396.499,128.51,396.499,132.438z" fill="#FFFFFF"/></g><g><path d="M299.917,123.124c0-3.214-2.601-5.817-5.81-5.817h-39.535c-3.21,0-5.816,2.603-5.816,5.817v16.816         c0,3.212,2.606,5.813,5.816,5.813h10.57l8.837,8.84c0.095,0.095,0.223,0.147,0.356,0.147s0.262-0.053,0.356-0.147l8.84-8.84         h10.575c3.209,0,5.81-2.601,5.81-5.813V123.124z" fill="#45CCD9"/><path d="M274.337,156.167c-0.516,0-1-0.2-1.364-0.565l-8.418-8.422h-9.982c-3.993,0-7.241-3.248-7.241-7.239         v-16.816c0-3.993,3.248-7.242,7.241-7.242h39.534c3.993,0,7.236,3.249,7.236,7.242v16.816c0,3.991-3.243,7.239-7.236,7.239         h-9.981l-8.428,8.422C275.336,155.966,274.852,156.167,274.337,156.167z M254.572,118.733c-2.42,0-4.391,1.97-4.391,4.391         v16.816c0,2.42,1.971,4.388,4.391,4.388h11.162l8.603,8.604l8.607-8.604h11.162c2.419,0,4.386-1.968,4.386-4.388v-16.816         c0-2.421-1.967-4.391-4.386-4.391H254.572z" fill="#173657"/></g></g></g></g></g></g></svg>