<?xml version="1.0" ?><!DOCTYPE svg  PUBLIC '-//W3C//DTD SVG 1.1//EN'  'http://www.w3.org/Graphics/SVG/1.1/DTD/svg11.dtd'><svg enable-background="new 0 0 512 512" height="512px" id="Layer_1" version="1.1" viewBox="0 0 512 512" width="512px" xml:space="preserve" xmlns="http://www.w3.org/2000/svg" xmlns:xlink="http://www.w3.org/1999/xlink"><g><g><path d="M512,256c0,141.39-114.61,256-256,256c-0.69,0-1.383,0-2.05-0.025C113.51,510.9,0,396.697,0,256     C0,114.638,114.61,0,256,0c140.875,0,255.155,113.792,255.975,254.44C512,254.95,512,255.487,512,256z" fill="#FFEFB4"/><g><path d="M511.785,255.36c0,141.39-114.61,256-256,256l-83.225-80.973v-25.883c0,0-89.66-92.652-89.855-92.875      c-5.12-4.558-8.345-11.163-8.345-18.56h3.225l56.19-106.087l-0.563-31.947c-0.612-0.538-5.067-4.993-5.657-5.71      c-3.275-2.765-5.4-6.835-5.4-11.468c0-8.27,6.705-14.978,15-14.978c0.13,0,0.229,0.025,0.36,0.025      c0.152,0,0.305-0.025,0.46-0.025c4.3,0,8.14,2.048,10.75,5.223c0.72,0.615,9.32,9.165,9.91,9.907      c0.153,0.128,0.33,0.23,0.485,0.358c5.452,1.587,10.982,2.867,16.64,3.405c3.713,0.36,7.5,0.41,11.188-0.127      c4.07-0.615,7.45-2.305,11.058-4.147c6.71-3.377,12.598-7.91,18.945-11.853c8.935-5.272,19.688-5.17,29.928-4.632V89.42      c0-3.967,2.893-7.295,6.757-8.217c0.05-0.025,0.103-0.025,0.155-0.05c0.152-0.025,0.305-0.052,0.46-0.077      c0.513-0.075,1-0.153,1.535-0.153c3.1,0,5.813,1.51,7.399,3.788c0.11,0.083,53.285,53.188,53.453,53.428      c0.587,0.41,1.1,0.897,1.535,1.435c2.047,0.87,4.122,1.588,6.427,1.945c3.71,0.538,7.5,0.485,11.21,0.127      c8.091-0.768,15.95-2.995,23.708-5.58c0.845-7.502,7.167-13.313,14.897-13.313c0.668,0,1.332,0.05,1.997,0.152      c3.815,0.36,7.192,2.33,9.551,5.223L511.785,255.36z" opacity="0.15"/><g><g><g><path d="M264.685,406.385H246.88V89.145c0-4.69,3.992-8.495,8.9-8.495c4.925,0,8.904,3.805,8.904,8.495         V406.385z" fill="#474145"/><path d="M255.78,80.65c-0.75,0-1.476,0.098-2.173,0.265c3.862,0.93,6.72,4.255,6.72,8.23v317.24h4.357V89.145         C264.685,84.455,260.705,80.65,255.78,80.65z" fill="#1F1B1D"/></g><g><g><g><g><polygon fill="#474145" points="79.795,299.355 75.35,296.993 137.61,179.46 198.2,296.147 193.737,298.47 137.575,190.3                       "/><path d="M137.595,193.07c-2.055,0-3.74-1.645-3.777-3.71l-0.827-47.333            c-0.035-2.087,1.627-3.805,3.71-3.84c0.03,0,0.045,0,0.072,0c2.053,0,3.743,1.652,3.77,3.712l0.83,47.328            c0.033,2.087-1.63,3.805-3.712,3.842C137.638,193.07,137.61,193.07,137.595,193.07z" fill="#474145"/><path d="M140.685,149.955c0,0-7.038,2.085-7.515,2.317l4.23,2.005l0.73,38.738            c1.855-0.27,3.275-1.863,3.243-3.788L140.685,149.955z" fill="#1F1B1D"/></g><g><path d="M199.188,292.795c0,13.745-11.147,24.893-24.907,24.893H99.265            c-13.758,0-24.905-11.147-24.905-24.893H199.188z" fill="#474145"/><path d="M99.282,316.913c-13.242-0.403-23.717-11.065-24.107-24.118H74.36            c0,13.745,11.147,24.893,24.905,24.893h25.445L99.282,316.913z" fill="#FFFFFF"/><path d="M186.595,292.788c0,13.75-11.145,24.902-24.905,24.902h12.592            c13.753,0,24.903-11.152,24.903-24.902H186.595z" fill="#1F1B1D"/><path d="M93.045,292.877h-8.59c0,12.882,9.79,23.438,22.327,24.725            C99.455,312.96,94.17,303.777,93.045,292.877z" fill="#FFFFFF" opacity="0.8"/></g></g><g><g><polygon fill="#474145" points="317.815,299.355 313.36,296.993 375.628,179.46 436.218,296.147 431.74,298.47             375.593,190.3           "/><g><path d="M375.607,193.07c-2.055,0-3.732-1.645-3.768-3.71l-0.83-47.333             c-0.037-2.087,1.62-3.805,3.703-3.84c0.029,0,0.052,0,0.074,0c2.053,0,3.738,1.652,3.768,3.712l0.83,47.328             c0.043,2.087-1.622,3.805-3.712,3.842C375.657,193.07,375.628,193.07,375.607,193.07z" fill="#474145"/><path d="M378.61,149.955c0,0-7.038,2.085-7.516,2.317l4.23,2.005l0.729,38.738             c1.855-0.27,3.275-1.863,3.243-3.788L378.61,149.955z" fill="#1F1B1D"/></g></g><g><path d="M437.205,292.795c0,13.745-11.147,24.893-24.907,24.893h-75.016            c-13.76,0-24.907-11.147-24.907-24.893H437.205z" fill="#474145"/><path d="M337.3,316.913c-13.242-0.403-23.72-11.065-24.109-24.118h-0.815            c0,13.745,11.147,24.893,24.907,24.893h25.442L337.3,316.913z" fill="#FFFFFF"/><path d="M424.61,292.788c0,13.75-11.143,24.902-24.902,24.902H412.3c13.75,0,24.902-11.152,24.902-24.902            H424.61z" fill="#1F1B1D"/><path d="M331.063,292.877h-8.593c0,12.882,9.79,23.438,22.33,24.725            C337.47,312.96,332.185,303.777,331.063,292.877z" fill="#FFFFFF" opacity="0.8"/></g></g></g><g><path d="M374.405,122.465c-7.713,0-14.056,5.825-14.891,13.315c-7.742,2.588-15.604,4.808-23.699,5.585          c-3.711,0.357-7.511,0.417-11.216-0.138c-4.045-0.603-7.43-2.297-11.045-4.125c-6.71-3.4-12.59-7.902-18.939-11.875          c-10.633-6.255-23.815-4.922-35.638-4.317c-1.397,0.077-2.803,0.17-4.215,0.26c-0.721-0.045-1.458-0.095-2.186-0.13          c-11.819-0.612-25.012-1.948-35.627,4.31c-6.357,3.965-12.232,8.475-18.95,11.877c-3.605,1.825-6.99,3.518-11.042,4.125          c-3.698,0.552-7.498,0.492-11.208,0.138c-8.103-0.78-15.965-3-23.7-5.588c-0.837-7.49-7.185-13.313-14.9-13.313          c-8.28,0-14.99,6.713-14.99,14.993s6.71,15,14.99,15c5.522,0,10.335-2.995,12.94-7.438          c11.258,5.165,23.245,9.635,35.7,9.788c8.73,0.103,16.86-2.998,24.715-6.495c4.96-2.197,9.561-5.067,14.46-7.36          c4.64-2.17,10.545-0.693,15.425-0.073c3.771,0.485,7.525,1.09,11.28,1.732c0,0,2.53,0.897,3.785,0.667          c0.85,0.158,2.535-0.452,2.535-0.452c4.39-0.78,8.78-1.502,13.192-2.073c4.877-0.62,10.768-2.098,15.422,0.075          c4.891,2.288,9.488,5.157,14.453,7.36c7.857,3.498,15.979,6.598,24.718,6.493c12.447-0.15,24.435-4.618,35.699-9.785          c2.596,4.44,7.41,7.438,12.931,7.438c8.279,0,15-6.717,15-14.998C389.405,129.183,382.685,122.465,374.405,122.465z" fill="#474145"/><path d="M137.97,122.6c-0.439,0-0.87,0.027-1.297,0.07c5.855,1.895,10.113,7.64,10.113,14.435          c0,7.88-5.723,14.342-13.02,15.035c1.33,0.43,2.742,0.665,4.205,0.665c7.908,0,14.318-6.763,14.318-15.1          C152.288,129.362,145.877,122.6,137.97,122.6z" fill="#1F1B1D"/><path d="M375.088,122.545c-0.438,0-0.87,0.027-1.298,0.07c5.855,1.892,10.11,7.64,10.11,14.435          c0,7.883-5.721,14.34-13.021,15.035c1.333,0.428,2.745,0.665,4.208,0.665c7.907,0,14.317-6.763,14.317-15.103          C389.405,129.305,382.995,122.545,375.088,122.545z" fill="#1F1B1D"/></g></g></g><g><rect fill="#474145" height="25.86" width="166.392" x="172.56" y="404.232"/><path d="M302.61,406.385h-93.66v-10.656c0-7.943,6.439-14.382,14.383-14.382h64.895        c7.942,0,14.383,6.438,14.383,14.382V406.385z" fill="#474145"/><g><rect fill="#1F1B1D" height="25.86" width="20.708" x="293.497" y="404.232"/><rect fill="#FFFFFF" height="25.86" opacity="0.8" width="15.587" x="195.922" y="404.232"/><rect fill="#1F1B1D" height="3.271" width="165.67" x="172.945" y="414.85"/></g></g></g></g></g></g></svg>