<?xml version="1.0" ?><!DOCTYPE svg  PUBLIC '-//W3C//DTD SVG 1.1//EN'  'http://www.w3.org/Graphics/SVG/1.1/DTD/svg11.dtd'><svg height="512px" style="enable-background:new 0 0 512 512;" version="1.1" viewBox="0 0 512 512" width="512px" xml:space="preserve" xmlns="http://www.w3.org/2000/svg" xmlns:xlink="http://www.w3.org/1999/xlink"><g id="Layer_23"><g><g><g><path d="M256,512c-86.989,0-163.83-43.399-210.092-109.714h420.186C419.833,468.601,342.989,512,256,512z      " style="fill:#F2EBD9;"/></g><g><path d="M256,0c141.386,0,256,114.616,256,256c0,54.396-16.978,104.817-45.906,146.286H45.908      C16.98,360.817,0,310.396,0,256C0,114.616,114.616,0,256,0z" style="fill:#C4BAA5;"/></g></g><g><g><rect height="219.429" style="fill:#FFFFFF;" width="329.141" x="91.431" y="145.647"/></g><g><g><rect height="182.857" style="fill:#373538;" width="18.286" x="356.571" y="163.933"/></g></g><g><g><rect height="182.857" style="fill:#373538;" width="18.286" x="137.143" y="163.933"/></g></g><g><g><rect height="182.857" style="fill:#373538;" width="18.285" x="310.857" y="163.933"/></g></g><g><g><rect height="182.857" style="fill:#373538;" width="18.285" x="210.286" y="163.933"/></g></g><g><g><rect height="182.857" style="fill:#373538;" width="9.143" x="338.286" y="163.933"/></g></g><g><g><rect height="182.857" style="fill:#373538;" width="9.144" x="192.761" y="163.933"/></g></g><g><g><rect height="182.857" style="fill:#373538;" width="9.143" x="251.429" y="163.933"/></g></g><g><g><rect height="182.857" style="fill:#373538;" width="4.571" x="290.286" y="163.933"/></g></g><g><g><rect height="182.857" style="fill:#373538;" width="4.571" x="165.333" y="163.933"/></g></g><g><g><rect height="182.857" style="fill:#373538;" width="4.572" x="243.808" y="163.933"/></g></g><g><g><rect height="182.857" style="fill:#373538;" width="4.571" x="298.665" y="163.933"/></g></g><g><g><rect height="182.857" style="fill:#373538;" width="6.857" x="275.429" y="163.933"/></g></g></g></g></g><g id="Layer_1"/></svg>