<?xml version="1.0" ?><!DOCTYPE svg  PUBLIC '-//W3C//DTD SVG 1.1//EN'  'http://www.w3.org/Graphics/SVG/1.1/DTD/svg11.dtd'><svg enable-background="new 0 0 511.996 512.004" height="512.004px" id="Layer_1" version="1.1" viewBox="0 0 511.996 512.004" width="511.996px" xml:space="preserve" xmlns="http://www.w3.org/2000/svg" xmlns:xlink="http://www.w3.org/1999/xlink"><g><g><path d="M511.996,256.01c0,9.8-0.547,19.476-1.618,28.998c-14.398,127.739-122.812,226.996-254.376,226.996     c-3.575,0-7.126-0.077-10.655-0.224c-6.387-0.262-12.712-0.759-18.968-1.476C98.944,495.633,0,387.366,0,256.01     C0,114.619,114.615,0,256.002,0C389.13,0,498.537,101.641,510.849,231.564C511.611,239.607,511.996,247.763,511.996,256.01z" fill="#77B3D4"/><path d="M511.996,256.01c0,9.8-0.547,19.476-1.618,28.998c-14.398,127.739-122.812,226.996-254.376,226.996     c-3.575,0-7.126-0.077-10.655-0.224c-6.387-0.262-12.712-0.759-18.968-1.476c-61.31-61.298-106.563-106.764-106.563-107.096     V130.031c0-3.24,0.501-6.349,1.409-9.28c0.301-0.982,0.647-1.93,1.048-2.866c1.179-2.792,2.767-5.385,4.677-7.696     c2.851-3.471,6.456-6.302,10.547-8.274c4.091-1.968,8.667-3.082,13.514-3.082h231.965c0.285,2.712,56.533,60.636,127.874,132.731     C511.611,239.607,511.996,247.763,511.996,256.01z" opacity="0.2"/><g><g><defs><path d="M367.759,135.605c0-14.037,6.325-28.463,15.216-31.649c-3.013-0.89-242.782,0.54-242.782,0.54        c-16.048,10.809-20.569,31.976-15.254,64.553h238.167c4.114,0,16.571,3.359,20.238,2.096        C369.954,164.061,367.759,150.039,367.759,135.605z" id="SVGID_1_"/></defs><clipPath id="SVGID_2_"><use overflow="visible" xlink:href="#SVGID_1_"/></clipPath><g clip-path="url(#SVGID_2_)"><path d="M473.899,305.047V128.791c0-13.367-16.695-24.207-37.304-24.207H128.035v200.463H473.899z" fill="#FFFFFF"/><path d="M475.063,305.047V135.925c0-13.371-16.695-24.21-37.296-24.21H129.199v193.333H475.063z" opacity="0.2"/><path d="M471.564,305.047V143.055c0-13.37-16.779-24.206-37.48-24.206H123.983v186.198H471.564z" fill="#FFFFFF"/><path d="M465.271,305.047V148.991c0-12.708-16.618-23.013-37.127-23.013H121.356v179.068H465.271z" opacity="0.2"/><path d="M458.953,305.047V155.443c0-12.334-16.002-22.331-35.732-22.331H122.203v171.934H458.953z" fill="#FFFFFF"/><path d="M451.087,305.047V163.132c0-12.643-15.947-22.885-35.624-22.885H121.04v164.8H451.087z" opacity="0.2"/><path d="M444.885,305.047V171.095c0-13.094-15.523-23.718-34.676-23.718H123.367v157.67H444.885z" fill="#FFFFFF"/><path d="M440.354,305.047V177.181c0-12.52-15.153-22.67-33.844-22.67H126.864v150.536H440.354z" opacity="0.2"/><path d="M433.482,305.047v-121.41c0-12.146-14.899-21.991-33.273-21.991h-280.34v143.401H433.482z" fill="#FFFFFF"/></g></g><path d="M392.173,392.89c0,11.202-11.918,20.285-26.625,20.285H132.92c-7.234,0-13.097-4.469-13.097-9.977      V175.925c0-5.509,5.862-9.977,13.097-9.977h232.628c14.707,0,26.625,9.083,26.625,20.289V392.89z" fill="#CF2626"/><path d="M156.125,103.956h226.846v-5.12H151.006c-17.223,0-31.183,13.964-31.183,31.187V398.74      c0,7.97,6.461,14.431,14.431,14.431h238.042c7.97,0,14.431-6.461,14.431-14.431V182.855c0-7.97-6.461-14.431-14.431-14.431      H158.225c-18.382,0-33.282-14.904-33.282-33.282C124.942,117.916,138.902,103.956,156.125,103.956z" fill="#E92B2B"/><path d="M160.563,168.429h-2.334c-18.383,0-33.29-14.903-33.29-33.286c0-17.223,13.968-31.187,31.187-31.187      h4.438v-5.119h-9.553c-17.227,0-31.187,13.964-31.187,31.187v268.722c0,7.97,6.464,14.43,14.43,14.43h26.31V168.429z" fill="#CF2626"/><polygon opacity="0.2" points="240.408,146.672 194.407,146.672 188.821,174.295 188.821,292.046 216.032,280.806       246.002,292.924 246.002,174.295     "/><polygon fill="#F0F1F2" points="237.728,139.072 190.239,139.072 184.469,167.585 184.469,288.379 214.36,276.83       243.498,288.379 243.498,167.585     "/><polygon fill="#102947" points="234.576,144.018 193.159,144.018 188.136,168.429 188.128,282.404 214.199,271.699       239.615,282.404 239.6,168.429     "/><polygon fill="#3D516B" points="239.6,168.429 234.576,144.018 193.159,144.018 188.136,168.429     "/><rect fill="#FFFFFF" height="15.809" width="88.536" x="268.898" y="263.24"/><rect fill="#FFFFFF" height="15.813" width="88.536" x="268.898" y="225.817"/><rect fill="#FFFFFF" height="15.813" width="143.451" x="213.983" y="301.176"/><rect fill="#FFFFFF" height="15.813" width="143.451" x="213.983" y="339.11"/></g></g></g></svg>