<?xml version="1.0" ?><!DOCTYPE svg  PUBLIC '-//W3C//DTD SVG 1.1//EN'  'http://www.w3.org/Graphics/SVG/1.1/DTD/svg11.dtd'><svg enable-background="new 0 0 512 512" height="512px" id="Layer_1" version="1.1" viewBox="0 0 512 512" width="512px" xml:space="preserve" xmlns="http://www.w3.org/2000/svg" xmlns:xlink="http://www.w3.org/1999/xlink"><g><path d="M512,256c0,138.7-110.285,251.623-247.935,255.871c-2.69,0.078-5.378,0.129-8.065,0.129    C114.612,512,0,397.389,0,256S114.612,0,256,0c129.535,0,236.62,96.204,253.62,221.081C511.208,232.499,512,244.146,512,256z" fill="#ECD76A"/><g><radialGradient cx="260.4658" cy="278.8745" gradientTransform="matrix(2.56 0 0 2.56 -399.361 -399.3604)" gradientUnits="userSpaceOnUse" id="SVGID_1_" r="86.7966"><stop offset="0.5744" style="stop-color:#130C0E"/><stop offset="0.7977" style="stop-color:#130C0E"/><stop offset="1" style="stop-color:#130C0E"/></radialGradient><path d="M512,256c0,138.7-110.285,251.623-247.935,255.871     c0,0-239.748-238.77-241.205-240.23l80.537-141.159l74.24,42.369l30.772,31.334c2.79-0.154,5.657,0.026,8.524,0.589l50.253,9.626     l19.02-15.284c14.49-11.647,35.303-10.061,47.926,3.098l10.035-5.863l-10.473-15.539l15.055-10.164l-6.683-9.906l64.41-43.495     L509.62,221.081C511.208,232.499,512,244.146,512,256z" fill="url(#SVGID_1_)" opacity="0.2"/><g><path d="M318.952,224.303L216.93,204.768c-19.287-3.692-37.92,8.947-41.612,28.237l-1.252,6.529l59.034,6.404      l25.315,2.737l31.325,3.395l2.029,0.213l3.591,0.392c8.444,0.917,16.449-2.316,21.897-8.107c0.507-0.535,0.973-1.09,1.422-1.663      c0.272-0.322,0.53-0.679,0.785-1.02c2.146-2.997,3.683-6.477,4.42-10.313C324.53,228.205,322.315,224.947,318.952,224.303z" fill="#B86D55"/><path d="M366.11,183.583l51.649,75.77c-22.609,23.775-51.487,58.535-72.982,92.455      c-1.817,2.867-71.91,36.72-73.385,33.657L250.8,250.775L366.11,183.583z" fill="#E8A48E"/><g><path d="M275.065,263.855l-34.381,88.962l-9.05,22.582c-0.234,0.858-2.319,1.16-5.43,0.975       c-0.015,0-0.015,0-0.015,0c-4.341-0.235-10.66-1.409-16.676-3.284c-6.13-1.897-11.938-4.522-14.97-7.624       c-2.625-2.676-5.303-5.355-8.02-8.031c-0.21-0.225-0.436-0.438-0.66-0.647c-6.5-6.41-13.24-12.792-20.061-19.046       c-0.34-0.317-0.685-0.619-1.029-0.936c-6.886-6.292-13.851-12.424-20.723-18.295c-13.478-11.475-26.668-21.909-38.383-30.35       l36.695-84.035L275.065,263.855z" fill="#B86D55"/><path d="M260.098,297.286l14.968-33.431c0,0,52.569,52.518,79.915,73.571       c14.6,11.241-2.266,33.143-16.865,21.899C311.582,335.875,260.098,297.286,260.098,297.286z" fill="#B86D55"/><path d="M249.032,326.03l11.065-28.744c18.737,14.306,49.372,37.792,68.112,52.098       c14.647,11.184-2.128,33.156-16.775,21.973C292.695,357.05,267.772,340.337,249.032,326.03z" fill="#B86D55"/><path d="M216.813,336.54c5.218-7.594,10.442-15.185,15.662-22.78c23.226,15.97,46.443,31.932,69.67,47.903       c15.181,10.438-0.475,33.217-15.664,22.775C263.255,368.473,240.035,352.506,216.813,336.54z" fill="#B86D55"/><path d="M191.15,353.203c5.08-7.683,10.165-15.37,15.244-23.055c19.665,13.005,39.33,26.005,58.995,39.013       c15.373,10.162,0.125,33.22-15.247,23.055C230.475,379.21,210.813,366.211,191.15,353.203z" fill="#B86D55"/><path d="M346.61,363.74c-3.038,0-6.232-1.01-9.301-3.369c-1.109-0.978-2.625-2.181-4.09-3.346       c-1.21-0.962-2.42-1.925-3.395-2.75c-0.556-0.47-0.628-1.3-0.155-1.857c0.47-0.555,1.3-0.626,1.857-0.155       c0.958,0.81,2.147,1.752,3.333,2.699c1.492,1.185,3.034,2.411,4.13,3.377c6.734,5.181,13.792,2.434,17.465-2.336       s4.525-12.291-2.28-17.53c-27.09-20.86-73.125-65.363-73.587-65.81c-0.525-0.508-0.538-1.343-0.033-1.866       c0.511-0.524,1.343-0.537,1.865-0.029c0.46,0.445,46.39,44.846,73.365,65.612c7.875,6.064,7.348,15.27,2.76,21.23       C355.74,361.252,351.378,363.737,346.61,363.74z" fill="#733A29"/><path d="M320.15,375.853c-3.075,0-6.351-1.03-9.516-3.448c-0.935-0.71-2.175-1.601-3.399-2.475       c-0.985-0.708-1.958-1.403-2.753-1.995c-0.585-0.434-0.707-1.26-0.27-1.845c0.435-0.583,1.262-0.705,1.847-0.272       c0.78,0.585,1.74,1.27,2.71,1.968c1.25,0.893,2.516,1.797,3.466,2.522c6.902,5.27,13.853,2.688,17.387-1.94       c3.448-4.518,4.083-11.725-2.67-16.883c-18.739-14.305-72.308-55.22-72.308-55.22l1.601-2.096c0,0,53.567,40.914,72.31,55.22       c8.19,6.255,7.383,15.053,3.165,20.576C329.043,373.475,324.825,375.853,320.15,375.853z" fill="#733A29"/><path d="M294.872,388.567c-2.917,0-6.042-0.914-9.137-3.04l-17.478-12.018       c-0.603-0.412-0.753-1.235-0.343-1.833c0.415-0.601,1.237-0.751,1.835-0.341l17.48,12.018c7.21,4.955,14.02,2.118,17.302-2.616       c3.021-4.352,3.465-10.994-2.689-15.301c-11.625-7.991-23.556-16.8-35.098-25.32c-11.518-8.504-23.428-17.298-35.021-25.269       c-0.597-0.411-0.75-1.234-0.337-1.833c0.412-0.6,1.234-0.751,1.832-0.34c11.63,7.998,23.561,16.804,35.096,25.32       c11.52,8.505,23.432,17.302,35.029,25.275c7.306,5.11,7.215,13.41,3.357,18.971       C304.112,385.978,299.787,388.567,294.872,388.567z" fill="#733A29"/><path d="M269,373.74c-0.255,0-0.513-0.073-0.74-0.228c-0.428-0.292-43.157-29.413-62.59-42.265       c-0.607-0.401-0.775-1.219-0.372-1.826c0.402-0.608,1.217-0.776,1.827-0.372c19.45,12.86,62.19,41.989,62.62,42.284       c0.604,0.409,0.76,1.231,0.35,1.831C269.838,373.54,269.42,373.74,269,373.74z" fill="#733A29"/><path d="M301.662,360.291c-0.467-0.326-0.817-0.766-0.982-1.231       c-0.162-0.46-0.125-0.91,0.107-1.245l8.98-12.866c0.482-0.689,1.657-0.706,2.622-0.031l12.29,8.578       c1.45,1.007,2.493,2.469,2.905,4.055c0.41,1.588,0.16,3.173-0.702,4.41l-4.226,6.055c-1.795,2.575-5.692,2.955-8.707,0.853       L301.662,360.291z" fill="#FFFFFF" opacity="0.5"/><path d="M279.985,374.493c-0.513-0.368-0.913-0.855-1.11-1.35       c-0.2-0.495-0.175-0.958,0.055-1.285l7.641-10.645c0.495-0.685,1.76-0.62,2.837,0.15l10.195,7.313       c1.588,1.14,2.765,2.72,3.268,4.393c0.502,1.671,0.29,3.3-0.59,4.524l-2.793,3.894c-1.827,2.549-5.992,2.693-9.303,0.32       L279.985,374.493z" fill="#FFFFFF" opacity="0.5"/><path d="M330.765,346.808c-0.455-0.381-0.75-0.925-0.814-1.505       c-0.063-0.58,0.109-1.153,0.475-1.588l8.845-10.512c0.766-0.905,2.158-0.99,3.11-0.189l9.083,7.639       c3.107,2.62,3.612,7.147,1.117,10.111l-2.58,3.069c-1.2,1.425-2.94,2.289-4.845,2.405c-1.902,0.115-3.813-0.52-5.306-1.781       L330.765,346.808z" fill="#FFFFFF" opacity="0.5"/><path d="M245.405,381.999c-0.46-0.317-0.8-0.786-0.928-1.298       c-0.133-0.515-0.048-1.033,0.232-1.438l6.735-9.803c0.585-0.845,1.84-0.993,2.808-0.325l9.222,6.335       c3.16,2.171,4.186,6.175,2.288,8.938l-1.968,2.865c-0.915,1.328-2.39,2.183-4.104,2.384c-1.721,0.199-3.54-0.271-5.061-1.315       L245.405,381.999z" fill="#FFFFFF" opacity="0.5"/></g><g><g><path d="M202.13,336.606c-0.58,1.571-1.502,3.14-2.82,4.656c-0.369,0.422-0.728,0.845-1.097,1.267        c-4.115,4.748-9.473,11.118-13.588,15.865c-10.075,2.887-23.985-10.57-19.862-18.063c4.194-4.853,9.433-12.3,13.638-17.152        C189.138,310.754,206.92,323.76,202.13,336.606z" fill="#E8A48E"/><path d="M187.115,348.63c-0.315,0.368-0.74,0.613-1.181,0.685        c-0.439,0.071-0.854-0.038-1.167-0.301l-11.893-10.236c-0.64-0.551-0.625-1.617,0.032-2.38l8.351-9.701        c0.982-1.141,2.38-1.846,3.882-1.959c1.503-0.112,2.99,0.376,4.133,1.36l5.595,4.817c1.143,0.984,1.848,2.38,1.96,3.882        c0.113,1.504-0.377,2.99-1.359,4.131L187.115,348.63z" fill="#FFFFFF" opacity="0.5"/></g><g><path d="M217.865,363.436c-2.78,3.219-5.565,6.437-8.351,9.654c-10.479,10.48-29.912-5.987-22.989-15.655        c3.47-4.025,6.965-8.06,10.447-12.085C209.03,331.41,229.935,349.494,217.865,363.436z" fill="#E8A48E"/><path d="M207.76,365.675c-0.317,0.37-0.747,0.62-1.189,0.695        c-0.442,0.075-0.865-0.031-1.17-0.295l-9.931-8.549c-0.64-0.551-0.62-1.623,0.045-2.394l6.308-7.327        c0.982-1.143,2.38-1.848,3.883-1.96c1.502-0.112,2.99,0.378,4.133,1.36l3.632,3.127c2.378,2.047,2.646,5.635,0.598,8.014        L207.76,365.675z" fill="#FFFFFF" opacity="0.5"/></g><g><path d="M233.24,386.56c1.185-1.408,2.41-2.78,3.612-4.17c12.065-13.933-6.083-29.61-18.147-15.679        c-2.396,2.766-5.11,5.282-7.183,8.295C206.29,382.603,221.495,400.507,233.24,386.56z" fill="#E8A48E"/><path d="M228.843,382.915c-0.266,0.306-0.641,0.496-1.045,0.526        c-0.405,0.03-0.803-0.102-1.11-0.366l-7.51-6.464c-0.641-0.55-0.71-1.515-0.16-2.154l5.787-6.726        c0.668-0.775,1.615-1.253,2.636-1.329c1.017-0.076,2.027,0.255,2.802,0.923l3.982,3.427c1.613,1.39,1.795,3.823,0.405,5.437        L228.843,382.915z" fill="#FFFFFF" opacity="0.5"/></g><g><path d="M168.785,332.175c-1.33,1.545-4.646,5.053-5.976,6.594c-10.597,9.057-29.935-8.621-20.574-18.438        c1.279-1.478,4.364-4.76,5.645-6.238C159.935,300.15,180.843,318.232,168.785,332.175z" fill="#E8A48E"/><path d="M157.895,334.35c-0.335,0.367-0.805,0.587-1.302,0.61        c-0.495,0.025-0.978-0.151-1.338-0.485l-8.75-8.058c-0.758-0.694-0.8-1.879-0.095-2.644l6.71-7.288        c2.3-2.499,6.165-2.684,8.63-0.414l2.558,2.355c1.183,1.09,1.883,2.612,1.938,4.232c0.055,1.617-0.53,3.201-1.635,4.4        L157.895,334.35z" fill="#FFFFFF" opacity="0.5"/></g><g><path d="M340.375,209.746l-49.145,33.319l-21.078,14.283l-26.093,17.676l-1.688,1.132l-2.992,2.032        c-7.03,4.762-15.62,5.658-23.149,3.099c-0.686-0.238-1.36-0.513-2.03-0.803c-0.397-0.16-0.78-0.357-1.175-0.542        c-3.298-1.635-6.278-3.996-8.732-7.042c-1.926-2.375-1.783-5.75,0.188-7.982c0.225-0.276,0.47-0.527,0.762-0.751        l17.926-14.401l63.047-50.65c15.315-12.308,37.697-9.867,50.005,5.447L340.375,209.746z" fill="#E8A48E"/><path d="M303.685,280.587c-2.25,0-4.52-0.17-6.795-0.515c-11.835-1.795-22.335-8.097-29.574-17.751        c-0.875-1.165-0.641-2.819,0.524-3.694c1.17-0.873,2.82-0.636,3.695,0.527c6.405,8.54,15.689,14.115,26.145,15.7        c10.44,1.585,20.793-1,29.16-7.275c1.165-0.876,2.82-0.636,3.69,0.526c0.875,1.166,0.64,2.82-0.525,3.692        C322.325,277.563,313.168,280.587,303.685,280.587z" fill="#6E4133"/><path d="M229.143,260.264c-0.186,0.58-0.605,1.121-1.16,1.516l-10.854,7.955        c-1.796,1.304-3.851,2.016-5.753,1.978c-1.885-0.027-3.44-0.805-4.325-2.152l-1.912-2.913        c-0.343-0.527-0.567-1.107-0.657-1.73c0.225-0.276,0.47-0.527,0.762-0.751l17.926-14.401l5.857,8.955        C229.3,259.129,229.34,259.683,229.143,260.264z" fill="#FFFFFF" opacity="0.5"/></g></g><g><g><rect fill="#C0DFED" height="30.707" transform="matrix(-0.4956 0.8685 -0.8685 -0.4956 424.9084 242.9645)" width="134.163" x="74.826" y="229.504"/><rect height="30.706" opacity="0.3" transform="matrix(-0.4958 0.8684 -0.8684 -0.4958 424.287 159.3942)" width="7.089" x="162.328" y="187.512"/></g><g><rect fill="#231F20" height="85.485" transform="matrix(-0.4956 0.8685 -0.8685 -0.4956 342.9676 245.3397)" width="162.519" x="18.989" y="179.509"/><g><rect fill="#FFFFFF" height="16.036" transform="matrix(0.2638 0.9646 -0.9646 0.2638 265.5239 1.9091)" width="16.034" x="123.494" y="166.889"/><path d="M146.415,183.411l-6.397-23.409l-23.407,6.404l6.399,23.4L146.415,183.411z M142.02,180.904         l-16.507,4.514L121,168.914l16.505-4.512L142.02,180.904z" fill="#FFFFFF"/><path d="M143.268,181.615l-5.05-18.459l-18.458,5.05l5.045,18.453L143.268,181.615z M137.13,165.059         l4.23,15.466l-15.471,4.23l-4.228-15.465L137.13,165.059z" fill="#E67E22"/></g></g></g><g><g><rect fill="#FFFFFF" height="27.916" transform="matrix(0.5595 0.8288 -0.8288 0.5595 352.3834 -215.9625)" width="121.965" x="318.396" y="209.599"/><polygon opacity="0.3" points="368.16,181.991 364.55,176.65 341.415,192.268 345.02,197.607       "/></g><g><rect fill="#405134" height="77.712" transform="matrix(0.5595 0.8288 -0.8288 0.5595 348.9993 -256.2605)" width="147.743" x="341.726" y="161.363"/><g><path d="M390.46,171.919c1.265,0.245,2.49-0.582,2.735-1.847l3.313-17.067c0.245-1.265-0.58-2.49-1.846-2.736         l-17.077-3.318c-0.607-0.118-1.237,0.01-1.753,0.357c-0.512,0.345-0.867,0.882-0.984,1.49l-3.311,17.076         c-0.117,0.608,0.011,1.238,0.355,1.75c0.348,0.514,0.885,0.868,1.492,0.985L390.46,171.919z M379.008,152.005l12.447,2.417         l-2.415,12.448l-12.45-2.417L379.008,152.005z" fill="#FFFFFF"/><path d="M377.768,165.647c-0.607-0.119-1.146-0.473-1.49-0.986c-0.348-0.512-0.475-1.143-0.357-1.75         l1.89-9.729c0.245-1.265,1.471-2.091,2.735-1.845l9.732,1.89c0.61,0.118,1.146,0.473,1.49,0.985         c0.348,0.514,0.475,1.144,0.357,1.751l-1.89,9.726c-0.245,1.265-1.471,2.091-2.735,1.845L377.768,165.647z" fill="#141F35"/></g></g></g></g></g></g></svg>