<?xml version="1.0" ?><!DOCTYPE svg  PUBLIC '-//W3C//DTD SVG 1.1//EN'  'http://www.w3.org/Graphics/SVG/1.1/DTD/svg11.dtd'><svg enable-background="new 245.15 -825.2 512 512" height="512px" id="Layer_1" version="1.1" viewBox="245.15 -825.2 512 512" width="512px" xml:space="preserve" xmlns="http://www.w3.org/2000/svg" xmlns:xlink="http://www.w3.org/1999/xlink"><g><g><path d="M757.15-569.2c0,2.97-0.055,5.93-0.15,8.87c-4.59,134.79-113.39,243.15-248.37,247.02     c-2.49,0.07-4.979,0.11-7.479,0.11c-21.935,0-43.225-2.76-63.54-7.95C326.97-349.41,245.15-449.75,245.15-569.2     c0-141.39,114.62-256,256-256c137.77,0,250.105,108.82,255.77,245.19C757.07-576.42,757.15-572.82,757.15-569.2z" fill="#84C3FF"/><g><path d="M757-560.33c-4.59,134.79-113.39,243.15-248.37,247.02      c-2.49,0.07-4.979,0.11-7.479,0.11c-21.935,0-43.225-2.76-63.54-7.95l-85.86-99.2h-7.8v-298.03h275.79v8.78l7.81,8.78      L757-560.33z" enable-background="new    " opacity="0.2"/><g><g><g><rect fill="#F5CF87" height="245.585" width="275.792" x="343.949" y="-665.939"/><path d="M619.741-455.022v31.441L388.484-438.4         c-5.229,0-10.238-0.745-14.865-2.12c-15.967-4.728-27.328-16.857-27.328-31.074l3.517-49.295L619.741-455.022z" enable-background="new    " opacity="0.15"/><g><rect fill="#F53D48" height="12.402" width="275.792" x="343.949" y="-718.382"/><rect fill="#EA0413" height="33.322" width="275.792" x="343.949" y="-705.98"/><path d="M549.68-687.884l-135.669-0.164v2.972c0,3.707,3.004,6.711,6.711,6.711          h122.247c3.707,0,6.711-3.004,6.711-6.711V-687.884z" enable-background="new    " opacity="0.4"/><path d="M549.68-690.805c0-3.707-3.004-6.711-6.711-6.711H420.722c-3.707,0-6.711,3.004-6.711,6.711v2.972          c0,3.707,3.004,6.711,6.711,6.711h122.247c3.707,0,6.711-3.004,6.711-6.711V-690.805z" fill="#FFEBC4"/><rect fill="#96030E" height="6.716" width="275.792" x="343.949" y="-672.658"/></g><rect enable-background="new    " height="11.277" opacity="0.2" width="268.83" x="348.645" y="-665.939"/></g><g><path d="M618.681-666.141v220.228H390.115c-5.146,0-10.065-0.748-14.609-2.121         c-15.694-4.728-26.859-16.854-26.859-31.076v-187.03h9.497c1.429,3.906,5.929,6.765,11.271,6.765s9.845-2.859,11.266-6.765         h9.885c1.264,4.098,5.887,7.139,11.395,7.139c5.513,0,10.129-3.042,11.392-7.139h9.647c1.084,4.289,5.824,7.514,11.496,7.514         c5.68,0,10.416-3.225,11.502-7.514h9.455c0.897,4.471,5.744,7.891,11.586,7.891c5.844,0,10.685-3.419,11.585-7.891h9.307         c0.697,4.655,5.646,8.268,11.648,8.268c6.006,0,10.95-3.613,11.646-8.268h9.201c0.479,4.835,5.532,8.641,11.695,8.641         c6.166,0,11.216-3.806,11.69-8.641h9.12c0.248,5.01,5.401,9.016,11.729,9.016c6.316,0,11.471-4.006,11.721-9.016h9.075         c0,5.188,5.263,9.393,11.738,9.393c6.481,0,11.736-4.205,11.736-9.393L618.681-666.141L618.681-666.141z" fill="#FFEBC4"/><path d="M658.341-465.074c-2.044,11.039-13.84,19.158-27.778,19.158c-79.68,0-159.354,0-239.043,0         c13.641-3.338,22.598-13.082,22.407-22.824c0.188-9.744-8.771-19.487-22.407-22.832L658.341-465.074L658.341-465.074z" fill="#FFFFFF"/><path d="M413.927-468.74c0.188,9.736-8.767,19.48-22.407,22.824h-1.4         c-5.146,0-10.065-0.748-14.609-2.121c10.029-4.401,16.275-12.555,16.125-20.703c0.184-9.746-7.176-24.765-20.811-28.104         l157.212,18.83L391.52-491.574C405.16-488.227,414.111-478.486,413.927-468.74z" enable-background="new    " opacity="0.1"/><g><path d="M464.848-566.167c1.982-1.453,3.729-3.138,5.311-5.03c4.782-5.81,7.163-12.799,7.163-20.771v-5.212          c0-8.256-2.458-15.259-7.396-20.815c-5.504-6.191-12.887-9.331-21.991-9.331c-9.591,0-17.226,3.356-22.526,9.971          c-4.648,5.741-7.084,13.256-7.084,22.338v4.173h21v-4.548c0-3.369,0.736-6.114,1.971-8.153          c1.57-2.568,4.201-3.816,7.637-3.816c6.273,0,9.396,3.387,9.396,10.658v2.85c0,6.1-1.611,11.031-4.521,14.362          c-3.106,3.646-8.213,5.647-14.892,5.647h-1.59v18h1.59c12.41,0,18.41,6.189,18.41,17.993v7.269          c0,7.139-3.598,10.463-11.349,10.463c-2.709,0-4.831-0.826-6.5-2.524c-1.711-1.739-2.649-3.929-2.888-6.703l-0.684-5.729          l-20.584,1.588v4.369c0,8.416,3.182,15.735,9.133,21.754c5.957,6.024,13.395,9.08,21.944,9.08          c8.729,0,16.111-2.978,22.318-8.845c6.5-6.088,9.604-13.983,9.604-23.465v-9.737c0-4.785-0.607-8.935-2.27-12.32          C473.281-558.436,469.674-562.972,464.848-566.167z" fill="#21071F"/><path d="M544.457-618.251c-5.957-6.024-13.26-9.079-21.813-9.079c-8.479,0-16.031,3.035-22.055,9.021          c-6.021,5.989-9.271,13.356-9.271,21.911v67.275c0,8.485,3.264,15.823,9.25,21.81c5.982,5.987,13.471,9.024,22.021,9.024          c8.416,0,15.686-3.019,21.701-8.97c6.021-5.957,9.023-13.313,9.023-21.864v-67.275          C553.316-604.879,550.407-612.231,544.457-618.251z M513.317-596.791c0-2.584,0.678-4.735,2.483-6.573          c1.808-1.832,3.832-2.722,6.408-2.722c2.579,0,4.632,0.893,6.469,2.729c1.842,1.839,2.64,3.987,2.64,6.566v67.374          c0,2.58-0.852,4.729-2.688,6.566c-1.836,1.837-3.96,2.729-6.542,2.729c-2.578,0-4.495-0.89-6.296-2.722          c-1.811-1.837-2.477-3.987-2.477-6.573L513.317-596.791L513.317-596.791z" fill="#21071F"/></g></g></g><g><g><path d="M571.434-531.425c0,31.604,25.531,57.237,57.102,57.406v-114.817         C596.965-588.664,571.434-563.033,571.434-531.425z" fill="#D92716"/><path d="M628.851-588.842c-0.104,0-0.213,0.005-0.315,0.005v114.817c0.104,0.002,0.214,0.011,0.315,0.011         c31.712,0,57.416-25.708,57.416-57.417C686.267-563.138,660.563-588.842,628.851-588.842z" fill="#E72A17"/></g><path d="M628.939-484.211c-26.031,0-47.216-21.18-47.216-47.214c0-26.033,21.185-47.214,47.216-47.214        c26.029,0,47.214,21.181,47.214,47.214C676.153-505.391,654.973-484.211,628.939-484.211z M628.939-575.559        c-24.342,0-44.136,19.799-44.136,44.134s19.794,44.135,44.136,44.135c24.335,0,44.135-19.8,44.135-44.135        S653.274-575.559,628.939-575.559z" fill="#231F20"/><g><path d="M598.398-499.565c17.532,16.809,45.355,16.28,62.243-1.163l-31.729-30.541L598.398-499.565z" fill="#C2C2C2"/><path d="M659.606-563.164c-0.021-0.019-0.04-0.041-0.063-0.066c-17.563-16.897-45.505-16.365-62.405,1.201         c-16.898,17.562-16.36,45.502,1.192,62.404c0.023,0.02,0.047,0.038,0.066,0.061l30.408-31.596l31.836,30.433         c0.031-0.033,0.063-0.063,0.094-0.091C677.618-518.361,677.102-546.255,659.606-563.164z" fill="#FFFFFF"/></g><path d="M646.354-596.934c-0.146,0-0.286-0.005-0.438-0.008h-34.674c-8.873,0-13.521-8.041-13.521-15.988        c0-4.035,1.145-7.833,3.206-10.703c2.463-3.405,6.124-5.281,10.313-5.281l35.105-0.006c8.528,0,12.988,8.044,12.988,15.99        c0,7.947-4.46,15.991-12.979,15.996C646.354-596.934,646.354-596.934,646.354-596.934z M646.352-623.234h-0.254l-34.854,0.002        c-2.38,0-4.302,0.985-5.704,2.932c-1.354,1.876-2.132,4.563-2.132,7.37c0,4.961,2.452,10.305,7.836,10.305l35.107,0.006        c5.019,0,7.302-5.347,7.302-10.311C653.652-617.894,651.368-623.234,646.352-623.234z" fill="#BD2508"/><rect fill="#231F20" height="7.459" width="27.001" x="615.31" y="-553.244"/><rect fill="#8C1B06" height="5.146" width="23.793" x="616.913" y="-550.933"/><path d="M637.15-619.681c-5.785,0-11.569,0-17.354,0c-5.957,2.759-5.883,10.822-0.146,16.27        c5.729,2.127,11.899,2.114,17.633-0.027C642.921-608.702,642.997-617.073,637.15-619.681z" fill="#21071F"/><g><path d="M616.153-604.875c-0.696-0.163-1.435,0.001-1.988,0.446c-0.562,0.443-0.888,1.119-0.888,1.834v13.667         h15.151v-13.069L616.153-604.875z" fill="#BD2508"/><path d="M643.594-602.599c0-0.714-0.324-1.389-0.885-1.833c-0.563-0.444-1.293-0.608-1.989-0.445L628.438-602         v13.07h15.155L643.594-602.599L643.594-602.599z" fill="#8C1B06"/></g><path d="M633.395-531.796c0.012-0.191-0.063-0.375-0.193-0.512l-3.092-3.166        c-0.133-0.132-0.312-0.207-0.492-0.207c-0.004,0-0.009,0-0.018,0c-0.188,0.002-0.365,0.085-0.492,0.227l-13.924,15.289        c-0.504-0.207-1.021-0.313-1.557-0.313c-2.293,0-4.16,1.865-4.16,4.158c0,0.671,0.16,1.326,0.477,1.918l-2.02,2.218        c-0.245,0.271-0.235,0.685,0.021,0.944l0.466,0.478c0.136,0.138,0.313,0.208,0.492,0.208c0.162,0,0.317-0.057,0.452-0.167        l2.268-1.965c0.616,0.347,1.301,0.526,2.008,0.526c2.294,0,4.162-1.865,4.162-4.158c0-0.49-0.095-0.985-0.279-1.459        l15.646-13.527C633.301-531.43,633.387-531.609,633.395-531.796z" fill="#21071F"/><path d="M661.744-502.392l-2.171-2.199c0.22-0.501,0.329-1.031,0.329-1.581c0-2.231-1.815-4.046-4.052-4.046        c-0.521,0-1.033,0.105-1.528,0.314l-25.396-25.699c-0.129-0.133-0.308-0.205-0.488-0.205        c-0.148,0.003-0.375,0.081-0.507,0.225l-3.18,3.453c-0.13,0.137-0.194,0.323-0.182,0.512c0.012,0.188,0.101,0.361,0.245,0.481        l27.491,23.035c-0.33,0.592-0.503,1.25-0.503,1.93c0,2.232,1.814,4.05,4.048,4.05c0.937,0,1.813-0.313,2.523-0.895        l2.227,1.863c0.128,0.107,0.284,0.16,0.441,0.16c0.186,0,0.371-0.074,0.509-0.223l0.207-0.227        C662.01-501.714,662.002-502.131,661.744-502.392z" fill="#21071F"/><circle cx="628.813" cy="-531.395" fill="#21071F" r="5.763"/><path d="M632.704-531.395c0,2.151-1.745,3.892-3.896,3.892c-2.149,0-3.893-1.74-3.893-3.892        s1.738-3.896,3.893-3.896C630.959-535.291,632.704-533.546,632.704-531.395z" fill="#E72A17"/><g><path d="M628.851-478.019c29.453,0,53.411-23.956,53.411-53.406c0-29.453-23.958-53.411-53.411-53.411         c-0.104,0-0.213,0.006-0.313,0.006v106.805C628.638-478.022,628.745-478.019,628.851-478.019z" fill="none"/><path d="M575.439-531.425c0,29.342,23.791,53.229,53.094,53.401V-584.83         C599.23-584.659,575.439-560.77,575.439-531.425z" fill="none"/><path d="M575.439-531.425c0-29.345,23.791-53.233,53.094-53.405v-8.011         c-33.729,0.172-61.104,27.651-61.104,61.417c0,33.763,27.379,61.242,61.104,61.417v-8.016         C599.23-478.197,575.439-502.083,575.439-531.425z" fill="#BD2508"/><path d="M628.851-592.847c-0.104,0-0.213,0.006-0.313,0.006v8.011c0.104,0,0.212-0.006,0.313-0.006         c29.453,0,53.411,23.958,53.411,53.411c0,29.45-23.958,53.406-53.411,53.406c-0.104,0-0.213-0.002-0.313-0.005v8.016         c0.104,0,0.212,0.005,0.313,0.005c33.868,0,61.427-27.555,61.427-61.422C690.273-565.298,662.719-592.847,628.851-592.847z" fill="#8C1B06"/></g></g></g></g></g></g></svg>