<?xml version="1.0" ?><!DOCTYPE svg  PUBLIC '-//W3C//DTD SVG 1.1//EN'  'http://www.w3.org/Graphics/SVG/1.1/DTD/svg11.dtd'><svg enable-background="new 0 0 512 511.961" height="511.961px" id="Layer_1" version="1.1" viewBox="0 0 512 511.961" width="512px" xml:space="preserve" xmlns="http://www.w3.org/2000/svg" xmlns:xlink="http://www.w3.org/1999/xlink"><g><g><path d="M512,252.535V256c0,122.723-86.369,225.319-201.688,250.211c-17.488,3.781-35.643,5.75-54.273,5.75     c-11.419,0-22.646-0.746-33.673-2.203C96.885,493.292,0,385.931,0,256C0,114.612,114.65,0,256.038,0     C385.97,0,493.331,96.85,509.796,222.328C511.135,232.211,511.843,242.296,512,252.535z" fill="#1ABC9C"/><path d="M512,252.535V256c0,122.723-86.369,225.319-201.688,250.211     c-17.488,3.781-35.643,5.75-54.273,5.75c-11.419,0-22.646-0.746-33.673-2.203L114.923,402.316     c-10.004-6.027-16.738-16.935-16.738-29.462V139.146c0-19.022,15.4-34.419,34.423-34.419h246.823     c12.527,0,23.474,6.735,29.5,16.738c0,0,46.908,46.904,100.865,100.862C511.135,232.211,511.843,242.296,512,252.535z" fill="#0D2038" opacity="0.2"/><path d="M413.835,372.846c0,18.997-15.399,34.396-34.396,34.396H132.597c-18.997,0-34.396-15.399-34.396-34.396     V139.134c0-18.996,15.399-34.396,34.396-34.396h246.842c18.997,0,34.396,15.4,34.396,34.396V372.846z" fill="#0D2038"/><g><path d="M354.143,138.416H155.77c-17.742,0-32.17,13.712-32.17,30.562v184.654      c0,16.85,14.428,30.558,32.17,30.558h198.373c17.738,0,32.165-14.462,32.165-31.312v-183.9      C386.308,152.127,371.881,138.416,354.143,138.416z" fill="#FFFFFF"/><path d="M354.143,136.789H155.77c-17.742,0-32.17,13.708-32.17,30.558V352c0,16.85,14.428,30.558,32.17,30.558      h198.373c17.738,0,32.165-14.458,32.165-31.312v-183.9C386.308,150.497,371.881,136.789,354.143,136.789z" fill="#828282"/><path d="M354.143,135.154H155.77c-17.742,0-32.17,13.716-32.17,30.562v184.65      c0,16.85,14.428,30.562,32.17,30.562h198.373c17.738,0,32.165-14.462,32.165-31.308V165.715      C386.308,148.87,371.881,135.154,354.143,135.154z" fill="#FFFFFF"/><path d="M354.143,133.527H155.77c-17.742,0-32.17,13.712-32.17,30.562v184.646      c0,16.85,14.428,30.562,32.17,30.562h198.373c17.738,0,32.165-14.462,32.165-31.308v-183.9      C386.308,147.239,371.881,133.527,354.143,133.527z" fill="#828282"/><path d="M354.143,131.892H155.77c-17.742,0-32.17,13.712-32.17,30.562v184.65      c0,16.854,14.428,30.562,32.17,30.562h198.373c17.738,0,32.165-14.458,32.165-31.312v-183.9      C386.308,145.604,371.881,131.892,354.143,131.892z" fill="#FFFFFF"/><path d="M354.143,130.265H155.77c-17.742,0-32.17,13.708-32.17,30.559v184.649      c0,16.851,14.428,30.565,32.17,30.565h198.373c17.738,0,32.165-14.461,32.165-31.315V160.824      C386.308,143.973,371.881,130.265,354.143,130.265z" fill="#828282"/><path d="M354.143,128.631H155.77c-17.742,0-32.17,13.711-32.17,30.562v184.653      c0,16.851,14.428,30.562,32.17,30.562h198.373c17.738,0,32.165-14.461,32.165-31.315V159.193      C386.308,142.342,371.881,128.631,354.143,128.631z" fill="#DBDBDB"/><path d="M124.181,253.124l-9.639,73.188c0,14.411,14.704,26.142,32.773,26.142l217.357,0.104      c18.065,0,32.819-12.474,32.819-26.889l-12.454-72.546H124.181z" fill="#0D2038"/><path d="M123.6,249.554l-9.058,75.188c0,14.411,14.704,26.139,32.773,26.139l217.357,0.107      c18.065,0,32.819-12.477,32.819-26.893l-11.185-74.542H123.6z" fill="#212121"/><path d="M123.6,250.124l-9.058,75.185c0,14.419,14.704,26.25,32.773,26.25h217.357      c18.065,0,32.819-12.474,32.819-26.889l-11.185-74.546H123.6z" fill="#FFFFFF"/><path d="M336.238,180.916h-20.05c-2.815,7.908-8.004,14.823-15.565,20.754      c-7.565,5.927-14.573,9.958-21.023,12.081v22.562c12.258-4.069,22.896-10.351,31.928-18.847v32.158h24.711V180.916z" fill="#EB3611"/><polygon fill="#EB3611" points="311.615,250.197 318.946,300.269 343.658,300.269 336.327,250.197     "/><g><path d="M246.516,250.423l-3.3-0.3h-39.7l-0.319,1.2c4.6-0.616,8.523-0.777,11.766-0.481       c4.927,0.446,8.961,2.347,12.107,5.685c3.143,3.347,4.473,7.611,3.996,12.797c-0.508,5.473-2.7,9.661-6.573,12.562       c-3.869,2.907-8.419,4.123-13.646,3.646c-4.865-0.446-8.888-2.165-12.064-5.165c-3.17-3.008-4.916-7.081-5.228-12.238       l-24.73,0.188c0.423,9.161,4.308,16.899,11.657,23.215c7.354,6.319,17.008,10.02,28.962,11.104       c12.615,1.146,23.466-1.22,32.554-7.101c9.085-5.877,14.065-13.534,14.935-22.969c0.601-6.508-1.146-12.262-5.262-17.273       C250.173,253.469,248.45,251.85,246.516,250.423z" fill="#EB3611"/><path d="M233.534,243.896c12.728-7.034,19.089-16.461,19.089-28.272c0-8.323-3.104-15.793-9.315-22.404       c-7.538-8.08-17.554-12.119-30.042-12.119c-7.3,0-13.889,1.393-19.773,4.177c-5.877,2.789-10.461,6.612-13.75,11.478       c-3.288,4.865-5.746,11.369-7.373,19.511l23.431,4.039c0.666-5.873,2.535-10.343,5.611-13.404       c3.077-3.058,6.789-4.588,11.131-4.588c4.404,0,7.935,1.346,10.589,4.034c2.653,2.696,3.977,6.308,3.977,10.839       c0,5.327-1.804,9.592-5.427,12.804c-3.619,3.215-8.865,4.734-15.742,4.546l-2.004,15.016h42.25       C242.581,246.838,238.369,244.951,233.534,243.896z" fill="#EB3611"/></g></g></g></g></svg>