<?xml version="1.0" ?><!DOCTYPE svg  PUBLIC '-//W3C//DTD SVG 1.1//EN'  'http://www.w3.org/Graphics/SVG/1.1/DTD/svg11.dtd'><svg enable-background="new 0 0 512 512" height="512px" id="Layer_1" version="1.1" viewBox="0 0 512 512" width="512px" xml:space="preserve" xmlns="http://www.w3.org/2000/svg" xmlns:xlink="http://www.w3.org/1999/xlink"><g><g><g><path d="M512,256c0,141.393-114.607,256-256,256c-11.026,0-21.938-0.707-32.611-2.046      C97.438,493.923,0,386.362,0,256C0,114.608,114.65,0,256,0c130.365,0,237.923,97.4,253.954,223.392      C511.292,234.062,512,244.977,512,256z" fill="#E74C3C"/><path d="M512,256c0,141.393-114.607,256-256,256c-11.026,0-21.938-0.707-32.611-2.046      C155.531,442.092,82.473,369.039,82.473,369c-6.935-2.246-12.015-8.707-12.015-16.431V159.431c0-9.569,7.8-17.369,17.369-17.369      h336.385c7.719,0,14.181,5.084,16.423,12.015l69.319,69.315C511.292,234.062,512,244.977,512,256z" opacity="0.2"/><g><path d="M441.573,352.584c0,9.585-7.777,17.361-17.361,17.361H87.827c-9.585,0-17.361-7.776-17.361-17.361       V159.431c0-9.585,7.776-17.362,17.361-17.362h336.385c9.584,0,17.361,7.777,17.361,17.362V352.584z" fill="#D0D7D8"/><rect fill="#0D2038" height="42.315" width="371.107" x="70.466" y="165.946"/><rect fill="#FFFFFF" height="28.215" width="228.958" x="163.784" y="227.185"/><rect fill="#555466" height="11.4" width="52.088" x="284.954" y="235.592"/><rect fill="#555466" height="11.4" width="23.33" x="358.02" y="235.592"/><rect fill="#555466" height="11.4" width="52.085" x="206.627" y="235.592"/><polygon fill="#0D2038" points="120.554,297.2 91.673,263.846 120.554,230.493      "/></g></g><rect fill="#EB3611" height="52.087" transform="matrix(0.7071 -0.7071 0.7071 0.7071 -119.1474 353.1369)" width="52.087" x="340.657" y="294.349"/><rect fill="#EFC849" height="52.087" transform="matrix(0.7071 -0.7071 0.7071 0.7071 -134.2631 316.6505)" width="52.086" x="289.049" y="294.349"/><rect fill="#555466" height="10.708" width="109.962" x="106.115" y="327.031"/></g></g></svg>