<?xml version="1.0" ?><!DOCTYPE svg  PUBLIC '-//W3C//DTD SVG 1.1//EN'  'http://www.w3.org/Graphics/SVG/1.1/DTD/svg11.dtd'><svg enable-background="new 0 0 512 512" height="512px" id="Layer_1" version="1.1" viewBox="0 0 512 512" width="512px" xml:space="preserve" xmlns="http://www.w3.org/2000/svg" xmlns:xlink="http://www.w3.org/1999/xlink"><g><g><path d="M512,256c0,141.38-114.62,256-256,256c-1.17,0-2.34-0.01-3.51-0.02C112.72,510.1,0,396.21,0,256     C0,114.62,114.61,0,256,0c140.21,0,254.09,112.72,255.98,252.48C511.99,253.65,512,254.83,512,256z" fill="#96C555"/><path d="M512,256c0,141.38-114.62,256-256,256L128.31,387.77C92.73,353.3,72.5,305.81,72.5,256     c0-49.01,19.09-95.09,53.75-129.75C160.9,91.6,206.98,72.51,256,72.51c49.01,0,95.09,19.09,129.75,53.74     c0.66,0.66,1.3,1.33,1.95,2c1.586,1.543,123.68,123.64,124.28,124.23C511.99,253.65,512,254.83,512,256z" opacity="0.17"/><g><g><path d="M413.98,256.003c0,44.71-19,87.38-52.18,117.31c-0.347,0.33-0.703,0.643-1.057,0.953       c-28.89,25.61-66.086,39.717-104.747,39.717c-38.177,0-75.017-13.793-103.747-38.843c-0.354-0.307-0.7-0.62-1.047-0.923       c-33.816-29.987-53.187-72.99-53.187-118.213c0-87.117,70.867-157.983,157.98-157.983S413.98,168.887,413.98,256.003z" fill="#231F20"/><path d="M385.747,126.257C351.09,91.597,305.01,72.51,255.997,72.51c-49.01,0-95.09,19.087-129.75,53.747       c-34.657,34.656-53.743,80.736-53.743,129.747c0,53.066,22.96,103.503,62.986,138.367       c33.367,29.1,76.167,45.123,120.507,45.123c44.903,0,88.11-16.387,121.664-46.133c39.293-34.816,61.83-84.88,61.83-137.356       C439.49,206.993,420.403,160.913,385.747,126.257z M369.203,383.81c-30.123,26.71-69.78,42.927-113.207,42.927       c-42.91,0-82.133-15.83-112.123-41.98C107.953,353.47,85.26,307.38,85.26,256.003c0-94.29,76.44-170.737,170.736-170.737       c94.3,0,170.737,76.447,170.737,170.737C426.733,306.863,404.497,352.537,369.203,383.81z" fill="#FAEBC6"/><path d="M255.997,85.267c-94.296,0-170.736,76.447-170.736,170.737c0,51.376,22.693,97.467,58.613,128.753       c29.99,26.15,69.213,41.98,112.123,41.98c43.427,0,83.083-16.217,113.207-42.927c35.293-31.273,57.53-76.947,57.53-127.807       C426.733,161.713,350.297,85.267,255.997,85.267z M360.74,374.267c-28.887,25.61-66.083,39.713-104.744,39.713       c-38.177,0-75.017-13.79-103.743-38.84c-34.467-30.023-54.237-73.447-54.237-119.137c0-87.113,70.87-157.983,157.98-157.983       s157.98,70.87,157.98,157.983C413.977,301.183,394.573,344.287,360.74,374.267z" fill="#BDAE8D"/></g><g><path d="M361.38,173.083c-24.46-32.16-62.603-52.88-105.383-52.88c-73.646,0-133.56,61.4-133.56,136.87       c0,26.783,7.46,52.48,21.637,74.717c0.88,1.383,2.273,2.336,3.854,2.637c1.583,0.303,3.217-0.073,4.52-1.037l26.93-19.874       c5.387-3.98,7.097-11.376,4.003-17.396c-6.15-11.97-9.363-25.27-9.363-39.047c0-46.323,36.777-84.01,81.98-84.01       c28.58,0,53.787,15.066,68.463,37.853c8.54,13.257,13.517,29.12,13.517,46.157c0,13.997-3.307,27.487-9.643,39.593       c-3.13,5.98-1.47,13.417,3.876,17.427l26.783,20.08c1.3,0.97,2.93,1.356,4.514,1.063c1.583-0.29,2.983-1.227,3.87-2.604       c14.534-22.423,22.184-48.413,22.184-75.56C389.56,225.443,379.03,196.287,361.38,173.083z" opacity="0.8"/><g><path d="M255.997,116.243c-77.063,0-139.76,62.697-139.76,139.76c0,27.347,7.81,53.586,22.643,76.29        c0.92,1.413,2.377,2.383,4.034,2.693c1.653,0.307,3.363-0.074,4.73-1.057l28.176-20.297c5.637-4.06,7.427-11.617,4.19-17.763        c-6.437-12.22-9.796-25.8-9.796-39.867c0-47.303,38.483-85.783,85.783-85.783c29.907,0,56.28,15.383,71.644,38.65        l38.63-38.633C340.673,137.4,300.763,116.243,255.997,116.243z" fill="#79B2D4"/><path d="M327.64,208.87c8.933,13.537,14.143,29.736,14.143,47.133c0,14.29-3.463,28.066-10.093,40.423        c-3.276,6.11-1.537,13.703,4.057,17.796l28.027,20.503c1.356,0.99,3.066,1.383,4.723,1.087c1.657-0.293,3.12-1.253,4.05-2.657        c15.207-22.9,23.213-49.437,23.213-77.153c0-32.3-11.02-62.073-29.49-85.767L327.64,208.87z" fill="#E74C3C"/></g></g><g><path d="M259.64,155.223c0.08,4.99-7.647,4.99-7.567,0c0-7.617,0-15.227,0-22.84       c0-5.05,7.567-5.05,7.567,0C259.64,139.997,259.64,147.61,259.64,155.223z" fill="#006ABA" opacity="0.5"/><path d="M258.517,129.606c0.17,0.44,0.28,0.937,0.28,1.507c0,7.617,0,15.23,0,22.843       c0.06,3.78-4.357,4.69-6.47,2.74c1.307,3.447,7.383,2.96,7.313-1.474c0-7.613,0-15.227,0-22.84       C259.64,131.157,259.19,130.237,258.517,129.606z" fill="#FFFFFF" opacity="0.6"/><path d="M252.493,135.763c0-4.336,5.57-4.937,7.147-1.827c0-0.52,0-1.037,0-1.553c0-5.05-7.567-5.05-7.567,0       c0,7.613,0,15.223,0,22.84c-0.013,0.724,0.153,1.327,0.42,1.84C252.493,149.963,252.493,142.863,252.493,135.763z" fill="#002856"/><g opacity="0.5"><path d="M362.097,277.72c-4.967-0.51-4.06-8.184,0.887-7.52c7.563,0.893,15.12,1.783,22.683,2.676        c5.014,0.59,4.127,8.107-0.887,7.517C377.22,279.503,369.66,278.61,362.097,277.72z" fill="#B42006"/><path d="M360.54,242.32c-4.857,1.153-6.527-6.39-1.633-7.393c7.433-1.644,14.863-3.287,22.3-4.934        c4.927-1.086,6.563,6.3,1.637,7.39C375.407,239.027,367.973,240.673,360.54,242.32z" fill="#B42006"/><path d="M349.46,311.463c-4.513-2.126-1.113-9.063,3.333-6.797c6.836,3.354,13.67,6.707,20.506,10.06        c4.534,2.224,1.2,9.017-3.33,6.797C363.13,318.17,356.297,314.816,349.46,311.463z" fill="#B42006"/><path d="M352.243,214.823c-4.353,2.44-8.023-4.36-3.593-6.66c6.704-3.616,13.4-7.23,20.104-10.846        c4.44-2.397,8.037,4.263,3.593,6.66C365.646,207.593,358.947,211.21,352.243,214.823z" fill="#B42006"/><path d="M300.333,164.25c-1.804,4.653-8.963,1.75-7.014-2.847c2.86-7.057,5.72-14.11,8.58-21.167        c1.897-4.677,8.91-1.833,7.014,2.843C306.053,150.137,303.193,157.19,300.333,164.25z" fill="#006ABA"/><path d="M331.24,184.963c-3.293,3.753-9.02-1.43-5.614-5.08c5.11-5.646,10.217-11.29,15.327-16.937        c3.383-3.74,8.997,1.336,5.614,5.08C341.453,173.673,336.347,179.317,331.24,184.963z" fill="#006ABA"/></g><g opacity="0.5"><path d="M388.58,274.8c0.046,2.083-1.457,4.23-4.224,3.903c-7.56-0.893-15.12-1.787-22.683-2.676        c-1.437-0.147-2.38-0.894-2.876-1.864c0.05,1.693,1.093,3.33,3.3,3.557c7.563,0.89,15.124,1.783,22.683,2.673        C388.33,280.81,389.797,277.177,388.58,274.8z" fill="#FFFFFF"/><path d="M385.394,231.94c0.06,1.633-0.844,3.283-2.974,3.753c-7.437,1.643-14.87,3.29-22.303,4.937        c-2.007,0.477-3.467-0.537-4.146-1.953c0.09,2.16,1.816,4.296,4.57,3.643c7.433-1.646,14.867-3.293,22.303-4.937        C385.737,236.743,386.363,233.93,385.394,231.94z" fill="#FFFFFF"/><path d="M375.033,316.316c-0.006,2.497-2.48,4.99-5.486,3.517c-6.837-3.354-13.673-6.707-20.51-10.06        c-0.81-0.383-1.363-0.923-1.703-1.537c-0.003,1.267,0.617,2.517,2.126,3.227c6.837,3.353,13.67,6.707,20.51,10.06        C373.673,323.34,376.573,319.13,375.033,316.316z" fill="#FFFFFF"/><path d="M373.95,198.99c0.03,1.243-0.557,2.503-2.027,3.296c-6.7,3.617-13.4,7.233-20.1,10.847        c-2.25,1.26-4.313,0.053-5.173-1.72c0.067,2.53,2.677,5.047,5.593,3.41c6.704-3.613,13.403-7.23,20.104-10.847        C374.507,202.813,374.763,200.64,373.95,198.99z" fill="#FFFFFF"/><path d="M308.81,139.87c-0.007,0.477-0.104,0.986-0.32,1.52c-2.86,7.057-5.72,14.11-8.58,21.17        c-1.327,3.427-5.56,2.753-6.92,0.323c-0.07,3.677,5.743,5.497,7.343,1.367c2.86-7.06,5.72-14.113,8.58-21.17        C309.414,141.847,309.293,140.743,308.81,139.87z" fill="#FFFFFF"/><path d="M347.187,163.827c-0.003,0.83-0.313,1.7-1.046,2.507c-5.107,5.646-10.217,11.293-15.323,16.94        c-2.077,2.37-5.124,1.177-6.233-0.943c-0.027,3.006,4.066,5.583,6.657,2.633c5.106-5.646,10.213-11.29,15.327-16.937        C347.82,166.633,347.836,165.063,347.187,163.827z" fill="#FFFFFF"/></g><g><path d="M362.56,272.737c7.563,0.893,15.123,1.783,22.683,2.676c2.02,0.237,3.067,1.604,3.29,3.107        c1.113-2.113,0.313-5.267-2.867-5.644c-7.563-0.893-15.12-1.783-22.683-2.676c-2.95-0.394-4.463,2.176-4.15,4.42        C359.467,273.38,360.74,272.493,362.56,272.737z" fill="#8C1B06"/><path d="M358.483,237.463c7.433-1.644,14.867-3.29,22.3-4.934c2.57-0.566,4.24,1.17,4.557,3.117        c1.42-2.486-0.423-6.473-4.133-5.653c-7.437,1.647-14.867,3.29-22.3,4.934c-2.33,0.477-3.17,2.433-2.89,4.23        C356.477,238.35,357.28,237.71,358.483,237.463z" fill="#8C1B06"/><path d="M352.374,307.203c6.833,3.354,13.67,6.704,20.503,10.06c1.264,0.62,1.917,1.593,2.1,2.63        c0.897-1.71,0.637-4.034-1.677-5.167c-6.836-3.353-13.67-6.707-20.506-10.06c-3.21-1.637-5.874,1.523-5.407,4.21        C348.247,307.203,350.183,306.087,352.374,307.203z" fill="#8C1B06"/><path d="M348.227,210.7c6.704-3.617,13.4-7.23,20.104-10.85c2.717-1.463,5.11,0.457,5.55,2.72        c1.747-2.873-1.39-7.27-5.126-5.253c-6.704,3.616-13.4,7.23-20.104,10.846c-1.71,0.89-2.21,2.45-1.93,3.887        C347.043,211.527,347.537,211.057,348.227,210.7z" fill="#8C1B06"/><path d="M301.9,140.237c-2.86,7.057-5.72,14.11-8.58,21.167c-0.333,0.78-0.396,1.51-0.273,2.164        c2.81-6.934,5.62-13.86,8.43-20.797c1.58-3.896,6.717-2.567,7.283,0.693c0.05-0.127,0.104-0.257,0.154-0.383        C310.81,138.403,303.797,135.56,301.9,140.237z" fill="#002856"/><path d="M325.203,182.423c5.11-5.65,10.217-11.293,15.327-16.94c2.427-2.684,5.997-0.833,6.577,1.807        c2.13-3.624-2.986-7.843-6.153-4.343c-5.11,5.646-10.216,11.29-15.327,16.937c-0.966,1.037-1.196,2.193-0.957,3.237        C324.813,182.883,324.99,182.65,325.203,182.423z" fill="#002856"/></g><g opacity="0.5"><path d="M150.02,277.72c4.967-0.51,4.06-8.184-0.887-7.52c-7.563,0.893-15.123,1.783-22.683,2.676        c-5.014,0.59-4.127,8.107,0.883,7.517C134.896,279.503,142.457,278.61,150.02,277.72z" fill="#006ABA"/><path d="M151.577,242.32c4.856,1.153,6.527-6.39,1.633-7.393c-7.433-1.644-14.867-3.287-22.3-4.934        c-4.93-1.086-6.563,6.3-1.637,7.39C136.71,239.027,144.144,240.673,151.577,242.32z" fill="#006ABA"/><path d="M162.657,311.463c4.513-2.126,1.11-9.063-3.333-6.797c-6.836,3.354-13.67,6.707-20.506,10.06        c-4.534,2.224-1.2,9.017,3.33,6.797C148.983,318.17,155.82,314.816,162.657,311.463z" fill="#006ABA"/><path d="M159.87,214.823c4.356,2.44,8.026-4.36,3.597-6.66c-6.704-3.616-13.4-7.23-20.104-10.846        c-4.443-2.397-8.037,4.263-3.593,6.66C146.47,207.593,153.17,211.21,159.87,214.823z" fill="#006ABA"/><path d="M211.783,164.25c1.8,4.653,8.96,1.75,7.014-2.847c-2.86-7.057-5.72-14.11-8.58-21.167        c-1.897-4.677-8.91-1.833-7.014,2.843C206.063,150.137,208.923,157.19,211.783,164.25z" fill="#006ABA"/><path d="M180.876,184.963c3.293,3.753,9.02-1.43,5.614-5.08c-5.11-5.646-10.217-11.29-15.327-16.937        c-3.387-3.74-8.997,1.336-5.614,5.08C170.66,173.673,175.767,179.317,180.876,184.963z" fill="#006ABA"/></g><g opacity="0.5"><path d="M150.02,276.027c-7.563,0.89-15.124,1.783-22.687,2.676c-2.357,0.277-3.79-1.243-4.137-2.99        c-0.494,2.283,1.023,5.046,4.137,4.68c7.563-0.89,15.123-1.784,22.687-2.673c2.633-0.27,3.617-2.557,3.22-4.543        C152.953,274.597,151.914,275.833,150.02,276.027z" fill="#FFFFFF"/><path d="M151.577,240.63c-7.433-1.646-14.867-3.293-22.303-4.937c-1.697-0.374-2.613-1.497-2.887-2.763        c-0.38,1.836,0.45,3.917,2.887,4.453c7.437,1.644,14.87,3.29,22.303,4.937c3.19,0.757,5.003-2.236,4.49-4.667        C155.683,239.557,154.043,241.213,151.577,240.63z" fill="#FFFFFF"/><path d="M162.657,309.773c-6.837,3.353-13.673,6.707-20.51,10.06c-2.66,1.303-4.903-0.5-5.39-2.66        c-0.64,2.717,2.046,5.99,5.39,4.35c6.837-3.354,13.673-6.707,20.51-10.06c1.85-0.874,2.37-2.557,2.03-4.08        C164.463,308.343,163.83,309.22,162.657,309.773z" fill="#FFFFFF"/><path d="M159.87,213.133c-6.7-3.613-13.4-7.23-20.1-10.847c-1.104-0.597-1.71-1.453-1.934-2.374        c-0.33,1.47,0.16,3.107,1.934,4.063c6.7,3.617,13.4,7.233,20.1,10.847c3.283,1.84,6.173-1.57,5.503-4.347        C164.874,212.713,162.497,214.606,159.87,213.133z" fill="#FFFFFF"/><path d="M211.783,162.56c-2.86-7.06-5.72-14.113-8.58-21.17c-0.1-0.244-0.17-0.48-0.22-0.71        c-0.177,0.71-0.137,1.523,0.22,2.4c2.86,7.057,5.72,14.11,8.58,21.17c1.71,4.413,8.233,2.03,7.24-2.15        C218.23,165.14,213.243,166.333,211.783,162.56z" fill="#FFFFFF"/><path d="M180.876,183.273c-5.11-5.647-10.216-11.293-15.327-16.94c-0.493-0.543-0.79-1.12-0.937-1.687        c-0.27,1.07-0.053,2.28,0.937,3.38c5.11,5.646,10.217,11.29,15.327,16.937c2.82,3.213,7.42-0.124,6.547-3.443        C186.753,184.106,183.207,185.93,180.876,183.273z" fill="#FFFFFF"/></g><g><path d="M126.45,274.567c7.56-0.894,15.12-1.784,22.683-2.677c2.323-0.31,3.757,1.22,4.106,2.977        c0.463-2.297-1.046-5.077-4.106-4.667c-7.563,0.893-15.123,1.783-22.683,2.676c-2.653,0.313-3.64,2.563-3.253,4.527        C123.5,276.01,124.55,274.79,126.45,274.567z" fill="#002856"/><path d="M130.91,231.683c7.433,1.647,14.867,3.29,22.3,4.934c1.68,0.343,2.587,1.46,2.857,2.727        c0.366-1.847-0.447-3.923-2.857-4.417c-7.433-1.644-14.867-3.287-22.3-4.934c-3.233-0.713-5.047,2.22-4.523,4.63        C126.77,232.75,128.42,231.133,130.91,231.683z" fill="#002856"/><path d="M138.817,316.417c6.836-3.353,13.67-6.707,20.506-10.057c2.624-1.34,4.88,0.523,5.363,2.717        c0.644-2.727-2.073-6.09-5.363-4.41c-6.836,3.354-13.67,6.707-20.506,10.06c-1.874,0.917-2.4,2.617-2.06,4.133        C136.987,317.894,137.63,317,138.817,316.417z" fill="#002856"/><path d="M143.363,199.007c6.704,3.617,13.4,7.23,20.104,10.847c1.09,0.566,1.687,1.406,1.907,2.313        c0.33-1.47-0.15-3.09-1.907-4.003c-6.704-3.616-13.4-7.23-20.104-10.846c-3.336-1.804-6.197,1.51-5.527,4.287        C138.336,199.394,140.697,197.567,143.363,199.007z" fill="#002856"/><path d="M210.217,141.927c2.86,7.057,5.72,14.11,8.58,21.167c0.1,0.24,0.173,0.47,0.227,0.697        c0.183-0.71,0.143-1.517-0.227-2.387c-2.86-7.057-5.72-14.11-8.58-21.167c-1.797-4.434-8.193-2.107-7.233,2.133        C203.757,139.29,208.677,138.126,210.217,141.927z" fill="#002856"/><path d="M171.164,164.637c5.11,5.646,10.216,11.293,15.327,16.94c0.49,0.523,0.787,1.08,0.933,1.637        c0.273-1.067,0.063-2.263-0.933-3.33c-5.11-5.646-10.217-11.29-15.327-16.937c-2.894-3.197-7.404,0.043-6.55,3.39        C165.27,163.753,168.77,161.993,171.164,164.637z" fill="#002856"/></g></g><g><circle cx="255.997" cy="256.423" fill="#373737" r="41.02"/><path d="M256.42,217.093c19.847,0,36.4,14.097,40.2,32.823       c-2.76-19.97-19.89-35.356-40.624-35.356c-22.653,0-41.02,18.363-41.02,41.02c0,2.807,0.283,5.546,0.823,8.193       c-0.256-1.85-0.4-3.737-0.4-5.66C215.4,235.46,233.767,217.093,256.42,217.093z" fill="#FFFFFF" opacity="0.5"/><path d="M296.62,251.61c0.256,1.85,0.396,3.737,0.396,5.66c0,22.653-18.363,41.02-41.02,41.02       c-19.847,0-36.4-14.097-40.197-32.827c2.757,19.977,19.887,35.36,40.62,35.36c22.653,0,41.02-18.363,41.02-41.02       C297.44,256.997,297.157,254.257,296.62,251.61z" opacity="0.8"/></g><path d="M361.8,373.313c-0.347,0.33-0.703,0.643-1.057,0.953c-28.89,25.61-66.086,39.717-104.747,39.717      c-38.177,0-75.017-13.793-103.747-38.843c-0.354-0.307-0.7-0.62-1.047-0.923c25.787-34.137,63.557-55.673,105.64-55.673      C298.553,318.543,336.037,339.7,361.8,373.313z" fill="#373737"/><path d="M152.967,375.747c25.73-32.813,62.74-53.396,103.876-53.396c40.773,0,77.5,20.223,103.193,52.53      c0.237-0.207,0.473-0.407,0.707-0.613c0.354-0.31,0.71-0.623,1.057-0.953c-25.763-33.613-63.247-54.77-104.957-54.77      c-42.083,0-79.853,21.537-105.64,55.673c0.347,0.303,0.693,0.617,1.047,0.923C152.487,375.343,152.727,375.543,152.967,375.747z      " opacity="0.8"/><g><path d="M385.253,170.597c-1.6-2.08-4.543-3.173-7.363-2.283c-1.97,0.626-123.307,68.373-126.817,70.343       c-3.727,2.09-6.963,4.403-9.256,7.94c-4.394,6.78-4.114,15.593,0.676,22.117c0.007,0.013,0.01,0.02,0.017,0.033       c4.677,6.347,12.97,9.72,21.107,8.583c4.687-0.657,8.807-2.763,12.22-5.797c3.074-2.53,107.047-91.57,108.233-92.703       c1.507-1.15,2.403-2.907,2.403-4.733C386.473,172.78,386.013,171.58,385.253,170.597z" opacity="0.3"/><g><path d="M368.396,166.173c-1.876,0.63-117.517,69.45-120.863,71.45c-3.55,2.123-6.637,4.473-8.82,8.063        c-4.187,6.883-3.923,15.84,0.643,22.467l136.06-99.663C373.89,166.38,371.083,165.267,368.396,166.173z" fill="#FAEBC6"/><path d="M239.356,268.153c0.007,0.01,0.01,0.02,0.017,0.03c4.46,6.45,12.363,9.877,20.117,8.72        c4.466-0.663,8.39-2.807,11.646-5.887c2.927-2.57,102.02-93.013,103.15-94.16c1.437-1.17,2.29-2.957,2.29-4.813        c0-1.337-0.437-2.557-1.16-3.553L239.356,268.153z" fill="#DBCCA8"/></g><g><path d="M256.07,264.876c-4.383,0-7.986-3.336-8.41-7.606c-0.03,0.277-0.043,0.557-0.043,0.843        c0,4.67,3.783,8.454,8.453,8.454c4.667,0,8.45-3.784,8.45-8.454c0-0.287-0.017-0.566-0.043-0.843        C264.053,261.54,260.45,264.876,256.07,264.876z" fill="#FFFFFF" opacity="0.8"/><path d="M256.07,250.93c4.233,0,7.73,3.12,8.344,7.183c0.063-0.413,0.106-0.833,0.106-1.267        c0-4.67-3.783-8.453-8.45-8.453c-4.67,0-8.453,3.783-8.453,8.453c0,0.433,0.043,0.854,0.104,1.267        C248.333,254.05,251.833,250.93,256.07,250.93z" opacity="0.3"/></g></g></g></g></g></svg>