<?xml version="1.0" ?><!DOCTYPE svg  PUBLIC '-//W3C//DTD SVG 1.1//EN'  'http://www.w3.org/Graphics/SVG/1.1/DTD/svg11.dtd'><svg enable-background="new 0 0 145 145" id="Layer_1" version="1.1" viewBox="0 0 145 145" xml:space="preserve" xmlns="http://www.w3.org/2000/svg" xmlns:xlink="http://www.w3.org/1999/xlink"><g><path d="M38.2,98.7v6.5h6.5C41.1,105.2,38.2,102.3,38.2,98.7z" fill="#96CC6E"/><path d="M38.2,57.7v41.1c0,3.6,2.9,6.5,6.5,6.5h17.3V47.9L38.2,57.7z" fill="#87C4B2"/><polygon fill="#68AF99" points="61.9,47.9 61.9,105.2 85.7,105.2 85.7,65.2  "/><path d="M103,105.2h6.5v-6.5C109.5,102.3,106.6,105.2,103,105.2z" fill="#64A243"/><path d="M85.7,105.2H103c3.6,0,6.5-2.9,6.5-6.5V38.2l-23.8,27V105.2z" fill="#4A8978"/><path d="M109.5,44.6c-2.4,0-4.3-1.9-4.3-4.3c0-2.4,1.9-4.3,4.3-4.3s4.3,1.9,4.3,4.3   C113.8,42.7,111.9,44.6,109.5,44.6z M85.7,68.4c-2.4,0-4.3-1.9-4.3-4.3s1.9-4.3,4.3-4.3s4.3,1.9,4.3,4.3S88.1,68.4,85.7,68.4z    M61.9,54.3c-2.4,0-4.3-1.9-4.3-4.3s1.9-4.3,4.3-4.3c2.4,0,4.3,1.9,4.3,4.3S64.3,54.3,61.9,54.3z M38.2,61.9   c-2.4,0-4.3-1.9-4.3-4.3c0-2.4,1.9-4.3,4.3-4.3s4.3,1.9,4.3,4.3C42.5,60,40.5,61.9,38.2,61.9z" fill="#F58A68"/></g></svg>