<?xml version="1.0" ?><!DOCTYPE svg  PUBLIC '-//W3C//DTD SVG 1.1//EN'  'http://www.w3.org/Graphics/SVG/1.1/DTD/svg11.dtd'><svg enable-background="new 0 0 512 512" height="512px" id="Layer_1" version="1.1" viewBox="0 0 512 512" width="512px" xml:space="preserve" xmlns="http://www.w3.org/2000/svg" xmlns:xlink="http://www.w3.org/1999/xlink"><g><g><path d="M512,255.999c0,12.748-0.92,25.293-2.74,37.556c-16.357,111.258-104.27,199.221-215.475,215.681     C281.447,511.053,268.825,512,256,512C114.615,512,0,397.387,0,255.999C0,114.608,114.615,0,256,0     C397.39,0,512,114.608,512,255.999z" fill="#EBD1AE"/><g><radialGradient cx="273.1797" cy="273.0093" gradientTransform="matrix(2.56 0 0 2.56 -399.3591 -399.3639)" gradientUnits="userSpaceOnUse" id="SVGID_1_" r="81.8301"><stop offset="0.5744" style="stop-color:#130C0E"/><stop offset="0.7977" style="stop-color:#130C0E"/><stop offset="1" style="stop-color:#130C0E"/></radialGradient><path d="M509.26,293.554c-16.357,111.258-104.27,199.221-215.475,215.681      C293.07,508.652,193.725,409.22,192.92,408.04c-0.817-0.565-1.61-1.205-2.33-1.947c-5.71-5.863-5.555-15.208,0.285-20.916      c3.74-3.635,8.883-4.89,13.59-3.813c2.433,0.56,4.87-0.822,5.63-3.177c0.235-0.715,0.44-1.485,0.62-2.252      C207.985,373.205,99.11,264.336,90.7,255.924l30.747-30.748c0,0-11.872-11.823-15.032-14.973      c-5.68-5.865-5.525-15.235,0.335-20.92c5.865-5.68,15.21-5.555,20.915,0.307l14.62,14.72l31.002-31l-0.409-0.41l35.967-35.943      c0.998,0.18,1.971,0.41,2.865,0.718c0.277,0.09,22.585,22.683,22.763,22.757h0.022c1.843-0.692,3.585-1.74,5.098-3.225      c1.842-1.765,3.042-3.918,3.763-6.195c0,0-18.74-18.763-18.74-18.765c-0.025-0.05-0.025-0.103-0.025-0.155      c-1.814-0.33-3.359-1.74-3.765-3.633c-0.232-0.975-0.357-2-0.433-3.047l35.558-35.56l18.97,18.945l3.785,3.788l12.88,12.903      c0.688-0.178,1.383-0.357,2-0.563c2.375-0.768,3.735-3.2,3.195-5.633c-1.101-4.705,0.154-9.855,3.79-13.592      c5.685-5.863,15.052-5.99,20.915-0.308C321.485,105.393,508.72,292.734,509.26,293.554z" fill="url(#SVGID_1_)" opacity="0.2"/><g><path d="M300.168,105.735c-3.625,3.735-4.878,8.88-3.793,13.595c0.545,2.425-0.825,4.865-3.185,5.635       c-0.636,0.208-1.315,0.385-2.008,0.542l-35.635-35.635l-35.563,35.558c0.097,1.063,0.225,2.098,0.439,3.045       c0.563,2.54,3.056,4.16,5.607,3.655c4.748-0.935,9.853,0.465,13.473,4.197c5.695,5.865,5.55,15.23-0.305,20.917       c-5.865,5.69-15.23,5.553-20.92-0.313c-3.625-3.732-4.875-8.88-3.793-13.597c0.556-2.423-0.817-4.86-3.178-5.633       c-0.895-0.292-1.864-0.527-2.867-0.725l-35.955,35.956l36.625,36.62c-0.188,0.867-0.395,1.705-0.657,2.482       c-0.771,2.362-3.208,3.737-5.628,3.183c-4.717-1.08-9.867,0.17-13.603,3.795c-5.862,5.688-5.997,15.055-0.305,20.913       c5.68,5.865,15.05,6.007,20.91,0.315c3.735-3.62,5.14-8.728,4.202-13.478c-0.505-2.553,1.115-5.04,3.652-5.615       c0.828-0.185,1.723-0.3,2.631-0.387l35.225,35.225l35.667-35.665c-0.222-1.26-0.502-2.483-0.862-3.583       c-0.772-2.36-3.215-3.735-5.635-3.18c-4.72,1.083-9.865-0.17-13.598-3.792c-5.867-5.69-6-15.058-0.313-20.917       c5.686-5.863,15.05-6.003,20.92-0.313c3.735,3.625,5.133,8.73,4.192,13.475c-0.507,2.555,1.113,5.045,3.658,5.615       c1.18,0.268,2.487,0.413,3.83,0.502l35.199-35.2l-36.64-36.638c0.088-0.725,0.19-1.435,0.34-2.097       c0.575-2.54,3.065-4.16,5.615-3.655c4.75,0.935,9.86-0.467,13.485-4.2c5.68-5.863,5.55-15.225-0.318-20.916       C315.215,99.73,305.853,99.871,300.168,105.735z" fill="#D92716"/><radialGradient cx="272.043" cy="223.5508" gradientTransform="matrix(2.56 0 0 2.56 -399.3591 -399.3639)" gradientUnits="userSpaceOnUse" id="SVGID_2_" r="25.6493"><stop offset="0.5744" style="stop-color:#130C0E"/><stop offset="0.7977" style="stop-color:#130C0E"/><stop offset="1" style="stop-color:#130C0E"/></radialGradient><path d="M300.168,105.735c-3.625,3.735-4.878,8.88-3.793,13.595       c0.545,2.425-0.825,4.865-3.185,5.635c-0.636,0.208-1.315,0.385-2.008,0.542l-35.635-35.635l-0.008,166.113l35.667-35.665       c-0.222-1.26-0.502-2.483-0.862-3.583c-0.772-2.36-3.215-3.735-5.635-3.18c-4.72,1.083-9.865-0.17-13.598-3.792       c-5.867-5.69-6-15.058-0.313-20.917c5.686-5.863,15.05-6.003,20.92-0.313c3.735,3.625,5.133,8.73,4.192,13.475       c-0.507,2.555,1.113,5.045,3.658,5.615c1.18,0.268,2.487,0.413,3.83,0.502l35.199-35.2l-36.64-36.638       c0.088-0.725,0.19-1.435,0.34-2.097c0.575-2.54,3.065-4.16,5.615-3.655c4.75,0.935,9.86-0.467,13.485-4.2       c5.68-5.863,5.55-15.225-0.318-20.916C315.215,99.73,305.853,99.871,300.168,105.735z" fill="url(#SVGID_2_)" opacity="0.2"/><path d="M301.32,271.834c-3.618,3.732-4.865,8.885-3.78,13.603c0.555,2.417-0.817,4.86-3.173,5.632       c-0.637,0.21-1.317,0.388-2.018,0.548l-35.659-35.603l-35.528,35.59c0.093,1.06,0.218,2.098,0.431,3.047       c0.572,2.535,3.069,4.153,5.622,3.643c4.742-0.938,9.851,0.458,13.48,4.185c5.689,5.862,5.56,15.225-0.301,20.923       c-5.854,5.69-15.22,5.563-20.912-0.295c-3.625-3.732-4.883-8.877-3.808-13.595c0.556-2.423-0.822-4.863-3.18-5.633       c-0.893-0.29-1.867-0.522-2.867-0.72l-35.923,35.987l36.657,36.583c-0.188,0.873-0.402,1.712-0.652,2.49       c-0.77,2.365-3.21,3.74-5.63,3.185c-4.72-1.075-9.865,0.18-13.593,3.805c-5.859,5.697-5.992,15.06-0.295,20.917       c5.697,5.86,15.058,5.99,20.923,0.292c3.728-3.625,5.12-8.732,4.18-13.48c-0.51-2.547,1.11-5.04,3.647-5.615       c0.827-0.19,1.718-0.302,2.643-0.397l35.255,35.195l35.633-35.698c-0.226-1.26-0.513-2.48-0.87-3.58       c-0.777-2.36-3.223-3.728-5.638-3.175c-4.72,1.087-9.87-0.158-13.603-3.777c-5.872-5.685-6.015-15.053-0.332-20.92       c5.685-5.868,15.05-6.015,20.922-0.33c3.73,3.615,5.138,8.723,4.203,13.473c-0.5,2.55,1.117,5.042,3.662,5.61       c1.178,0.268,2.482,0.408,3.827,0.503l35.173-35.238l-36.678-36.598c0.085-0.73,0.198-1.44,0.341-2.105       c0.574-2.54,3.063-4.16,5.609-3.658c4.75,0.93,9.855-0.475,13.476-4.212c5.688-5.862,5.54-15.232-0.328-20.917       C316.365,265.814,307.003,265.961,301.32,271.834z" fill="#7F3F98"/><radialGradient cx="272.5059" cy="288.4482" gradientTransform="matrix(2.56 0 0 2.56 -399.3591 -399.3639)" gradientUnits="userSpaceOnUse" id="SVGID_3_" r="25.6527"><stop offset="0.5744" style="stop-color:#130C0E"/><stop offset="0.7977" style="stop-color:#130C0E"/><stop offset="1" style="stop-color:#130C0E"/></radialGradient><path d="M301.32,271.834c-3.618,3.732-4.865,8.885-3.78,13.603       c0.555,2.417-0.817,4.86-3.173,5.632c-0.637,0.21-1.317,0.388-2.018,0.548l-35.659-35.603l0.149,166.108l35.633-35.698       c-0.226-1.26-0.513-2.48-0.87-3.58c-0.777-2.36-3.223-3.728-5.638-3.175c-4.72,1.087-9.87-0.158-13.603-3.777       c-5.872-5.685-6.015-15.053-0.332-20.92c5.685-5.868,15.05-6.015,20.922-0.33c3.73,3.615,5.138,8.723,4.203,13.473       c-0.5,2.55,1.117,5.042,3.662,5.61c1.178,0.268,2.482,0.408,3.827,0.503l35.173-35.238l-36.678-36.598       c0.085-0.73,0.198-1.44,0.341-2.105c0.574-2.54,3.063-4.16,5.609-3.658c4.75,0.93,9.855-0.475,13.476-4.212       c5.688-5.862,5.54-15.232-0.328-20.917C316.365,265.814,307.003,265.961,301.32,271.834z" fill="url(#SVGID_3_)" opacity="0.3"/><path d="M240.535,300.562c-3.73-3.623-8.878-4.873-13.601-3.79c-2.415,0.55-4.854-0.823-5.625-3.183       c-0.207-0.635-0.39-1.313-0.547-2.012l35.632-35.63l-35.56-35.558c-1.05,0.09-2.09,0.215-3.04,0.427       c-2.537,0.57-4.155,3.063-3.655,5.615c0.936,4.748-0.457,9.853-4.194,13.475c-5.865,5.688-15.23,5.552-20.92-0.313       c-5.69-5.86-5.545-15.225,0.319-20.915c3.726-3.623,8.875-4.875,13.59-3.792c2.426,0.552,4.865-0.82,5.638-3.18       c0.288-0.893,0.522-1.862,0.726-2.862l-35.953-35.953l-36.622,36.62c-0.873-0.185-1.713-0.397-2.482-0.658       c-2.368-0.768-3.74-3.208-3.186-5.63c1.078-4.718-0.17-9.863-3.79-13.6c-5.694-5.863-15.06-6-20.917-0.31       c-5.867,5.69-6.008,15.055-0.317,20.92c3.625,3.73,8.728,5.133,13.475,4.195c2.561-0.508,5.045,1.112,5.623,3.65       c0.177,0.83,0.295,1.725,0.39,2.638l-35.223,35.228l35.66,35.665c1.258-0.223,2.478-0.507,3.58-0.87       c2.359-0.77,3.729-3.208,3.183-5.63c-1.088-4.717,0.17-9.865,3.795-13.6c5.688-5.865,15.05-6.002,20.91-0.31       c5.864,5.688,6.002,15.053,0.313,20.918c-3.62,3.732-8.728,5.13-13.471,4.195c-2.56-0.505-5.05,1.115-5.617,3.655       c-0.263,1.183-0.417,2.485-0.503,3.833l35.2,35.2l36.638-36.638c0.728,0.085,1.436,0.193,2.098,0.34       c2.542,0.572,4.162,3.063,3.655,5.612c-0.933,4.75,0.465,9.855,4.192,13.478c5.872,5.69,15.232,5.553,20.922-0.315       C246.545,315.619,246.4,306.256,240.535,300.562z" fill="#5ABA38"/><radialGradient cx="223.7129" cy="272.1997" gradientTransform="matrix(2.56 0 0 2.56 -399.3591 -399.3639)" gradientUnits="userSpaceOnUse" id="SVGID_4_" r="25.6475"><stop offset="0.5744" style="stop-color:#130C0E"/><stop offset="0.7977" style="stop-color:#130C0E"/><stop offset="1" style="stop-color:#130C0E"/></radialGradient><path d="M240.535,300.562c-3.73-3.623-8.878-4.873-13.601-3.79       c-2.415,0.55-4.854-0.823-5.625-3.183c-0.207-0.635-0.39-1.313-0.547-2.012l35.632-35.63l-166.1-0.002l35.66,35.665       c1.258-0.223,2.478-0.507,3.58-0.87c2.359-0.77,3.729-3.208,3.183-5.63c-1.088-4.717,0.17-9.865,3.795-13.6       c5.688-5.865,15.05-6.002,20.91-0.31c5.864,5.688,6.002,15.053,0.313,20.918c-3.62,3.732-8.728,5.13-13.471,4.195       c-2.56-0.505-5.05,1.115-5.617,3.655c-0.263,1.183-0.417,2.485-0.503,3.833l35.2,35.2l36.638-36.638       c0.728,0.085,1.436,0.193,2.098,0.34c2.542,0.572,4.162,3.063,3.655,5.612c-0.933,4.75,0.465,9.855,4.192,13.478       c5.872,5.69,15.232,5.553,20.922-0.315C246.545,315.619,246.4,306.256,240.535,300.562z" fill="url(#SVGID_4_)" opacity="0.2"/><path d="M405.83,300.937c-3.73-3.627-8.878-4.875-13.6-3.795c-2.415,0.552-4.853-0.823-5.631-3.178       c-0.207-0.637-0.385-1.315-0.545-2.01l35.638-35.64l-35.558-35.561c-1.064,0.095-2.1,0.223-3.045,0.438       c-2.54,0.565-4.155,3.06-3.652,5.615c0.933,4.74-0.465,9.855-4.197,13.473c-5.865,5.69-15.226,5.547-20.918-0.313       c-5.697-5.86-5.558-15.223,0.315-20.918c3.729-3.622,8.877-4.872,13.593-3.79c2.42,0.552,4.859-0.823,5.637-3.18       c0.288-0.89,0.525-1.862,0.726-2.865l-35.958-35.958l-36.622,36.627c-0.868-0.188-1.703-0.4-2.478-0.657       c-2.365-0.77-3.735-3.21-3.19-5.63c1.088-4.72-0.165-9.865-3.79-13.6c-5.689-5.863-15.055-6.002-20.915-0.315       c-5.862,5.692-6.005,15.055-0.313,20.922c3.625,3.73,8.73,5.13,13.473,4.195c2.556-0.505,5.04,1.118,5.615,3.655       c0.185,0.822,0.3,1.72,0.395,2.632l-35.228,35.228l35.668,35.665c1.255-0.223,2.475-0.505,3.582-0.865       c2.36-0.772,3.733-3.215,3.176-5.632c-1.08-4.717,0.172-9.868,3.795-13.6c5.689-5.865,15.053-6.005,20.917-0.313       c5.865,5.69,6.003,15.058,0.313,20.92c-3.617,3.733-8.732,5.13-13.473,4.198c-2.557-0.51-5.05,1.115-5.619,3.652       c-0.271,1.183-0.415,2.485-0.503,3.828l35.197,35.2l36.638-36.633c0.728,0.083,1.435,0.192,2.103,0.34       c2.54,0.57,4.16,3.06,3.655,5.612c-0.938,4.748,0.465,9.85,4.194,13.475c5.87,5.692,15.23,5.555,20.923-0.313       C411.838,315.989,411.697,306.624,405.83,300.937z" fill="#FFCC00"/><radialGradient cx="288.2803" cy="272.3438" gradientTransform="matrix(2.56 0 0 2.56 -399.3591 -399.3639)" gradientUnits="userSpaceOnUse" id="SVGID_5_" r="25.6486"><stop offset="0.5744" style="stop-color:#130C0E"/><stop offset="0.7977" style="stop-color:#130C0E"/><stop offset="1" style="stop-color:#130C0E"/></radialGradient><path d="M405.83,300.937c-3.73-3.627-8.878-4.875-13.6-3.795       c-2.415,0.552-4.853-0.823-5.631-3.178c-0.207-0.637-0.385-1.315-0.545-2.01l35.638-35.64h-166.11l35.668,35.665       c1.255-0.223,2.475-0.505,3.582-0.865c2.36-0.772,3.733-3.215,3.176-5.632c-1.08-4.717,0.172-9.868,3.795-13.6       c5.689-5.865,15.053-6.005,20.917-0.313c5.865,5.69,6.003,15.058,0.313,20.92c-3.617,3.733-8.732,5.13-13.473,4.198       c-2.557-0.51-5.05,1.115-5.619,3.652c-0.271,1.183-0.415,2.485-0.503,3.828l35.197,35.2l36.638-36.633       c0.728,0.083,1.435,0.192,2.103,0.34c2.54,0.57,4.16,3.06,3.655,5.612c-0.938,4.748,0.465,9.85,4.194,13.475       c5.87,5.692,15.23,5.555,20.923-0.313C411.838,315.989,411.697,306.624,405.83,300.937z" fill="url(#SVGID_5_)" opacity="0.2"/></g></g></g></g></svg>