<?xml version="1.0" ?><!DOCTYPE svg  PUBLIC '-//W3C//DTD SVG 1.1//EN'  'http://www.w3.org/Graphics/SVG/1.1/DTD/svg11.dtd'><svg enable-background="new 0 0 512 512" height="512px" id="Layer_1" version="1.1" viewBox="0 0 512 512" width="512px" xml:space="preserve" xmlns="http://www.w3.org/2000/svg" xmlns:xlink="http://www.w3.org/1999/xlink"><g><g><path d="M512,256c0,4.819-0.13,9.6-0.4,14.35c-7.17,129.85-111.12,233.9-240.93,241.23     c-4.86,0.279-9.75,0.42-14.68,0.42c-9.62,0-19.12-0.53-28.47-1.57C99.54,496.27,0,387.77,0,256C0,114.619,114.61,0,255.99,0     c136.47,0,248,106.779,255.59,241.35C511.86,246.199,512,251.08,512,256z" fill="#F3A831"/><path d="M511.6,270.35c-7.17,129.85-111.12,233.9-240.93,241.23c-1.04-1.03-118.562-118.438-122.44-123.36     c-0.65-0.67-1.475-1.36-2.105-2.04c-2.11-2.12-4.345-4.29-6.345-6.53c0-0.01,0-0.01,0-0.01c-1-1.08-1.725-2.18-2.655-3.29     c-0.03-0.03,0.033-0.06,0.003-0.1c-3.75-4.471-7.204-9.16-10.444-14.04c-0.07-0.101-0.117-0.21-0.187-0.311     c-0.71-1.08-1.389-2.16-2.079-3.26c-0.11-0.18-0.224-0.37-0.334-0.55c-0.66-1.061-1.297-2.13-1.927-3.2     c-0.1-0.17-0.198-0.34-0.298-0.51c-2.17-3.73-4.189-7.561-6.049-11.48c-0.1-0.22-0.2-0.439-0.3-0.649     c-0.5-1.061-0.979-2.12-1.46-3.19c-0.14-0.33-0.279-0.66-0.43-0.979c-0.42-0.99-0.84-1.971-1.24-2.971     c-0.15-0.35-0.29-0.689-0.43-1.05c-0.42-1.03-0.82-2.08-1.21-3.12c-0.11-0.29-0.22-0.57-0.33-0.859     c-0.99-2.69-1.91-5.41-2.75-8.171c-0.09-0.29-0.18-0.579-0.27-0.88c-0.32-1.06-0.62-2.12-0.92-3.189     c-0.12-0.44-0.24-0.87-0.36-1.311c-0.25-0.949-0.49-1.89-0.73-2.84c-0.12-0.479-0.23-0.96-0.35-1.43     c-0.22-0.95-0.44-1.9-0.64-2.851c-0.1-0.46-0.21-0.92-0.3-1.38c-0.23-1.09-0.44-2.18-0.64-3.279     c-0.06-0.311-0.13-0.631-0.19-0.95c-0.25-1.42-0.49-2.851-0.7-4.28c-0.05-0.28-0.08-0.57-0.12-0.85     c-0.17-1.141-0.33-2.28-0.47-3.431c-0.06-0.5-0.11-0.989-0.17-1.489c-0.1-0.95-0.21-1.9-0.3-2.86c-0.05-0.54-0.1-1.09-0.14-1.64     c-0.08-0.931-0.15-1.86-0.21-2.79c-0.04-0.551-0.07-1.091-0.1-1.641c-0.06-1-0.1-2-0.14-3c-0.02-0.47-0.04-0.939-0.05-1.42     c-0.04-1.47-0.07-2.939-0.07-4.43c0-49.59,23.09-93.78,59.07-122.311c-0.97-1.119-13.82-15.43-19.17-21.6     c2.25-3.27,4.9-6.229,7.86-8.82c2.98-2.62,6.3-4.87,9.86-6.689c0.96,1.1,22.08,22.24,22.17,22.189     c0.22,0.261,0.44,0.511,0.67,0.771c18.66-10.37,39.58-16.96,62.26-18.79c-0.51-0.54-1-1.08-1.48-1.64     c-1.03-0.961-2-1.971-2.91-3.03c-2.56-1.851-4.88-3.99-6.92-6.37c-1.08-1.01-2.09-2.08-3.05-3.21     c-7.73-7.22-12.48-17.49-12.48-28.89c0-21.87,17.46-39.601,39.24-39.601c11.75,0,22.26,5.17,29.45,13.37     c0.806,0.732,62.97,62.84,63.49,63.31c0.45-0.54,0.89-1.079,1.34-1.619c3.97,1.899,7.67,4.279,11.03,7.079     c1.84,1.53,3.56,3.19,5.19,4.961c1.1,1.01,2.15,2.069,3.17,3.17C369.619,128.286,511.594,270.344,511.6,270.35z" opacity="0.2"/><g><g><g><polygon fill="#2C3E50" points="176.925,144.969 166.205,154.347 152.689,138.791 163.407,129.413       "/><polygon opacity="0.2" points="176.925,144.969 166.205,154.347 152.689,138.791 163.407,129.413       "/><g><path d="M148.536,123.241l16.084,18.516c2.986-2.622,6.296-4.873,9.862-6.696         c-5.362-6.168-10.725-12.341-16.088-18.515C154.828,118.371,151.52,120.622,148.536,123.241z" fill="#34495E"/><path d="M140.68,132.058c5.359,6.173,10.724,12.347,16.084,18.514c2.262-3.27,4.9-6.225,7.855-8.814         l-16.084-18.516C145.58,125.834,142.939,128.791,140.68,132.058z" fill="#2C3E50"/></g></g><g><polygon fill="#2C3E50" points="342.515,155.23 330.369,145.096 344.959,127.452 357.113,137.586       "/><polygon opacity="0.2" points="342.515,155.23 330.369,145.096 344.959,127.452 357.113,137.586       "/><g><path d="M361.219,120.117l-17.376,20.996c3.397,2.829,6.444,6.066,9.064,9.668         c5.796-6.994,11.585-13.997,17.377-20.997C367.656,126.178,364.608,122.936,361.219,120.117z" fill="#34495E"/><path d="M350.19,113.037c-5.788,6.996-11.588,14-17.377,20.999c3.979,1.907,7.675,4.287,11.03,7.077         l17.376-20.996C357.859,117.318,354.159,114.944,350.19,113.037z" fill="#2C3E50"/></g></g><path d="M256.02,37.979c-21.787,0-39.45,17.73-39.45,39.599c0,21.869,17.663,39.598,39.45,39.598       c21.75,0,39.416-17.729,39.416-39.598C295.436,55.71,277.77,37.979,256.02,37.979z M256.02,110.898       c-18.333,0-33.197-14.916-33.197-33.32c0-18.401,14.865-33.32,33.197-33.32c18.314,0,33.163,14.919,33.163,33.32       C289.183,95.982,274.334,110.898,256.02,110.898z" fill="#FFFFFF"/><g><rect fill="#2C3E50" height="30.082" width="20.719" x="245.482" y="92.904"/><g><path d="M255.758,71.829v35.8c5.779-0.005,11.563,0.701,17.203,2.134c0-11.93,0-23.867,0-35.8         C267.321,72.529,261.537,71.822,255.758,71.829z" fill="#34495E"/><path d="M238.721,73.963c0,11.933,0,23.87,0,35.8c5.599-1.416,11.318-2.129,17.038-2.134v-35.8         C250.039,71.837,244.319,72.549,238.721,73.963z" fill="#2C3E50"/><path d="M238.721,73.963c0,11.933,0,23.87,0,35.8c5.599-1.416,11.318-2.129,17.038-2.134v-35.8         C250.039,71.837,244.319,72.549,238.721,73.963z" opacity="0.2"/></g></g></g><g><path d="M411.212,275.975c0,86.047-69.5,155.812-155.192,155.812c-85.73,0-155.228-69.765-155.228-155.812       c0-86.05,69.498-155.809,155.228-155.809C341.712,120.166,411.212,189.925,411.212,275.975z" fill="#2C3E50"/><path d="M106.782,280.732c0-86.051,69.499-155.809,155.229-155.809c34.925,0,67.177,11.609,93.128,31.182       c-26.892-22.436-61.45-35.939-99.119-35.939c-85.73,0-155.228,69.759-155.228,155.809c0,50.958,24.378,96.194,62.064,124.621       C128.6,372.021,106.782,328.936,106.782,280.732z" opacity="0.2"/></g><g><path d="M384.905,275.975c0,71.468-57.719,129.402-128.885,129.402c-71.2,0-128.92-57.935-128.92-129.402       c0-71.47,57.72-129.405,128.92-129.405C327.186,146.569,384.905,204.505,384.905,275.975z" fill="#FFFFFF"/><g><path d="M341.447,357.172c19.974-21.177,32.248-49.74,32.248-81.197c0-31.764-12.51-60.577-32.826-81.808        l-83.437,83.831L341.447,357.172z" fill="#C0392B"/><path d="M256.02,157.825c-34.029,0-64.665,14.51-86.159,37.683c-19.564,21.098-31.551,49.369-31.551,80.467        c0,33.514,13.924,63.743,36.257,85.245l82.866-83.222l83.437-83.831C319.447,171.779,289.351,157.825,256.02,157.825z" fill="#ECF0F1"/><path d="M257.432,277.998l-82.866,83.222c21.148,20.363,49.833,32.906,81.454,32.906        c33.631,0,63.975-14.208,85.427-36.954L257.432,277.998z" fill="#BDC3C7"/></g><g><ellipse cx="255.76" cy="186.645" fill="#8C1B06" rx="6.2" ry="6.227"/><path d="M345.106,279.449c-3.423,0.093-6.276-2.614-6.37-6.049c-0.097-3.435,2.603-6.303,6.025-6.398        c3.427-0.094,6.276,2.618,6.372,6.053C351.228,276.488,348.533,279.352,345.106,279.449z" fill="#8C1B06"/><path d="M249.606,365.225c0.041-3.437,2.852-6.188,6.275-6.144c3.424,0.039,6.167,2.859,6.128,6.297        c-0.042,3.438-2.857,6.187-6.277,6.147C252.31,371.481,249.563,368.658,249.606,365.225z" fill="#8C1B06"/><path d="M167.145,268.28c3.429,0.071,6.148,2.908,6.083,6.348c-0.065,3.435-2.897,6.172-6.32,6.102        c-3.427-0.067-6.146-2.907-6.078-6.342C160.895,270.954,163.724,268.216,167.145,268.28z" fill="#8C1B06"/><path d="M182.713,224.961c2.936,1.765,3.893,5.587,2.134,8.537c-1.758,2.951-5.572,3.908-8.504,2.144        c-2.938-1.764-3.893-5.59-2.134-8.532C175.966,224.156,179.775,223.195,182.713,224.961z" fill="#364B61"/><path d="M211.386,198.456c1.907,2.858,1.146,6.724-1.696,8.634c-2.843,1.921-6.7,1.158-8.604-1.699        c-1.907-2.854-1.146-6.72,1.696-8.635C205.625,194.837,209.481,195.604,211.386,198.456z" fill="#364B61"/><path d="M306.956,202.5c-1.772,2.95-5.581,3.897-8.509,2.123c-2.939-1.766-3.888-5.596-2.118-8.533        c1.762-2.95,5.57-3.896,8.505-2.131C307.766,195.731,308.715,199.56,306.956,202.5z" fill="#364B61"/><path d="M336.438,237.322c-2.988,1.688-6.771,0.624-8.45-2.366c-1.683-2.994-0.623-6.796,2.357-8.479        c2.984-1.686,6.768-0.629,8.447,2.364C340.472,231.838,339.419,235.634,336.438,237.322z" fill="#364B61"/><path d="M331.294,323.95c-3.007-1.65-4.12-5.428-2.479-8.446c1.635-3.018,5.406-4.137,8.41-2.486        c3.011,1.642,4.12,5.415,2.482,8.438C338.069,324.471,334.302,325.59,331.294,323.95z" fill="#364B61"/><path d="M177.457,323.95c-3.012-1.65-4.12-5.428-2.477-8.446c1.63-3.018,5.401-4.137,8.408-2.486        c3.006,1.642,4.115,5.415,2.477,8.438C184.228,324.471,180.459,325.59,177.457,323.95z" fill="#364B61"/><path d="M298.769,354.536c-1.841-2.905-0.991-6.752,1.9-8.592c2.883-1.854,6.723-0.995,8.556,1.903        c1.84,2.897,0.991,6.74-1.897,8.593C304.44,358.285,300.608,357.431,298.769,354.536z" fill="#364B61"/><path d="M298.769,354.536c-1.841-2.905-0.991-6.752,1.9-8.592c2.883-1.854,6.723-0.995,8.556,1.903        c1.84,2.897,0.991,6.74-1.897,8.593C304.44,358.285,300.608,357.431,298.769,354.536z" fill="#364B61"/><path d="M207.21,354.536c-1.838-2.905-0.992-6.752,1.898-8.592c2.884-1.854,6.724-0.995,8.561,1.903        c1.836,2.897,0.985,6.74-1.902,8.593C212.884,358.285,209.046,357.431,207.21,354.536z" fill="#364B61"/><g><polygon fill="#231F20" points="259.592,261.507 358.691,328.364 248.81,281.47        "/><ellipse cx="256.017" cy="273.225" fill="#231F20" rx="14.566" ry="14.625"/></g></g><path d="M145.293,283.938c0-69.459,56.099-125.768,125.29-125.768c18.686,0,36.426,4.147,52.374,11.532       c-19.375-12.329-42.333-19.499-66.937-19.499c-69.203,0-125.301,56.314-125.301,125.771c0,50.676,29.875,94.318,72.896,114.237       C168.572,367.913,145.293,328.666,145.293,283.938z" opacity="0.2"/></g></g></g></g></svg>