<?xml version="1.0" ?><!DOCTYPE svg  PUBLIC '-//W3C//DTD SVG 1.1//EN'  'http://www.w3.org/Graphics/SVG/1.1/DTD/svg11.dtd'><svg height="512px" style="enable-background:new 0 0 512 512;" version="1.1" viewBox="0 0 512 512" width="512px" xml:space="preserve" xmlns="http://www.w3.org/2000/svg" xmlns:xlink="http://www.w3.org/1999/xlink"><g id="Layer_9"><g><circle cx="256" cy="256" r="256" style="fill:#4CC5AD;"/><g><g><g><rect height="223.563" style="fill:#FFEED2;" width="159.687" x="173.714" y="215.383"/><g><path d="M169.722,218.377v224.562h167.671V218.377H169.722z M329.408,250.314h-23.953v-23.953h23.953        V250.314z M241.58,378.065v-23.953h23.953v23.953H241.58z M265.533,386.05v23.953H241.58V386.05H265.533z M265.533,290.237        v23.953H241.58v-23.953H265.533z M241.58,282.253V258.3h23.953v23.953H241.58z M265.533,322.175v23.953H241.58v-23.953        H265.533z M233.596,314.19h-23.953v-23.953h23.953V314.19z M233.596,322.175v23.953h-23.953v-23.953H233.596z         M233.596,354.112v23.953h-23.953v-23.953H233.596z M273.518,354.112h23.953v23.953h-23.953V354.112z M273.518,346.128        v-23.953h23.953v23.953H273.518z M273.518,314.19v-23.953h23.953v23.953H273.518z M273.518,282.253V258.3h23.953v23.953        H273.518z M273.518,250.314v-23.953h23.953v23.953H273.518z M265.533,250.314H241.58v-23.953h23.953V250.314z         M233.596,250.314h-23.953v-23.953h23.953V250.314z M233.596,258.3v23.953h-23.953V258.3H233.596z M201.658,282.253h-23.952        V258.3h23.952V282.253z M201.658,290.237v23.953h-23.952v-23.953H201.658z M201.658,322.175v23.953h-23.952v-23.953H201.658z         M201.658,354.112v23.953h-23.952v-23.953H201.658z M201.658,386.05v23.953h-23.952V386.05H201.658z M209.643,386.05h23.953        v23.953h-23.953V386.05z M233.596,417.987v23.953h-23.953v-23.953H233.596z M241.58,417.987h23.953v23.953H241.58V417.987z         M273.518,417.987h23.953v23.953h-23.953V417.987z M273.518,410.003V386.05h23.953v23.953H273.518z M305.455,386.05h23.953        v23.953h-23.953V386.05z M305.455,378.065v-23.953h23.953v23.953H305.455z M305.455,346.128v-23.953h23.953v23.953H305.455z         M305.455,314.19v-23.953h23.953v23.953H305.455z M305.455,282.253V258.3h23.953v23.953H305.455z M201.658,226.361v23.953        h-23.952v-23.953H201.658z M177.706,417.987h23.952v23.953h-23.952V417.987z M305.455,441.94v-23.953h23.953v23.953H305.455z" style="fill:#CCBEAC;"/><path d="M253.557,130.549c2.205,0,3.992-1.787,3.992-3.992V62.682c0-2.204-1.787-3.992-3.992-3.992        s-3.992,1.788-3.992,3.992v63.875C249.564,128.762,251.352,130.549,253.557,130.549z" style="fill:#CCBEAC;"/></g><path d="M305.455,179.453v-31.938h-31.938v-31.938h-15.969V55.695c0-2.204-1.787-3.992-3.992-3.992       s-3.992,1.788-3.992,3.992v59.883h-15.969v31.938h-31.938v31.938h-31.938v39.922h0.001v223.563h167.671V219.375v-7.984v-31.938       H305.455z M177.706,251.313h23.952v23.954h-23.952V251.313z M241.58,371.079v-23.953h23.953v23.953H241.58z M265.533,379.063       v23.953H241.58v-23.953H265.533z M233.596,315.188v23.953h-23.953v-23.953H233.596z M209.643,307.204v-23.953h23.953v23.953       H209.643z M241.58,315.188h23.953v23.953H241.58V315.188z M233.596,347.126v23.953h-23.953v-23.953H233.596z M273.518,347.126       h23.953v23.953h-23.953V347.126z M273.518,339.142v-23.953h23.953v23.953H273.518z M273.518,307.204v-23.953h23.953v23.953       H273.518z M265.533,307.204H241.58v-23.953h23.953V307.204z M241.58,275.267v-23.954h23.953v23.954H241.58z M233.596,275.267       h-23.953v-23.954h23.953V275.267z M177.706,283.251h23.952v23.953h-23.952V283.251z M177.706,315.188h23.952v23.953h-23.952       V315.188z M177.706,347.126h23.952v23.953h-23.952V347.126z M177.706,379.063h23.952v23.953h-23.952V379.063z M209.643,379.063       h23.953v23.953h-23.953V379.063z M233.596,411.001v23.953h-23.953v-23.953H233.596z M241.58,411.001h23.953v23.953H241.58       V411.001z M273.518,411.001h23.953v23.953h-23.953V411.001z M273.518,403.017v-23.953h23.953v23.953H273.518z M305.455,379.063       h23.953v23.953h-23.953V379.063z M305.455,371.079v-23.953h23.953v23.953H305.455z M305.455,339.142v-23.953h23.953v23.953       H305.455z M305.455,307.204v-23.953h23.953v23.953H305.455z M305.455,275.267v-23.954h23.953v23.954H305.455z M297.471,275.267       h-23.953v-23.954h23.953V275.267z M273.518,243.328v-23.953h23.953v23.953H273.518z M265.533,243.328H241.58v-23.953h23.953       V243.328z M233.596,243.328h-23.953v-23.953h23.953V243.328z M201.658,243.328h-23.952v-23.953h23.952V243.328z        M177.706,411.001h23.952v23.953h-23.952V411.001z M305.455,434.954v-23.953h23.953v23.953H305.455z M329.408,243.328h-23.953       v-23.953h23.953V243.328z" style="fill:#475059;"/><circle cx="253.556" cy="183.445" r="13.224" style="fill:#FFEED2;"/></g><g><rect height="223.563" style="fill:#FFEED2;" width="159.687" x="173.714" y="215.383"/><g><path d="M169.722,218.377v224.562h167.671V218.377H169.722z M329.408,250.314h-23.953v-23.953h23.953        V250.314z M241.58,378.065v-23.953h23.953v23.953H241.58z M265.533,386.05v23.953H241.58V386.05H265.533z M265.533,290.237        v23.953H241.58v-23.953H265.533z M241.58,282.253V258.3h23.953v23.953H241.58z M265.533,322.175v23.953H241.58v-23.953        H265.533z M233.596,314.19h-23.953v-23.953h23.953V314.19z M233.596,322.175v23.953h-23.953v-23.953H233.596z         M233.596,354.112v23.953h-23.953v-23.953H233.596z M273.518,354.112h23.953v23.953h-23.953V354.112z M273.518,346.128        v-23.953h23.953v23.953H273.518z M273.518,314.19v-23.953h23.953v23.953H273.518z M273.518,282.253V258.3h23.953v23.953        H273.518z M273.518,250.314v-23.953h23.953v23.953H273.518z M265.533,250.314H241.58v-23.953h23.953V250.314z         M233.596,250.314h-23.953v-23.953h23.953V250.314z M233.596,258.3v23.953h-23.953V258.3H233.596z M201.658,282.253h-23.952        V258.3h23.952V282.253z M201.658,290.237v23.953h-23.952v-23.953H201.658z M201.658,322.175v23.953h-23.952v-23.953H201.658z         M201.658,354.112v23.953h-23.952v-23.953H201.658z M201.658,386.05v23.953h-23.952V386.05H201.658z M209.643,386.05h23.953        v23.953h-23.953V386.05z M233.596,417.987v23.953h-23.953v-23.953H233.596z M241.58,417.987h23.953v23.953H241.58V417.987z         M273.518,417.987h23.953v23.953h-23.953V417.987z M273.518,410.003V386.05h23.953v23.953H273.518z M305.455,386.05h23.953        v23.953h-23.953V386.05z M305.455,378.065v-23.953h23.953v23.953H305.455z M305.455,346.128v-23.953h23.953v23.953H305.455z         M305.455,314.19v-23.953h23.953v23.953H305.455z M305.455,282.253V258.3h23.953v23.953H305.455z M201.658,226.361v23.953        h-23.952v-23.953H201.658z M177.706,417.987h23.952v23.953h-23.952V417.987z M305.455,441.94v-23.953h23.953v23.953H305.455z" style="fill:#CCBEAC;"/><path d="M253.557,130.549c2.205,0,3.992-1.787,3.992-3.992V62.682c0-2.204-1.787-3.992-3.992-3.992        s-3.992,1.788-3.992,3.992v63.875C249.564,128.762,251.352,130.549,253.557,130.549z" style="fill:#CCBEAC;"/></g><path d="M305.455,179.453v-31.938h-31.938v-31.938h-15.969V55.695c0-2.204-1.787-3.992-3.992-3.992       s-3.992,1.788-3.992,3.992v59.883h-15.969v31.938h-31.938v31.938h-31.938v39.922h0.001v223.563h167.671V219.375v-7.984v-31.938       H305.455z M177.706,251.313h23.952v23.954h-23.952V251.313z M241.58,371.079v-23.953h23.953v23.953H241.58z M265.533,379.063       v23.953H241.58v-23.953H265.533z M233.596,315.188v23.953h-23.953v-23.953H233.596z M209.643,307.204v-23.953h23.953v23.953       H209.643z M241.58,315.188h23.953v23.953H241.58V315.188z M233.596,347.126v23.953h-23.953v-23.953H233.596z M273.518,347.126       h23.953v23.953h-23.953V347.126z M273.518,339.142v-23.953h23.953v23.953H273.518z M273.518,307.204v-23.953h23.953v23.953       H273.518z M265.533,307.204H241.58v-23.953h23.953V307.204z M241.58,275.267v-23.954h23.953v23.954H241.58z M233.596,275.267       h-23.953v-23.954h23.953V275.267z M177.706,283.251h23.952v23.953h-23.952V283.251z M177.706,315.188h23.952v23.953h-23.952       V315.188z M177.706,347.126h23.952v23.953h-23.952V347.126z M177.706,379.063h23.952v23.953h-23.952V379.063z M209.643,379.063       h23.953v23.953h-23.953V379.063z M233.596,411.001v23.953h-23.953v-23.953H233.596z M241.58,411.001h23.953v23.953H241.58       V411.001z M273.518,411.001h23.953v23.953h-23.953V411.001z M273.518,403.017v-23.953h23.953v23.953H273.518z M305.455,379.063       h23.953v23.953h-23.953V379.063z M305.455,371.079v-23.953h23.953v23.953H305.455z M305.455,339.142v-23.953h23.953v23.953       H305.455z M305.455,307.204v-23.953h23.953v23.953H305.455z M305.455,275.267v-23.954h23.953v23.954H305.455z M297.471,275.267       h-23.953v-23.954h23.953V275.267z M273.518,243.328v-23.953h23.953v23.953H273.518z M265.533,243.328H241.58v-23.953h23.953       V243.328z M233.596,243.328h-23.953v-23.953h23.953V243.328z M201.658,243.328h-23.952v-23.953h23.952V243.328z        M177.706,411.001h23.952v23.953h-23.952V411.001z M305.455,434.954v-23.953h23.953v23.953H305.455z M329.408,243.328h-23.953       v-23.953h23.953V243.328z" style="fill:#475059;"/><circle cx="253.556" cy="183.445" r="13.224" style="fill:#FFEED2;"/></g><path d="M249.564,55.695v6.986v56.889h-11.977v26.448h15.969V51.703      C251.352,51.703,249.564,53.491,249.564,55.695z" style="fill:#475059;"/><path d="M269.525,119.57h-11.977V62.682v-6.986c0-2.204-1.787-3.992-3.992-3.992v94.315h15.969V119.57z" style="fill:#475059;"/><path d="M249.564,55.695v6.986v52.896h-15.969v31.938h-31.938v31.938h-31.938v39.922h0.001      v223.563h83.835V51.703C251.352,51.703,249.564,53.491,249.564,55.695z" style="opacity:0.3;fill:#FFEED2;"/></g><path d="M507.375,303.869L256.381,52.875c0.722,0.722,1.168,1.719,1.168,2.82v6.986v52.896h15.969v31.938     h31.938v31.938h31.938v31.938v6.986v0.998v223.563h-83.836h-83.835l67.699,67.7c6.128,0.438,12.315,0.667,18.556,0.667     C380.756,511.306,484.686,422.03,507.375,303.869z" style="fill:#3C9987;"/><polygon points="256.379,52.872 256.377,52.871 256.379,52.872    " style="fill:#4CC5AD;"/></g></g></g><g id="Layer_1"/></svg>