<?xml version="1.0" ?><!DOCTYPE svg  PUBLIC '-//W3C//DTD SVG 1.1//EN'  'http://www.w3.org/Graphics/SVG/1.1/DTD/svg11.dtd'><svg height="512px" id="Слой_1" style="enable-background:new 0 0 512 512;" version="1.1" viewBox="0 0 512 512" width="512px" xml:space="preserve" xmlns="http://www.w3.org/2000/svg" xmlns:xlink="http://www.w3.org/1999/xlink"><path d="M256,506.007c-138.066,0-250-111.931-250-250.003C6,117.931,117.934,5.993,256,5.993  c138.069,0,250,111.938,250,250.01C506,394.076,394.069,506.007,256,506.007z" style="fill:#EED8CF;"/><path d="M339.791,80.316c-0.192-0.212-0.408-0.398-0.676-0.524l-32.313-15.105  c-1.206-0.57-2.698,0.066-3.327,1.412l-14.781,31.623l-1.405-0.656c-1.478-0.689-3.294,0.086-4.07,1.73l-1.458,3.122  c-0.769,1.644-0.199,3.539,1.279,4.229l1.409,0.656l-4.431,9.478c-0.497,1.061-0.298,2.22,0.384,2.956  c-0.262,0.371-0.517,0.762-0.729,1.213l-5.587,11.944l-4.971-2.32c-1.644-0.769-3.606-0.059-4.375,1.584l-38.079,81.454  c-0.769,1.65-0.059,3.606,1.584,4.381l4.968,2.32l-3.994,8.544c-1.014,2.181-0.934,4.368,0.192,4.892l3.042,1.425l-12.527,26.804  c-0.617,1.319-0.623,2.592-0.126,3.168l-0.179,0.179l76.828,76.828c-14.483,14.158-30.496,20.402-42.679,14.702  c-7.675-3.586-12.687-11.387-14.957-21.708l10.595,4.958c1.644,0.762,4.249-1.326,5.806-4.666l1.309-2.803l1.78,0.835  c1.644,0.769,3.838-0.444,4.898-2.704l1.273-2.738c1.061-2.26,0.583-4.719-1.067-5.488l-103.029-48.167  c-1.637-0.769-3.831,0.437-4.892,2.704l-1.279,2.737c-0.915,1.949-0.63,3.983,0.517,5.018l-0.219,0.219l33.764,33.764l-14.178-6.628  c-1.644-0.769-4.249,1.312-5.813,4.666l-1.889,4.03c-1.352,2.896-1.478,5.78-0.418,6.999l-0.013,0.013l75.025,75.025h-94.3  c-4.216,0-7.622,2.346-7.622,5.223v14.575h-3.208v10.154l-0.013,0.013l0.013,0.013v0.079h0.08l68.078,68.079  c16.776,3.552,34.155,5.448,51.989,5.448c138.069,0,250-111.931,250-250.003c0-3.314-0.122-6.602-0.252-9.889L339.87,80.236  L339.791,80.316z" style="opacity:0.2;fill:#231F20;"/><g><path d="M320.933,426.614v-18.97c0-2.877-3.407-5.223-7.616-5.223H146.684c-4.216,0-7.622,2.346-7.622,5.223   v18.97H320.933z" style="fill:#155079;"/><rect height="10.26" style="fill:#103754;" width="188.295" x="135.853" y="422.22"/><g><path d="M316.738,192.803c-5.833-2.724-11.851-4.706-17.949-5.985l-23.199,49.619    c13.721-12.276,28.482-17.392,39.882-12.063c19.752,9.233,21.946,46.265,4.911,82.707c-17.048,36.449-46.868,58.508-66.614,49.274    c-11.407-5.329-16.948-19.938-16.325-38.331l-23.199,49.612c4.898,3.858,10.274,7.212,16.107,9.936    c45.609,21.33,101.935-2.744,125.79-53.762C379.997,272.786,362.353,214.133,316.738,192.803z" style="fill:#DC4225;"/><path d="M263.274,244.271c-1.014,2.188-2.751,3.533-3.878,3.003l-29.986-14.025    c-1.127-0.524-1.206-2.711-0.192-4.892l50.454-107.908c1.014-2.181,2.757-3.52,3.871-2.996l29.999,14.019    c1.113,0.524,1.206,2.718,0.186,4.898L263.274,244.271z" style="fill:#DC4225;"/><path d="M243.827,272.654c-0.723,1.531-1.935,2.466-2.724,2.101l-21.051-9.843    c-0.782-0.365-0.842-1.902-0.126-3.434l35.401-75.721c0.716-1.531,1.935-2.472,2.724-2.108l21.045,9.843    c0.789,0.365,0.848,1.909,0.126,3.447L243.827,272.654z" style="fill:#DC4225;"/><path d="M276.611,236.477c-0.769,1.644-2.724,2.346-4.375,1.577l-43.992-20.561    c-1.644-0.775-2.353-2.731-1.584-4.381l38.079-81.454c0.769-1.644,2.731-2.353,4.375-1.584l44.005,20.568    c1.631,0.769,2.346,2.724,1.577,4.374L276.611,236.477z" style="fill:#EC632B;"/><path d="M316.704,133.441c-0.636,1.339-2.121,1.975-3.327,1.412l-32.319-15.112    c-1.2-0.557-1.677-2.108-1.04-3.46l23.457-50.182c0.63-1.346,2.121-1.982,3.327-1.412l32.313,15.105    c1.213,0.563,1.67,2.115,1.047,3.46L316.704,133.441z" style="fill:#EC632B;"/><path d="M326.607,122.889c-0.769,1.644-2.592,2.413-4.07,1.73l-39.498-18.473    c-1.478-0.69-2.048-2.585-1.279-4.229l1.458-3.122c0.775-1.644,2.591-2.419,4.07-1.73l39.491,18.466    c1.478,0.689,2.055,2.578,1.286,4.229L326.607,122.889z" style="fill:#DC4225;"/><path d="M243.642,355.255c-0.762,1.644-2.724,2.353-4.368,1.584l-40.16-18.771    c-1.644-0.775-2.36-2.731-1.591-4.375l0.935-1.988c0.762-1.644,2.724-2.353,4.368-1.584l40.16,18.778    c1.65,0.769,2.36,2.724,1.591,4.375L243.642,355.255z" style="fill:#DC4225;"/><path d="M212.516,341.945c-1.571,3.354-4.169,5.435-5.813,4.666l-40.16-18.778    c-1.644-0.769-1.717-4.103-0.152-7.45l1.889-4.03c1.564-3.354,4.169-5.435,5.813-4.666l40.16,18.778    c1.65,0.762,1.703,4.103,0.146,7.443L212.516,341.945z" style="fill:#155079;"/><path d="M255.215,334.939c-1.558,3.341-4.163,5.428-5.806,4.666l-40.16-18.784    c-1.644-0.762-1.717-4.096-0.146-7.444l1.882-4.043c1.564-3.341,4.163-5.428,5.813-4.659l40.16,18.771    c1.637,0.775,1.717,4.109,0.146,7.45L255.215,334.939z" style="fill:#DC4225;"/><path d="M321.126,204.191c-5.356,11.46-18.983,16.398-30.43,11.043    c-11.454-5.356-16.398-18.977-11.049-30.43c5.356-11.454,18.983-16.398,30.437-11.043    C321.53,179.116,326.475,192.737,321.126,204.191z" style="fill:#DC4225;"/><path d="M317.414,202.461c-4.394,9.406-15.589,13.462-24.995,9.061    c-9.392-4.394-13.455-15.583-9.061-24.988c4.401-9.399,15.583-13.462,24.988-9.061    C317.752,181.867,321.815,193.055,317.414,202.461z" style="fill:#155079;"/><path d="M263.202,330.266c-1.061,2.26-3.255,3.473-4.898,2.704l-103.029-48.167    c-1.65-0.769-2.128-3.228-1.067-5.488l1.279-2.737c1.061-2.267,3.255-3.473,4.892-2.704l103.029,48.167    c1.65,0.769,2.127,3.228,1.067,5.488L263.202,330.266z" style="fill:#155079;"/></g><path d="M310.255,413.702l-14.317-36.349c-3.818-9.684-9.856-17.538-20.044-17.538   c-7.238,0-13.773,7.855-14.595,17.538l-3.062,36.349H310.255z" style="fill:#155079;"/><path d="M288.276,374.542c0,6.138-4.978,11.116-11.129,11.116c-6.138,0-11.109-4.978-11.109-11.116   c0-6.144,4.971-11.122,11.109-11.122C283.298,363.42,288.276,368.398,288.276,374.542z" style="fill:#DC4225;"/></g></svg>