<?xml version="1.0" ?><!DOCTYPE svg  PUBLIC '-//W3C//DTD SVG 1.1//EN'  'http://www.w3.org/Graphics/SVG/1.1/DTD/svg11.dtd'><svg enable-background="new 0 0 512 516.086" height="516.086px" id="Layer_1" version="1.1" viewBox="0 0 512 516.086" width="512px" xml:space="preserve" xmlns="http://www.w3.org/2000/svg" xmlns:xlink="http://www.w3.org/1999/xlink"><g><g><path d="M512,258.043c0,142.521-114.611,258.043-255.98,258.043c-6.668,0-13.298-0.275-19.85-0.753     C104.051,505.091,0,393.818,0,258.043C0,115.526,114.611,0,256.02,0c136.484,0,247.998,107.668,255.581,243.319     C511.88,248.2,512,253.12,512,258.043z" fill="#77B3D4"/><path d="M512,258.043c0,142.521-114.611,258.043-255.98,258.043c-6.668,0-13.298-0.275-19.85-0.753     L124.536,409.891V126.443h48.038V106.04c0-5.242,4.206-9.491,9.405-9.491h4.726c5.199,0,9.409,4.249,9.409,9.491v1.706     l22.113,18.698H324.5V106.04c0-5.242,4.21-9.491,9.409-9.491h4.726c5.199,0,9.405,4.249,9.405,9.491v1.706l22.114,18.698h29.494     l111.952,116.876C511.88,248.2,512,253.12,512,258.043z" fill="#0D2038" opacity="0.2"/><g><g><rect fill="#B7BBBC" height="283.467" width="275.12" x="124.536" y="126.432"/><rect fill="#FFFFFF" height="270.945" width="275.128" x="124.528" y="133.379"/><rect fill="#872F00" height="60.37" width="275.12" x="124.536" y="126.432"/><rect fill="#C94600" height="56.462" width="275.12" x="124.536" y="126.432"/></g><rect fill="#C9C9C9" height="16.923" width="193.18" x="166.507" y="220.073"/><rect fill="#C9C9C9" height="16.926" width="193.18" x="166.507" y="277.994"/><rect fill="#C9C9C9" height="16.918" width="167.239" x="166.507" y="335.921"/><path d="M196.103,152.992c0,6.548-5.269,11.859-11.767,11.859c-6.493,0-11.762-5.312-11.762-11.859      s5.269-11.859,11.762-11.859C190.834,141.132,196.103,146.444,196.103,152.992z" fill="#FFFFFF"/><ellipse cx="336.262" cy="152.992" fill="#FFFFFF" rx="11.762" ry="11.859"/><path d="M196.103,137.446v-31.395c0-5.238-4.214-9.487-9.409-9.487h-4.706c-5.199,0-9.413,4.249-9.413,9.487      v31.395H196.103z" fill="#C94600"/><path d="M348.024,137.446v-31.395c0-5.238-4.21-9.487-9.409-9.487h-4.706c-5.199,0-9.409,4.249-9.409,9.487      v31.395H348.024z" fill="#C94600"/></g><g><path d="M276.873,377.446l5.074,5.114l51.222-15.508c-1.885-10.188,3.442-19.811,9.451-28.657l-13.491-13.624      L276.873,377.446z" fill="#0D2038"/><path d="M380.567,314.083L360.151,293.5l-26.677,26.89l-4.346,4.381l16.291,16.442l1.465,1.477      c2.438,0.372,4.3-0.48,5.117-2.256C358.555,325.981,366.199,319.216,380.567,314.083z" fill="#E74C3C"/><path d="M451.351,201.573l-89.176,89.889l21.114,21.284c0.465-0.236,0.938-0.474,1.403-0.706      c38.171-20.027,65.433-52.962,85.778-91.233c-0.112-0.098-0.229-0.19-0.333-0.299L451.351,201.573z" fill="#E74C3C"/><path d="M360.151,293.5l20.385,20.548c0.977-0.361,1.992-0.679,3.035-1.02l0.942-0.899l-21.416-21.591      L360.151,293.5z" fill="#FFFFFF"/><path d="M276.946,377.516l-5.078-5.114l15.387-51.632c10.111,1.904,19.652-3.466,28.429-9.525l13.516,13.601      L276.946,377.516z" fill="#183A66"/><path d="M339.806,272.992l20.416,20.579l-26.673,26.894l-4.35,4.381l-16.311-16.423l-1.461-1.473      c-0.373-2.462,0.477-4.339,2.232-5.16C327.997,295.183,334.712,287.476,339.806,272.992z" fill="#F75140"/><path d="M451.424,201.65l-89.179,89.881l-21.113-21.275c0.232-0.474,0.465-0.946,0.701-1.419      c19.869-38.471,52.543-65.953,90.514-86.462c0.093,0.116,0.186,0.232,0.29,0.342L451.424,201.65z" fill="#F75140"/><g><path d="M349.029,242.439c19.807-27.855,47.053-49.016,77.773-65.608l-3.583-3.609       c-0.104-0.104-0.197-0.225-0.29-0.337c-30.732,16.593-57.986,37.761-77.797,65.627L349.029,242.439z" fill="#0D2038"/></g><g><path d="M359.147,228.533c-3.718,4.303-7.254,8.781-10.572,13.444l3.9,3.936       c3.318-4.668,6.854-9.146,10.572-13.449L359.147,228.533z" fill="#0D2038"/></g><path d="M360.222,293.571l-20.381-20.544c0.356-0.98,0.671-2.012,1.008-3.059l0.896-0.954l21.424,21.595      L360.222,293.571z" fill="#FFFFFF"/><path d="M312.684,351.18c-2.656,2.675-6.955,2.675-9.615,0c-2.651-2.675-2.651-7.009,0-9.685      c2.66-2.679,6.959-2.675,9.615,0C315.335,344.171,315.335,348.505,312.684,351.18z" fill="#FFFFFF"/><path d="M280.032,388.421c-3.846,3.877-10.071,3.877-13.91,0c-3.838-3.869-3.846-10.142,0-14.019      c3.839-3.869,10.064-3.869,13.91,0C283.875,378.28,283.875,384.552,280.032,388.421z" fill="#0D2038"/><path d="M279.963,374.34c-3.846-3.807-10.021-3.783-13.841,0.063c-3.822,3.854-3.838,10.076-0.062,13.953      L279.963,374.34z" fill="#183A66"/><polygon fill="#FFFFFF" points="266.848,389.154 265.394,387.693 309.714,343.024 311.164,344.481     "/><path d="M475.077,210.718l-37.536-37.83c-1.938-1.958-4.574-3.059-7.319-3.059c-2.753,0-5.381,1.101-7.327,3.063      l47.554,47.934l4.594-4.629C476.55,214.672,476.565,212.218,475.077,210.718z" fill="#0D2038"/></g></g></g></svg>