<?xml version="1.0" ?><!DOCTYPE svg  PUBLIC '-//W3C//DTD SVG 1.1//EN'  'http://www.w3.org/Graphics/SVG/1.1/DTD/svg11.dtd'><svg enable-background="new 0 0 512 511.96" height="511.96px" id="Layer_1" version="1.1" viewBox="0 0 512 511.96" width="512px" xml:space="preserve" xmlns="http://www.w3.org/2000/svg" xmlns:xlink="http://www.w3.org/1999/xlink"><g><g><path d="M512,252.494v3.508c0,10.831-0.669,21.5-2.008,31.977c-1.026,8.431-2.522,16.738-4.373,24.893     c-21.938,96.53-98.423,172.423-195.308,193.339c-8.192,1.772-16.542,3.153-25.012,4.096c-1.296,0.157-2.558,0.273-3.857,0.396     c-1.654,0.153-3.346,0.315-4.923,0.431c-1.692,0.157-3.347,0.276-4.962,0.354c-2.6,0.158-5.161,0.277-7.762,0.354     c-2.558,0.081-5.157,0.12-7.796,0.12c-2.834,0-5.673-0.039-8.508-0.158c-1.577-0.038-3.188-0.115-4.765-0.238     c-0.904-0.038-1.773-0.077-2.639-0.154c-0.234,0-0.511-0.038-0.75-0.038c-5.511-0.315-10.908-0.869-16.304-1.538     c-0.235,0-0.473-0.039-0.669-0.116C96.846,493.294,0,385.929,0,256.002C0,114.569,114.65,0,256,0     c127.212,0,232.804,92.829,252.611,214.486c0.435,2.6,0.789,5.2,1.181,7.838c0.2,1.458,0.396,2.993,0.555,4.493     c0.63,5.511,1.061,11.065,1.338,16.619C511.843,246.471,511.962,249.464,512,252.494z" fill="#E74C3C"/><path d="M509.992,287.979c-1.026,8.431-2.522,16.738-4.373,24.893c-21.938,96.53-98.423,172.423-195.308,193.339     c-8.192,1.772-16.542,3.153-25.012,4.096c-1.296,0.157-2.558,0.273-3.857,0.396c-1.654,0.153-3.346,0.315-4.923,0.431     c-1.692,0.157-3.347,0.276-4.962,0.354c-2.6,0.158-5.161,0.277-7.762,0.354c-2.558,0.081-5.157,0.12-7.796,0.12     c-2.834,0-5.673-0.039-8.508-0.158c-1.577-0.038-3.188-0.115-4.765-0.238c-0.904-0.038-1.773-0.077-2.639-0.154L138.042,409.363     c-8.781-5.712-16.146-17.484-18.431-31.115L91.373,206.609c-0.512-4.252,0.827-8.506,3.662-11.734     c2.834-3.19,6.892-5.042,11.185-5.042h38.438v-46.079c0-3.31,2.996-6.027,6.658-6.027h204.839c3.665,0,8.822,1.183,8.822,6.027     C364.977,146.273,447.016,226.421,509.992,287.979z" opacity="0.15"/><g><path d="M397.288,385.036c0,36.504-48.139,36.653-48.139,0V169.83h40.8c4.054,0,7.339,3.286,7.339,7.338V385.036      z" fill="#F39C12"/><g><path d="M364.974,380.911c0,4.893-3.967,8.859-8.859,8.859H144.658v-246c0-3.329,3-6.046,6.662-6.046h204.846       c3.669,0,8.808,1.192,8.808,6.046V380.911z" fill="#EEF2F2"/></g><path d="M377.48,412.887c-11.984,0.019-25.438-8.646-28.388-26.047l-26.804-158.053      c-0.596-3.531-3.654-6.108-7.231-6.108l-57.908,0.008h-29.796l-6.281-21.99c-1.831-6.421-9.962-10.846-16.639-10.846h-98.219      c-4.277,0-8.35,1.833-11.188,5.035c-2.838,3.202-4.166,7.463-3.654,11.709l28.223,171.669      c3.262,19.215,16.535,34.8,29.646,34.792l122.977-0.008l17.211-0.008l88.073-0.004L377.48,412.887z" fill="#FCD34D"/></g></g></g></svg>