<?xml version="1.0" ?><!DOCTYPE svg  PUBLIC '-//W3C//DTD SVG 1.1//EN'  'http://www.w3.org/Graphics/SVG/1.1/DTD/svg11.dtd'><svg enable-background="new 0 0 80 80" id="Слой_1" version="1.1" viewBox="0 0 80 80" xml:space="preserve" xmlns="http://www.w3.org/2000/svg" xmlns:xlink="http://www.w3.org/1999/xlink"><g><circle cx="39.999" cy="39.999" fill="#005890" r="40"/><linearGradient gradientUnits="userSpaceOnUse" id="SVGID_1_" x1="39.2282" x2="66.7522" y1="43.4138" y2="70.9378"><stop offset="0" style="stop-color:#003564"/><stop offset="1" style="stop-color:#005890"/></linearGradient><path d="M78.031,52.395L57.72,32.084l-1.341,1.341L45.923,22.923l-5.924,5.782l-0.314,23.16l-14.266-7.16   l-9.55,5.172l29.724,29.724C60.868,77.462,73.37,66.703,78.031,52.395z" fill="url(#SVGID_1_)"/><path d="M54.463,30.739c2.55,0,4.617,2.067,4.617,4.617c0,1.373-0.611,3.259-1.551,4.889   c-0.756,1.311,0.13,3.374,1.754,4.278c0.887,0.494,1.86,0.913,2.741,1.375c0.669,0.35,1.222,0.917,1.528,1.579   c0.258,0.559,0.484,1.528,0.575,2.401c-2.893,0.482-6.178,0.756-9.665,0.756s-6.772-0.274-9.665-0.756   c0.091-0.873,0.317-1.842,0.575-2.401c0.306-0.662,0.859-1.228,1.528-1.579c0.881-0.461,1.855-0.881,2.741-1.375   c1.624-0.904,2.51-2.967,1.754-4.278c-0.94-1.63-1.551-3.516-1.551-4.889C49.846,32.806,51.913,30.739,54.463,30.739z" fill="#629CBC"/><path d="M25.534,30.739c2.55,0,4.617,2.067,4.617,4.617c0,1.373-0.611,3.259-1.551,4.889   c-0.756,1.311,0.13,3.374,1.754,4.278c0.887,0.494,1.86,0.913,2.741,1.375c0.669,0.35,1.222,0.917,1.528,1.579   c0.258,0.559,0.484,1.528,0.575,2.401c-2.893,0.482-6.178,0.756-9.665,0.756s-6.772-0.274-9.665-0.756   c0.091-0.873,0.317-1.842,0.575-2.401c0.306-0.662,0.859-1.228,1.528-1.579c0.881-0.461,1.855-0.881,2.741-1.375   c1.624-0.904,2.51-2.967,1.754-4.278c-0.94-1.63-1.551-3.516-1.551-4.889C20.917,32.806,22.984,30.739,25.534,30.739z" fill="#629CBC"/><path d="M40.176,20.374c4.444,0,8.046,3.602,8.046,8.046c0,2.392-1.065,5.68-2.702,8.519   c-1.317,2.285,0.227,5.879,3.057,7.455c1.545,0.86,3.242,1.591,4.777,2.396c1.166,0.611,2.13,1.597,2.662,2.751   c0.449,0.974,0.843,2.662,1.002,4.184c-5.042,0.84-10.766,1.318-16.842,1.318s-11.801-0.478-16.842-1.318   c0.159-1.522,0.552-3.211,1.002-4.184c0.532-1.154,1.496-2.14,2.662-2.751c1.536-0.804,3.232-1.535,4.777-2.396   c2.83-1.576,4.375-5.17,3.057-7.455c-1.637-2.84-2.702-6.127-2.702-8.519C32.13,23.976,35.733,20.374,40.176,20.374z" fill="#FFCC99"/><path d="M53.355,46.79c-1.536-0.804-3.232-1.535-4.777-2.396c-2.83-1.576-4.375-5.17-3.057-7.455   c1.638-2.84,2.702-6.127,2.702-8.519c0-2.723-1.356-5.125-3.426-6.581c0.417,0.857,0.726,1.734,0.83,2.039   c0.7,2.06,0.625,4.433-0.258,6.432c-0.707-0.159-1.451-0.118-2.181-0.272c-0.928-0.196-1.88-0.384-2.824-0.171   c-1.535,0.345-3.237,0.636-4.819,0.611c-0.104,0.227,0.011,0.506,0.204,0.664c0.193,0.157,0.445,0.219,0.69,0.263   c0.927,0.169,2.169-0.251,2.979-0.044c0.889,0.227,0.71,0.2,0.722,1.202c0.01,0.797-0.141,1.578-0.319,2.351   c0.371-0.101,0.955,0.015,1.273-0.175c0.489-0.292,0.186-1.246,0.29-1.702c0.089-0.39,0.211-1.237,0.581-1.465   c0.605-0.373,2.405,0.219,2.85,0.715c1.053,1.172-0.387,3.818-1.027,4.916c-0.343,0.588-0.832,1.719-1.394,2.121   c-0.122,0.087-0.271,0.126-0.416,0.163c-0.87,0.223-2.272,0.718-0.657,1.39c0.561,0.233,1.154,0.445,1.585,0.873   c0.664,0.66,0.697,1.689,1.3,2.364c0.52,0.583,1.371,1.107,2.002,1.582c1.567,1.181,3.324,2.157,4.604,3.676   c0.964,1.143,1.581,2.52,2.023,3.937c0.022,0.07,0.119,0.468,0.239,0.98c1.355-0.164,2.672-0.353,3.945-0.565   c-0.159-1.522-0.552-3.211-1.002-4.184C55.485,48.387,54.521,47.4,53.355,46.79z" fill="#FFA35C"/><path d="M40.742,36.929c-0.677-0.012-1.356,0.169-1.937,0.516c0.647,0.181,1.326,0.246,1.995,0.19   c0.218-0.018,0.487-0.099,0.514-0.316C41.345,37.059,41.003,36.933,40.742,36.929z" fill="#FFA35C"/><path d="M56.017,49.541c-0.532-1.154-1.496-2.141-2.662-2.751c-1.536-0.804-3.232-1.535-4.777-2.396   c-0.509-0.283-0.974-0.634-1.391-1.028c-3.173,2.776-10.173,3.476-14.039,0.016c-0.412,0.387-0.871,0.732-1.372,1.012   c-1.545,0.86-3.242,1.591-4.777,2.396c-1.166,0.611-2.13,1.597-2.662,2.751c-0.449,0.974-0.843,2.662-1.002,4.184   c5.042,0.84,10.766,1.318,16.842,1.318s11.801-0.478,16.842-1.318C56.86,52.203,56.467,50.514,56.017,49.541z" fill="#FFFFFF"/><path d="M56.017,49.541c-0.532-1.154-1.496-2.141-2.662-2.751c-1.536-0.804-3.232-1.535-4.777-2.396   c-0.509-0.283-0.974-0.634-1.391-1.028c-0.607,0.531-1.357,0.985-2.196,1.35c0.44,0.348,0.93,0.675,1.335,0.981   c1.567,1.181,3.324,2.157,4.604,3.676c0.964,1.143,1.581,2.52,2.023,3.937c0.021,0.069,0.117,0.461,0.236,0.966   c1.314-0.161,2.594-0.344,3.83-0.551C56.86,52.203,56.467,50.514,56.017,49.541z" fill="#CCCCCC"/></g></svg>