<?xml version="1.0" ?><!DOCTYPE svg  PUBLIC '-//W3C//DTD SVG 1.1//EN'  'http://www.w3.org/Graphics/SVG/1.1/DTD/svg11.dtd'><svg enable-background="new 0 0 512 512" height="512px" id="Layer_1" version="1.1" viewBox="0 0 512 512" width="512px" xml:space="preserve" xmlns="http://www.w3.org/2000/svg" xmlns:xlink="http://www.w3.org/1999/xlink"><g><path d="M512,256c0,141.39-114.609,256-256,256c-19.7,0-38.89-2.23-57.31-6.44C84.9,479.53,0,377.69,0,256    C0,114.62,114.62,0,256,0c111.24,0,205.9,70.95,241.22,170.06C506.79,196.92,512,225.85,512,256z" fill="#626263"/><g><radialGradient cx="303.3701" cy="300.6953" gradientUnits="userSpaceOnUse" id="SVGID_1_" r="209.9715"><stop offset="0.5744" style="stop-color:#130C0E"/><stop offset="0.7977" style="stop-color:#130C0E"/><stop offset="1" style="stop-color:#130C0E"/></radialGradient><path d="M512,256c0,141.39-114.609,256-256,256c-19.7,0-38.89-2.23-57.31-6.44     c-39.771-39.62-76.641-76.33-77.45-77V131.79c0-0.15-20.521-20.93-20.83-21.57c-9.11-4.55-7.2-20.83,5.43-20.83h290.92     c19.12,0.04,16.53,0.07,17.141,0.15c3.8,0.55,6.39,2.74,7.81,5.55c0.54,0.27,36.78,36.34,75.51,74.97     C506.79,196.92,512,225.85,512,256z" fill="url(#SVGID_1_)" opacity="0.2"/><g><g><path d="M413.892,111.293c-1.269,0.218,15.961,0.141-308.046,0.141c-14.686,0-14.686-22.028,0-22.028       c324.152,0,306.573-0.079,308.046,0.139C425.963,91.251,425.977,109.588,413.892,111.293z" fill="#F1E8DB"/><radialGradient cx="-4448.6992" cy="77.0034" gradientTransform="matrix(0.4267 0 0 0.8533 2062.9734 34.7104)" gradientUnits="userSpaceOnUse" id="SVGID_2_" r="17.0765"><stop offset="0.5744" style="stop-color:#130C0E"/><stop offset="0.7977" style="stop-color:#130C0E"/><stop offset="1" style="stop-color:#130C0E"/></radialGradient><polygon fill="url(#SVGID_2_)" opacity="0.4" points="156.152,89.406 164.294,105.005 173.57,111.434 156.152,111.434      "/><radialGradient cx="-3022.7168" cy="77.0034" gradientTransform="matrix(0.4956 0 0 0.8533 1741.4624 34.7104)" gradientUnits="userSpaceOnUse" id="SVGID_3_" r="15.4094"><stop offset="0.5744" style="stop-color:#130C0E"/><stop offset="0.7977" style="stop-color:#130C0E"/><stop offset="1" style="stop-color:#130C0E"/></radialGradient><polygon fill="url(#SVGID_3_)" opacity="0.4" points="234.653,89.406 242.79,105.005 252.058,111.434 234.653,111.434      "/><radialGradient cx="-2894.9326" cy="77.0034" gradientTransform="matrix(0.4957 0 0 0.8533 1756.875 34.7104)" gradientUnits="userSpaceOnUse" id="SVGID_4_" r="15.4167"><stop offset="0.5744" style="stop-color:#130C0E"/><stop offset="0.7977" style="stop-color:#130C0E"/><stop offset="1" style="stop-color:#130C0E"/></radialGradient><polygon fill="url(#SVGID_4_)" opacity="0.4" points="313.143,89.406 321.297,105.007 330.563,111.434 313.143,111.434             "/><radialGradient cx="-4024.5693" cy="77.0034" gradientTransform="matrix(0.4267 0 0 0.8533 2121.8533 34.7104)" gradientUnits="userSpaceOnUse" id="SVGID_5_" r="16.4056"><stop offset="0.5744" style="stop-color:#130C0E"/><stop offset="0.7977" style="stop-color:#130C0E"/><stop offset="1" style="stop-color:#130C0E"/></radialGradient><polygon fill="url(#SVGID_5_)" opacity="0.4" points="412.93,111.434 396.478,111.434 396.478,89.406 404.699,105.007      "/></g><g><polygon fill="#E0B53D" points="396.769,89.391 396.769,428.56 121.615,428.56 121.615,89.391 156.444,89.391 156.444,133.102        201.482,133.102 201.482,89.391 234.933,89.391 234.933,133.102 279.967,133.102 279.967,89.391 313.44,89.391 313.44,133.102        361.939,133.102 361.939,89.391      "/><g><g><path d="M361.266,272.901c0,18.459-4.894,35.785-13.442,50.726c-0.248,0.421-0.488,0.839-0.732,1.257         c-0.836,1.409-1.708,2.803-2.598,4.178c-4.072,6.184-8.774,11.896-14.035,17.015c-2.125,2.076-4.319,4.041-6.613,5.922         c-0.943,0.784-1.903,1.532-2.879,2.28c-17.221,13.168-38.729,20.984-62.08,20.984c-56.529,0-102.364-45.832-102.364-102.361         c0-56.527,45.835-102.363,102.364-102.363C315.429,170.538,361.266,216.375,361.266,272.901z" fill="#D92716"/><path d="M330.563,272.901c0,39.582-32.083,71.67-71.672,71.67c-39.585,0-71.67-32.088-71.67-71.67         c0-39.583,32.085-71.671,71.67-71.671C298.479,201.23,330.563,233.318,330.563,272.901z" fill="#F1E8DB"/><path d="M300.889,272.901c0,23.193-18.798,41.995-41.998,41.995c-23.194,0-41.997-18.802-41.997-41.995         c0-23.194,18.803-42,41.997-42C282.091,230.902,300.889,249.708,300.889,272.901z" fill="#A1200A"/></g><radialGradient cx="440.8955" cy="363.5889" gradientTransform="matrix(0.8533 0 0 0.8533 -28.1587 34.7104)" gradientUnits="userSpaceOnUse" id="SVGID_6_" r="103.7224"><stop offset="0.5744" style="stop-color:#130C0E"/><stop offset="0.7977" style="stop-color:#130C0E"/><stop offset="1" style="stop-color:#130C0E"/></radialGradient><path d="M396.478,342.797v85.182h-1.393C358.2,387.123,254.569,279.796,254.114,279.063        l6.054-1.044L396.478,342.797z" fill="url(#SVGID_6_)" opacity="0.2"/><radialGradient cx="401.4375" cy="320.7358" gradientTransform="matrix(0.8533 0 0 0.8533 -28.1587 34.7104)" gradientUnits="userSpaceOnUse" id="SVGID_7_" r="52.0447"><stop offset="0.5744" style="stop-color:#130C0E"/><stop offset="0.7977" style="stop-color:#130C0E"/><stop offset="1" style="stop-color:#130C0E"/></radialGradient><path d="M344.493,329.062c-4.072,6.184-8.774,11.896-14.035,17.015        c-35.18-36.467-74.186-67.653-74.466-68.057h1.5C257.492,278.02,301.111,305.571,344.493,329.062z" fill="url(#SVGID_7_)" opacity="0.3"/><g><polygon fill="#FFFFFF" points="387.799,168.291 370.526,184.843 331.149,222.556 379.499,194.958        "/><path d="M259.008,280.795c-2.714,0-5.351-1.414-6.801-3.936c-2.155-3.753-0.865-8.544,2.888-10.698         l124.719-71.672c3.752-2.156,8.546-0.862,10.696,2.892c2.156,3.753,0.862,8.54-2.888,10.698l-124.715,71.67         C261.676,280.458,260.334,280.795,259.008,280.795z" fill="#231F20"/><path d="M264.362,269.425c-0.604,0-1.19-0.313-1.514-0.872c-0.476-0.835-0.19-1.9,0.643-2.379         l25.229-14.497c0.83-0.48,1.897-0.192,2.379,0.64c0.477,0.835,0.188,1.898-0.645,2.378l-25.229,14.498         C264.956,269.353,264.655,269.425,264.362,269.425z" fill="#FFFFFF" opacity="0.3"/><path d="M258.907,272.901c0,1.604-1.302,2.904-2.909,2.904c-1.598,0-2.899-1.3-2.899-2.904         c0-1.604,1.302-2.905,2.899-2.905C257.605,269.997,258.907,271.298,258.907,272.901z" fill="#FFFFFF" opacity="0.5"/><polygon fill="#FFFFFF" points="415.011,213.841 391.961,220.2 342.894,233.667 387.514,208.026        "/><polygon opacity="0.2" points="394.119,219.604 385.502,221.982 373.756,214.443        "/><polygon fill="#FFFFFF" points="406.183,230.073 325.315,234.663 373.756,214.443        "/><polygon opacity="0.2" points="372.142,183.292 365.691,189.476 365.943,203.459        "/><polygon fill="#FFFFFF" points="367.1,169.351 323.582,231.642 365.943,203.459        "/></g></g></g></g></g></g></svg>