<?xml version="1.0" ?><!DOCTYPE svg  PUBLIC '-//W3C//DTD SVG 1.1//EN'  'http://www.w3.org/Graphics/SVG/1.1/DTD/svg11.dtd'><svg height="512px" id="Слой_1" style="enable-background:new 0 0 512 512;" version="1.1" viewBox="0 0 512 512" width="512px" xml:space="preserve" xmlns="http://www.w3.org/2000/svg" xmlns:xlink="http://www.w3.org/1999/xlink"><path d="M256,506.007C117.934,506.007,6,394.074,6,256C6,117.924,117.934,5.993,256,5.993  c138.069,0,250,111.931,250,250.007C506,394.074,394.069,506.007,256,506.007z" style="fill:#EED8CF;"/><path d="M398.278,161.22l-4.368,1.715l-16.819-12.562l-1.462,0.64l-5.77-5.772l-0.679,0.678  l-70.027,34.326l-0.239-0.146l-29.105,13.383l1.077,0.618l-19.596,9.606l-118.606-58.159v7.942l-7.122-3.033v0.086l-0.388-0.169  l-16.693,12.471l-4.497-1.765v185.247l0.219,0.086l-0.242,0.244l159.17,159.17c130.834-3.676,236.518-107.803,242.57-238.035  L398.706,160.795L398.278,161.22z" style="opacity:0.2;fill:#231F20;"/><g><polygon points="369.942,332.574 265.293,384.057 233.474,212.438 369.942,145.546  " style="fill:#A7D9E7;"/><polygon points="132.685,332.574 237.345,384.057 275.61,215.629 132.685,145.546  " style="fill:#A7D9E7;"/><polygon points="379.09,183.33 366.668,154.936 377.091,150.372 396.505,164.873  " style="fill:#FFFFFF;"/><polygon points="123.194,183.33 135.608,154.936 125.175,150.372 105.765,164.873  " style="fill:#FFFFFF;"/><polygon points="377.065,322.605 266.124,369.992 232.4,212.023 377.065,150.455  " style="fill:#FFFFFF;"/><polygon points="125.563,322.605 236.51,369.992 277.068,214.964 125.563,150.455  " style="fill:#FFFFFF;"/><path d="M268.746,211.993c-1.886,1.899-4.477,3.079-7.354,3.079h-20.073c-2.88,0-5.472-1.18-7.348-3.079   h-3.016v178.278c0,5.723,4.636,10.361,10.363,10.361h20.073c5.727,0,10.353-4.638,10.353-10.361V211.993H268.746z" style="fill:#EC632B;"/><polygon points="398.639,346.326 268.67,397.31 268.67,212.066 398.639,161.079  " style="fill:#DC4225;"/><polygon points="103.985,346.326 233.961,397.31 233.961,212.066 103.985,161.079  " style="fill:#DC4225;"/><polygon points="319.323,273.55 303.713,270.882 288.094,283.59 288.094,203.959 303.713,197.514    319.323,192.495  " style="fill:#103754;"/><polygon points="288.094,203.959 269.81,193.481 298.915,180.098 319.323,192.495  " style="fill:#155079;"/></g></svg>