<?xml version="1.0" ?><!DOCTYPE svg  PUBLIC '-//W3C//DTD SVG 1.1//EN'  'http://www.w3.org/Graphics/SVG/1.1/DTD/svg11.dtd'><svg enable-background="new 0 0 512 512" height="512px" id="Layer_1" version="1.1" viewBox="0 0 512 512" width="512px" xml:space="preserve" xmlns="http://www.w3.org/2000/svg" xmlns:xlink="http://www.w3.org/1999/xlink"><g><g><path d="M511.945,256c0,22.86-2.67,44.99-8.67,66.06v0.01c-28,104.76-120.53,183.07-232.43,189.49     c-0.29,0.02-0.565,0.03-0.855,0.05c-4.65,0.25-9.308,0.39-14.008,0.39C114.603,512-0.011,397.39-0.011,256S114.587,0,255.967,0     C397.337,0,511.945,114.61,511.945,256z" fill="#9FCA7C"/><path d="M503.275,322.06v0.01c-28,104.76-120.53,183.07-232.43,189.49c-0.29,0.02-0.565,0.03-0.855,0.05     c0,0-111.721-112.186-112.245-113.02c-6.21-3.75-10.47-11.15-10.47-19.44V250.76c0-1.61,0.23-3.16,0.53-4.67     c0.43-9.42,8.03-16.9,17.31-16.9h7.16V189c0-42.88,34.58-77.81,77.46-77.81h10.7c23.19,0,44.05,10.23,58.33,26.39     c2.68,2.37,5.19,4.92,7.52,7.63C327.707,146.428,503.275,321.56,503.275,322.06z" opacity="0.2"/><g><path d="M365.074,379.149c0,11.936-8.717,21.606-19.478,21.606H166.862c-10.759,0-19.478-9.67-19.478-21.606      V250.761c0-11.941,8.719-21.612,19.478-21.612h178.734c10.76,0,19.478,9.671,19.478,21.612V379.149z" fill="#2C3E50"/><path d="M348.564,229.482c1.715,3.656,2.76,7.877,2.76,12.444v146.066c0,4.56-1.045,8.771-2.76,12.432      c9.338-1.597,16.51-10.469,16.51-21.276V250.761C365.074,239.949,357.902,231.074,348.564,229.482z" opacity="0.3"/><path d="M173.116,384.791V242.27c0-4.851,1.165-9.349,3.126-13.121h-9.38c-10.759,0-19.478,9.671-19.478,21.612      v128.388c0,11.936,8.719,21.606,19.478,21.606h11.182C175.013,396.51,173.116,390.949,173.116,384.791z" opacity="0.1"/><path d="M364.929,249.94c0,9.809-7.742,17.761-17.3,17.761h-182.51      c-9.561,0-17.302-7.953-17.302-17.761v-3.031c0-9.809,7.741-17.76,17.302-17.76h182.51c9.558,0,17.3,7.951,17.3,17.76V249.94z" fill="#ECF0F1" opacity="0.14"/><g><path d="M311.806,248.425l20.86,23.81c4.1,4.69,11.248,5.155,15.933,1.056l3.408-2.981       c4.685-4.1,5.155-11.251,1.05-15.93l-14.857-16.974v11.019H311.806z" fill="none"/><path d="M307.649,226.54c-4.681,4.109-5.155,11.245-1.059,15.935l4.111,4.69v-23.294L307.649,226.54z" fill="none"/><path d="M260.437,111.241h-10.705c-42.88,0-77.76,34.877-77.76,77.759v59.425h27.498V189       c0-27.714,22.547-50.264,50.263-50.264h10.705c27.717,0,50.265,22.55,50.265,50.264v17.409v17.462v23.294l1.105,1.26h26.393       v-11.019v-23.521V189C338.199,146.119,303.316,111.241,260.437,111.241z" fill="#FFFFFF"/><polygon fill="#FFFFFF" points="310.701,248.425 311.806,248.425 310.701,247.165      "/></g><g><g><path d="M386.029,325.067l26.189,43.09c1.233,2.028,3.223,3.485,5.529,4.047        c2.307,0.561,4.743,0.184,6.771-1.051l4.658-2.835l-30.831-50.743L386.029,325.067z" fill="#F39C12"/><path d="M400.883,325.875c-0.552,0.334-0.946,0.874-1.099,1.5c-0.154,0.626-0.051,1.288,0.284,1.839        l25.17,41.411l3.892-2.379l-25.295-41.659c-0.295-0.486-0.77-0.833-1.321-0.969c-0.553-0.135-1.134-0.045-1.62,0.25        L400.883,325.875z" fill="#D35400"/><path d="M411.161,309.794l-12.804,7.771l30.838,50.772l5.158-3.136c4.224-2.567,5.567-8.072,3-12.297        L411.161,309.794z" fill="#E67E22"/></g><g><path d="M367.062,300.837l15.272,25.145c0.76,1.25,2.389,1.649,3.639,0.89l13.401-8.135l-16.64-27.423        L367.062,300.837z" fill="#F39C12"/><path d="M400.779,285.715l-15.667,9.514l16.661,27.428l13.4-8.149c1.25-0.76,1.647-2.39,0.889-3.64        L400.779,285.715z" fill="#E67E22"/></g><g><path d="M322.346,276.984c-2.865-4.72-1.755-10.486,2.135-14.09l-12.675-14.469l-1.105-1.26l-4.111-4.69        c-4.096-4.69-3.622-11.826,1.059-15.935l3.052-2.669v-17.462c-3.55,1.07-6.938,2.837-9.9,5.433l-3.41,2.986        c-11.14,9.761-12.262,26.759-2.502,37.898l26.07,29.771c2.502,2.855,5.482,5.027,8.716,6.55L322.346,276.984z" fill="#D35400"/><path d="M368.18,249.13c-0.946-1.756-2.042-3.45-3.412-5.006l-2.21-2.528l-1.354-1.544l-22.506-25.696        c-0.158-0.176-0.342-0.299-0.5-0.47v23.521l9.501,10.853l1.35,1.545l4.006,4.576c0.735,0.834,1.149,1.819,1.6,2.786        c1.77,3.863,1.208,8.315-1.522,11.662l0.737,1.212c1.42,2.329,3.778,3.529,5.783,3.219c0.453-0.002,0.962-0.22,1.37-0.449        l9.797-5.961C371.956,260.899,371.136,254.641,368.18,249.13z" fill="#D35400"/><path d="M412.014,254.589l-14.237-23.435c-3.28-5.386-10.235-7.098-15.563-3.86l-21.009,12.757l1.354,1.544        l2.21,2.528c1.37,1.557,2.465,3.25,3.412,5.006c2.211-0.901,5.043,0.255,6.686,2.951l2.3,3.803        c1.423,2.325,1.432,5.054,0.135,6.664c-0.333,0.66-0.743,1.189-1.342,1.551l-5.205,3.164l-9.107,5.531        c-0.6,0.353-1.323,0.528-1.993,0.465c-2.005,0.31-4.363-0.89-5.783-3.219l-0.737-1.212l-1.572-2.582        c-1.785-2.929-1.39-6.355,0.802-7.695l2.292-1.385c-0.451-0.967-0.865-1.952-1.6-2.786l-4.006-4.576l-1.35-1.545        l-21.548,13.091c-0.677,0.414-1.111,1.023-1.671,1.543c-3.89,3.604-5,9.37-2.135,14.09l7.329,12.063l6.904,11.368        c5.579,9.186,17.054,13.071,27.077,9.155l21.804-8.452c1.732-0.671,3.325-1.64,4.715-2.866l17.487-15.414        C415.799,275.694,417.589,263.776,412.014,254.589z" fill="#F39C12"/></g></g></g></g></g></svg>