<?xml version="1.0" ?><!DOCTYPE svg  PUBLIC '-//W3C//DTD SVG 1.1//EN'  'http://www.w3.org/Graphics/SVG/1.1/DTD/svg11.dtd'><svg height="512px" style="enable-background:new 0 0 512 512;" version="1.1" viewBox="0 0 512 512" width="512px" xml:space="preserve" xmlns="http://www.w3.org/2000/svg" xmlns:xlink="http://www.w3.org/1999/xlink"><g id="Layer_14"><g><circle cx="256" cy="256" r="256" style="fill:#4CC5AD;"/><path d="M425.683,230.036L323.507,127.859l-15.579-15.578l0,0l-10.385,20.771v20.771v83.085l20.771,20.771    H256h-62.313l57.483,57.483l4.83,84.556l94.336,94.337c18.431-7.311,35.811-16.698,51.851-27.876    c52.104-36.309,90.073-91.494,103.991-155.648L425.683,230.036z" style="fill:#3C9987;"/><g><polygon points="297.543,133.052 214.458,133.052 204.072,112.281 307.928,112.281    " style="fill:#BF351F;"/><rect height="103.856" style="fill:#D94720;" width="83.085" x="214.458" y="133.052"/><polygon points="318.313,257.68 193.687,257.68 214.458,236.908 297.543,236.908    " style="fill:#BF351F;"/><polygon points="264.114,257.68 256,399.719 247.886,257.68    " style="fill:#475059;"/></g><g><polygon points="204.072,112.281 214.458,133.052 214.458,236.908 193.687,257.68 256,257.68      256,112.281    " style="opacity:0.3;fill:#FFEED2;"/><polygon points="256,399.719 256,257.68 247.886,257.68    " style="opacity:0.3;fill:#FFEED2;"/></g></g></g><g id="Layer_1"/></svg>