<?xml version="1.0" ?><!DOCTYPE svg  PUBLIC '-//W3C//DTD SVG 1.1//EN'  'http://www.w3.org/Graphics/SVG/1.1/DTD/svg11.dtd'><svg height="512px" style="enable-background:new 0 0 512 512;" version="1.1" viewBox="0 0 512 512" width="512px" xml:space="preserve" xmlns="http://www.w3.org/2000/svg" xmlns:xlink="http://www.w3.org/1999/xlink"><g id="Layer_16"><g><path d="M359.655,21.859C327.967,7.81,292.896,0,256,0c-2.747,0-5.483,0.048-8.21,0.134    C112.709,4.391,4.024,113.29,0.113,248.458C0.041,250.963,0,253.477,0,256c0,53.396,16.351,102.973,44.314,144    C90.395,467.607,168.011,512,256,512c2.523,0,5.037-0.041,7.542-0.113c34.134-0.988,66.592-8.656,96.113-21.746    c43.882-19.455,81.272-50.883,108.03-90.141c26.524-38.917,42.596-85.525,44.18-135.789c0.087-2.727,0.135-5.463,0.135-8.211    C512,151.511,449.397,61.647,359.655,21.859z" style="fill:#4CC5AD;"/><g><g><polygon points="359.655,400 151.655,400 151.655,112 327.655,112 359.655,144     " style="fill:#FFEED2;"/><polygon points="359.655,144 327.655,144 327.655,112     " style="fill:#CCBEAC;"/></g><g><path d="M255.655,166c-26.51,0-48,21.49-48,48s21.49,48,48,48c13.255,0,25.255-5.373,33.941-14.059      L255.655,214V166z" style="fill:#FAAB1F;"/><path d="M289.597,180.059C280.91,171.373,268.91,166,255.655,166v48L289.597,180.059z" style="fill:#D94720;"/><path d="M289.597,180.059L255.655,214l33.941,33.941c8.687-8.687,14.059-20.687,14.059-33.941      S298.283,188.745,289.597,180.059z" style="fill:#475059;"/></g><rect height="46.5" style="fill:#FAAB1F;" width="15.657" x="199.999" y="306"/><rect height="32" style="fill:#FAAB1F;" width="15.657" x="231.999" y="320.5"/><rect height="46.5" style="fill:#FAAB1F;" width="15.658" x="295.654" y="306"/><rect height="64" style="fill:#FAAB1F;" width="15.658" x="262.51" y="288.5"/></g><path d="M359.655,144v256h-208l111.887,111.887c34.134-0.988,66.592-8.656,96.113-21.746    c43.882-19.455,81.272-50.883,108.03-90.141c21.275-31.215,35.816-67.381,41.56-106.41L359.655,144z" style="fill:#3C9987;"/></g></g><g id="Layer_1"/></svg>