<?xml version="1.0" ?><!DOCTYPE svg  PUBLIC '-//W3C//DTD SVG 1.1//EN'  'http://www.w3.org/Graphics/SVG/1.1/DTD/svg11.dtd'><svg enable-background="new 0 0 512 512" height="512px" id="Layer_1" version="1.1" viewBox="0 0 512 512" width="512px" xml:space="preserve" xmlns="http://www.w3.org/2000/svg" xmlns:xlink="http://www.w3.org/1999/xlink"><g><g><path d="M512,255.99C512,397.385,397.377,512,256,512c-7.984,0-15.9-0.365-23.7-1.085     c-8-0.73-15.892-1.839-23.654-3.292c-5.277-0.984-10.5-2.131-15.661-3.446C82.077,476.112,0,375.631,0,255.99     C0,114.613,114.615,0,256,0c115.785,0,213.631,76.884,245.27,182.392c1.961,6.563,3.677,13.238,5.115,20.015     c2.838,13.321,4.639,27.033,5.308,41.044C511.9,247.601,512,251.782,512,255.99z" fill="#E27C3C"/><path d="M512,255.99C512,397.385,397.377,512,256,512c-7.984,0-15.9-0.365-23.7-1.085     c-8-0.73-15.892-1.839-23.654-3.292c-5.277-0.984-10.5-2.131-15.661-3.446c-45.462-43.446-94.116-89.646-94.116-89.646     c-3.461-1.358-6-3.724-8.515-6.823c-4.084-5.062-6.092-12.054-6.092-19.792L84.2,371.089l44.185-0.062V121.982     c0-7.01,6.154-14.277,8.607-17.029c4.243-4.76,11.162-7.073,18.023-7.073h244.8c-1.054,0-2.131-0.859-3.146-0.784     c0.938-0.065,1.869-0.654,2.839-0.654c8.062,0,15.308,2.97,20.592,8.025c1.978,1.89,3.639,3.965,4.962,6.329     c0,0,35.115,32.906,76.208,71.64c1.961,6.562,3.677,13.215,5.115,19.992c2.838,13.321,4.639,27.023,5.308,41.035     C511.9,247.613,512,251.782,512,255.99z" opacity="0.2"/><g><path d="M428.8,141v-16.915c0-7.731-3.276-14.725-8.562-19.791c-5.292-5.054-12.592-8.188-20.661-8.188      c-16.139,0-28.985,8.302-29.508,27.967L370.016,141H428.8z" fill="#BABCBF"/><path d="M83.208,371.008v16.915c0,7.731,2.531,14.724,6.616,19.789c4.092,5.054,9.738,8.188,15.977,8.188      c13.454,0,22.585-11.412,22.585-27.978l-0.031-16.915H83.208z" fill="#BABCBF"/><path d="M370.162,123.842c0-17.842,12.223-27.754,29.653-27.754h-39.907h-204.9      c-6.854,0.704-12.946,3.604-17.585,7.963c-4.961,4.671-8.484,10.982-8.969,17.99v260.355h241.708V152.079V123.842z" fill="#ECEDED"/><path d="M370.162,125.761v-1.919c0-17.842,12.223-27.754,29.653-27.754H155.008      c-6.854,0.704-12.946,3.604-17.585,7.963c-4.961,4.671-8.484,10.982-8.969,17.99v3.719H370.162z" fill="#FDFEFF"/><path d="M128.4,182.545v205.609c0,17.842-6.692,27.754-24.123,27.754h239.269      c6.854-0.704,12.954-3.604,17.593-7.962c4.961-4.673,8.484-10.984,8.969-17.992V182.545H128.4z" fill="#ECEDED"/><path d="M128.338,390.139c-1.084,15.746-9.115,25.792-23.754,25.77h239.254      c6.776-0.704,12.808-3.604,17.399-7.962c4.861-4.631,8.323-10.877,8.854-17.808H128.338z" fill="#D4D5D6"/><g><rect fill="#ADADAD" height="16.378" width="72.516" x="210.673" y="153.3"/><rect fill="#ADADAD" height="10.794" width="161.884" x="166.662" y="194.692"/><rect fill="#ADADAD" height="10.792" width="161.884" x="166.662" y="224.482"/><rect fill="#ADADAD" height="10.793" width="161.884" x="166.662" y="254.27"/><rect fill="#ADADAD" height="10.792" width="161.884" x="166.662" y="284.063"/><rect fill="#ADADAD" height="10.792" width="161.884" x="166.662" y="313.847"/><rect fill="#ADADAD" height="10.792" width="161.884" x="166.662" y="343.639"/></g></g></g></g></svg>