<?xml version="1.0" ?><!DOCTYPE svg  PUBLIC '-//W3C//DTD SVG 1.1//EN'  'http://www.w3.org/Graphics/SVG/1.1/DTD/svg11.dtd'><svg enable-background="new 0 0 512 512.119" height="512.119px" id="Layer_1" version="1.1" viewBox="0 0 512 512.119" width="512px" xml:space="preserve" xmlns="http://www.w3.org/2000/svg" xmlns:xlink="http://www.w3.org/1999/xlink"><g><g><path d="M511.8,255.896c0,141.327-114.577,255.9-255.9,255.9c-27.784,0-54.53-4.427-79.584-12.623     C73.945,465.715,0,369.438,0,255.896C0,114.565,114.568,0,255.899,0c129.192,0,236.023,95.731,253.416,220.131     C510.953,231.819,511.8,243.762,511.8,255.896z" fill="#F39C12"/><path d="M512,256.223c0,141.323-114.569,255.896-255.893,255.896c-27.785,0-54.539-4.423-79.593-12.623     c0,0-90.715-93.796-90.715-93.8c-7.47-2.096-12.97-9.154-12.97-17.558V157.45c0-10.062,7.862-18.212,17.546-18.212l129.516-0.081     l72.508,0.123l-1.592-69.127l37.038,69.084h93.984c7.885,0,14.554,5.404,16.77,12.839c1.562,0.438,70.915,68.369,70.915,68.377     C511.153,232.143,512,244.084,512,256.223z" opacity="0.15"/><g><path d="M421.869,139.281H90.423c-9.692,0-17.554,8.154-17.554,18.211v230.685      c0,10.058,7.861,18.212,17.554,18.212h331.446c9.692,0,17.546-8.154,17.546-18.212V157.492      C439.415,147.435,431.562,139.281,421.869,139.281z M301.392,167.273c0,2.792-3.161,5.058-7.069,5.058h-76.361      c-3.899,0-7.069-2.266-7.069-5.058V156.48c0-2.792,3.17-5.058,7.069-5.058h76.361c3.908,0,7.069,2.266,7.069,5.058V167.273z" fill="#102947"/><path d="M294.322,174.281h-76.361c-5.054,0-9.016-3.077-9.016-7.008V156.48c0-3.931,3.962-7.007,9.016-7.007      h76.361c5.062,0,9.023,3.077,9.023,7.007v10.792C303.346,171.204,299.384,174.281,294.322,174.281z M217.961,153.373      c-3.016,0-5.115,1.639-5.115,3.107v10.792c0,1.469,2.1,3.108,5.115,3.108h76.361c3.016,0,5.123-1.639,5.123-3.108V156.48      c0-1.469-2.107-3.107-5.123-3.107H217.961z" fill="#FFFFFF"/><g><rect fill="#E6E6E6" height="200.208" width="324.646" x="95.223" y="185.211"/><path d="M423.346,388.65H91.869V181.615h331.477V388.65z M98.692,381.823h317.822V188.442H98.692V381.823z" fill="#FFFFFF"/></g><g><path d="M159.992,281.592c0.054-1.442-0.069-2.923-0.362-4.435h30.339c-0.254,1.531-0.339,2.965-0.27,4.358       c0.216,4.581,2.062,8.677,5.146,13.842h-40.085C157.822,290.912,159.815,286.419,159.992,281.592z" fill="#EFC64C"/><path d="M234.084,320.677l3.893,47.55h-63.23l29.946-73.688C222.815,299.715,234.084,309.327,234.084,320.677z" fill="#102947"/><path d="M205.169,294.696l-4.484,10.819l-25.708,62l-0.23,0.565v-72.419c3.13-0.031,7.384-2.819,10.669-5.4       h0.016c2.854-2.254,4.977-4.35,4.977-4.35S201.376,293.604,205.169,294.696z" fill="#FFFFFF"/><path d="M190.407,285.912c0,0,10.969,7.696,14.762,8.781l-30.423,73.392v-72.427       C180.592,295.6,190.407,285.912,190.407,285.912z" fill="#FFFFFF"/><path d="M115.461,320.677l-3.893,47.55H174.8l-29.946-73.688C126.73,299.715,115.461,309.327,115.461,320.677z" fill="#102947"/><path d="M159.138,285.912c0,0-10.961,7.696-14.762,8.781l30.424,73.392v-72.427       C168.953,295.6,159.138,285.912,159.138,285.912z" fill="#FFFFFF"/><polygon fill="#231F20" opacity="0.1" points="200.685,305.516 174.977,367.516 174.83,367.516 174.746,367.431        174.746,294.119 185.415,290.262 185.431,290.262      "/><polygon fill="#C44500" points="190.407,285.912 176.931,301.531 185.477,337.046 174.746,367.431 174.746,294.123      "/><polygon fill="#E85100" points="159.138,285.912 172.562,301.531 164.015,337.046 174.746,367.431 174.746,294.123      "/><path d="M189.699,281.516c-4.308,3.927-9.407,8.073-14.899,8.073c-5.446,0-10.523-4.084-14.808-7.996       c0.054-1.442-0.069-2.923-0.362-4.435h30.339C189.715,278.688,189.63,280.123,189.699,281.516z" opacity="0.07"/><path d="M176.753,220.465c-7.1,0-14.076-0.642-20.869-1.858c-5.461,7.131-8.884,17.304-8.884,28.604       c0,21.565,12.445,39.046,27.8,39.046c15.354,0,27.8-17.481,27.8-39.046c0-11.004-3.246-20.938-8.462-28.039       C188.453,220.019,182.646,220.465,176.753,220.465z" fill="#EFC64C"/><path d="M204.576,211.319c-2.354,0.265-4.653-0.235-5.361,2.354c-0.23-5.234-16.123-8.734-27.715-4.1       c-8.516,3.404-15.039-8.477-25.116-5.608c-9.3,2.646-15.445,17.873-5.062,29.719c3.093,3.527,0.801,2.704,6.016,19.469       l4.254-17.223c8.992,0.619,19.161-1.435,25.562-2.246c4.808-0.607,19.077-1.458,20.662-8.927l4.5,28.396       C204.869,230.304,215.261,212.331,204.576,211.319z" fill="#752900"/></g><path d="M286.269,68.442h-60.246c-3.385,0-6.153,2.342-6.153,5.208v87.719c0,2.865,2.769,2.604,6.153,2.604      h60.246c3.385,0,6.146,0.261,6.146-2.604V73.65C292.415,70.785,289.653,68.442,286.269,68.442z M256.146,119.5      c-11.53,0-20.877-9.35-20.877-20.881s9.347-20.877,20.877-20.877c11.531,0,20.877,9.346,20.877,20.877      S267.677,119.5,256.146,119.5z" fill="#E0E0E0"/><path d="M292.354,157.438c0.008-0.111,0.046-0.215,0.046-0.327v-23.804h-72.508v23.804      c0,0.112,0.031,0.216,0.047,0.327H292.354z" fill="#F7F7F7"/><rect fill="#BAC1C2" height="15.9" width="116.738" x="283.522" y="234.146"/><rect fill="#BAC1C2" height="15.904" width="116.738" x="283.522" y="274.173"/><rect fill="#BAC1C2" height="15.904" width="116.738" x="283.522" y="314.631"/></g><path d="M277.685,81.238l0.054-0.05l-1.277-1.377l-1.377-1.484l-0.062,0.058     c-5.107-4.762-11.877-7.465-18.877-7.465c-15.276,0-27.707,12.427-27.707,27.7c0,7,2.707,13.773,7.469,18.881l-0.062,0.062     l1.492,1.377l1.377,1.273l0.046-0.05c4.924,3.981,11.023,6.162,17.385,6.162c15.27,0,27.7-12.427,27.7-27.704     C283.846,92.262,281.669,86.162,277.685,81.238z M256.146,116.789c-4.492,0-8.815-1.681-12.177-4.727     c-3.808-3.454-5.992-8.354-5.992-13.442c0-10.015,8.153-18.165,18.169-18.165c5.085,0,9.984,2.185,13.438,5.992     c3.046,3.361,4.724,7.685,4.724,12.173C274.308,108.639,266.161,116.789,256.146,116.789z" fill="#FFFFFF"/></g></g></svg>