<?xml version="1.0" ?><!DOCTYPE svg  PUBLIC '-//W3C//DTD SVG 1.1//EN'  'http://www.w3.org/Graphics/SVG/1.1/DTD/svg11.dtd'><svg enable-background="new 0 0 512 512" height="512px" id="Layer_1" version="1.1" viewBox="0 0 512 512" width="512px" xml:space="preserve" xmlns="http://www.w3.org/2000/svg" xmlns:xlink="http://www.w3.org/1999/xlink"><g><g><path d="M512,256c0,141.389-114.65,256-256,256c-9.688,0-19.3-0.554-28.712-1.615C99.407,496.127,0,387.7,0,256     C0,114.607,114.607,0,256,0c134.577,0,244.931,103.857,255.212,235.835C511.723,242.488,512,249.223,512,256z" fill="#F1C40F"/><path d="M512,256c0,141.389-114.65,256-256,256c-9.688,0-19.3-0.554-28.712-1.615     c-53.642-53.643-105.669-105.669-105.669-105.669c-7.365-2.916-12.565-10.124-12.565-18.589V135.992     c0-11.026,8.823-19.965,19.734-19.965h256.827c8.27,0,15.319,5.157,18.273,12.484l107.323,107.323     C511.723,242.488,512,249.223,512,256z" opacity="0.2"/><g><path d="M160.449,422.946c-3.033,0-5.491-2.458-5.491-5.491v-28.151h22.496v28.151      c0,3.033-2.458,5.491-5.491,5.491H160.449z" fill="#535454"/><path d="M338.229,422.946c-3.032,0-5.49-2.458-5.49-5.49v-28.148h22.496v28.148c0,3.032-2.458,5.49-5.49,5.49      H338.229z" fill="#535454"/><path d="M405.343,381.27c0,11.046-8.831,20.004-19.716,20.004h-256.85c-10.889,0-19.716-8.958-19.716-20.004      V136.012c0-11.046,8.827-20.004,19.716-20.004h256.85c10.885,0,19.716,8.958,19.716,20.004V381.27z" fill="#959696"/><path d="M385.627,396.427h-256.85c-10.889,0-19.716-8.958-19.716-20.008v9.696      c0,11.05,8.827,20.008,19.716,20.008h256.85c10.885,0,19.716-8.958,19.716-20.008v-9.696      C405.343,387.469,396.512,396.427,385.627,396.427z" fill="#838585"/><path d="M385.627,116.008h-256.85c-10.889,0-19.716,8.958-19.716,20.004v4.854      c0-11.05,8.827-20.008,19.716-20.008h256.85c10.885,0,19.716,8.958,19.716,20.008v-4.854      C405.343,124.966,396.512,116.008,385.627,116.008z" fill="#C8C9C9"/><path d="M373.542,155.012v207.196c0,13.988-10.135,25.322-22.615,25.322H153.466      c-12.485,0-22.62-11.334-22.62-25.322V155.012c0-13.988,10.135-25.339,22.62-25.339h197.461c5.208,0,10.012,1.981,13.827,5.3      C370.1,139.604,373.542,146.869,373.542,155.012z" fill="#C0C1C2"/><path d="M364.754,134.973c-96.196,65.327-174.05,138.773-233.908,205.246V155.012      c0-13.988,10.135-25.339,22.62-25.339h197.461C356.135,129.673,360.938,131.654,364.754,134.973z" fill="#FFFFFF" opacity="0.3"/><path d="M135.7,367.054V159.861c0-13.988,10.123-25.334,22.615-25.334h197.458c4.611,0,8.896,1.558,12.473,4.211      c-4.15-5.534-10.365-9.058-17.323-9.058H153.466c-12.489,0-22.616,11.343-22.616,25.331V362.2      c0,8.823,4.031,16.584,10.139,21.123C137.688,378.919,135.7,373.254,135.7,367.054z" fill="#FFFFFF"/><path d="M249.55,254.719c0,19.62-15.899,35.52-35.516,35.52c-19.611,0-35.511-15.899-35.511-35.52      c0-19.611,15.899-35.507,35.511-35.507C233.65,219.212,249.55,235.107,249.55,254.719z" fill="#FFFFFF"/><rect fill="#535454" height="68.435" width="30.526" x="198.773" y="186.284"/><rect fill="#535454" height="68.661" transform="matrix(-0.4999 0.8661 -0.8661 -0.4999 593.9796 192.8067)" width="30.527" x="226.063" y="233.554"/><polygon fill="#747575" points="208.927,264.165 221.915,242.466 280.473,276.935 268.977,296.139     "/><polygon fill="#A2A3A3" points="212.234,258.643 218.473,248.219 275.234,279.55 269.781,290.227     "/><polygon fill="#535454" points="225.393,263.192 210.127,236.762 149.385,271.827 164.646,298.266     "/><path d="M249.527,254.716c0,15.242-9.604,28.257-23.108,33.269c-1.461,0.554-2.992,1.008-4.558,1.357      c-1.427,0.347-2.889,0.559-4.385,0.696c-1.149,0.101-2.3,0.174-3.445,0.174c-1.809,0-3.551-0.139-5.289-0.385      c-0.869-0.139-1.708-0.281-2.542-0.485c-1.565-0.35-3.097-0.804-4.558-1.357c-13.504-5.012-23.108-18.026-23.108-33.269      c0-15.243,9.604-28.228,23.108-33.27c1.461-0.558,2.992-1.008,4.558-1.323c2.542-0.593,5.149-0.907,7.831-0.907      c2.681,0,5.322,0.314,7.83,0.907c1.565,0.315,3.097,0.766,4.558,1.323C239.923,226.488,249.527,239.473,249.527,254.716z" fill="#B3B3B3"/><path d="M391.607,209.435c0,5.688-4.611,10.304-10.304,10.304l0,0c-5.692,0-10.304-4.615-10.304-10.304v-36.062      c0-5.688,4.611-10.304,10.304-10.304l0,0c5.692,0,10.304,4.615,10.304,10.304V209.435z" fill="#535454"/><path d="M214.034,175.346c-43.834,0-79.369,35.539-79.369,79.373c0,43.843,35.535,79.381,79.369,79.381      c43.839,0,79.373-35.538,79.373-79.381C293.407,210.885,257.873,175.346,214.034,175.346z M214.034,313.896      c-32.677,0-59.169-26.492-59.169-59.178c0-32.673,26.492-59.169,59.169-59.169c32.682,0,59.174,26.496,59.174,59.169      C273.208,287.404,246.716,313.896,214.034,313.896z" fill="#535454"/><path d="M214.034,329.25c-41.088,0-74.519-33.431-74.519-74.531c0-41.088,33.431-74.522,74.519-74.522      c41.093,0,74.523,33.435,74.523,74.522C288.558,295.819,255.127,329.25,214.034,329.25z M214.034,190.704      c-35.296,0-64.015,28.715-64.015,64.015c0,35.309,28.719,64.027,64.015,64.027c35.301,0,64.023-28.719,64.023-64.027      C278.058,219.419,249.335,190.704,214.034,190.704z" fill="#747575"/><path d="M214.034,325.611c-39.084,0-70.884-31.8-70.884-70.893c0-39.084,31.8-70.888,70.884-70.888      c39.089,0,70.889,31.804,70.889,70.888C284.923,293.812,253.123,325.611,214.034,325.611z M214.034,187.065      c-37.304,0-67.653,30.35-67.653,67.653c0,37.312,30.35,67.662,67.653,67.662c37.309,0,67.654-30.351,67.654-67.662      C281.688,217.415,251.343,187.065,214.034,187.065z" fill="#A2A3A3"/><path d="M351.607,185.641c0-3.032,2.458-5.49,5.49-5.49h28.148v22.496h-28.148c-3.032,0-5.49-2.458-5.49-5.49      V185.641z" fill="#535454"/><path d="M391.607,345.958c0,5.688-4.611,10.304-10.304,10.304l0,0c-5.692,0-10.304-4.615-10.304-10.304v-36.062      c0-5.692,4.611-10.305,10.304-10.305l0,0c5.692,0,10.304,4.612,10.304,10.305V345.958z" fill="#535454"/><path d="M351.607,322.171c0-3.032,2.458-5.49,5.49-5.49h28.148v22.492h-28.148c-3.032,0-5.49-2.458-5.49-5.49      V322.171z" fill="#535454"/><path d="M386.093,170.558c0,2.643-2.139,4.788-4.789,4.788c-2.643,0-4.792-2.146-4.792-4.788      c0-2.646,2.149-4.788,4.792-4.788C383.954,165.77,386.093,167.911,386.093,170.558z" fill="#ECF0F0"/><path d="M386.093,207.442c0,2.646-2.139,4.792-4.789,4.792c-2.643,0-4.792-2.146-4.792-4.792      c0-2.65,2.149-4.788,4.792-4.788C383.954,202.654,386.093,204.792,386.093,207.442z" fill="#ECF0F0"/><path d="M386.093,309.146c0,2.646-2.139,4.788-4.789,4.788c-2.643,0-4.792-2.143-4.792-4.788      c0-2.646,2.149-4.793,4.792-4.793C383.954,304.354,386.093,306.5,386.093,309.146z" fill="#ECF0F0"/><path d="M386.093,346.319c0,2.646-2.139,4.792-4.789,4.792c-2.643,0-4.792-2.146-4.792-4.792      c0-2.643,2.149-4.789,4.792-4.789C383.954,341.53,386.093,343.677,386.093,346.319z" fill="#ECF0F0"/><path d="M216.154,254.719L226.438,288c-1.48,0.554-3.008,1.004-4.573,1.346c-2.52,0.581-5.139,0.881-7.831,0.881      c-2.688,0-5.312-0.3-7.826-0.881c-1.565-0.342-3.093-0.792-4.573-1.346l9.258-32.727l-9.258-33.823      c1.48-0.554,3.008-1.008,4.573-1.343c2.515-0.58,5.138-0.889,7.826-0.889c2.692,0,5.312,0.309,7.831,0.889      c1.565,0.335,3.093,0.789,4.573,1.343L216.154,254.719z" fill="#C4C4C4"/><path d="M214.034,257.562l-31.623,13.312c-0.723-1.404-1.342-2.873-1.865-4.385      c-0.865-2.438-1.465-5-1.776-7.677c-0.308-2.669-0.312-5.308-0.023-7.881c0.158-1.589,0.427-3.161,0.808-4.692l34.204,6.158      l31.899-13.823c0.728,1.403,1.351,2.873,1.866,4.385c0.869,2.442,1.473,5.008,1.78,7.673c0.308,2.681,0.308,5.312,0.023,7.885      c-0.158,1.592-0.431,3.161-0.812,4.696L214.034,257.562z" fill="#C4C4C4"/><path d="M214.75,254.723l7.115,34.623c-2.52,0.581-5.139,0.881-7.831,0.881c-2.688,0-5.312-0.3-7.826-0.881      l7.115-34.623l-7.115-34.615c2.515-0.58,5.138-0.889,7.826-0.889c2.692,0,5.312,0.309,7.831,0.889L214.75,254.723z" fill="#D9D9D9"/><path d="M214.119,255.435l-33.573,11.054c-0.865-2.438-1.465-5-1.776-7.677      c-0.308-2.669-0.312-5.308-0.023-7.881l35.204,3.085l33.573-11.058c0.869,2.442,1.473,5.008,1.78,7.673      c0.308,2.681,0.308,5.312,0.023,7.885L214.119,255.435z" fill="#D9D9D9"/><path d="M214.119,255.435l-34.496,8.016c-0.3-0.938-0.788-4.2-0.854-4.639c-0.162-1.058-0.354-3.034-0.246-4.093      l35.427-0.703l34.758-6.92c0.238,1.123,0.431,2.065,0.596,3.535c0.173,1.55,0.246,2.95,0.246,4.088L214.119,255.435z" fill="#FFFFFF"/><path d="M214.796,254.992l2.681,35.046c-1.149,0.101-2.3,0.174-3.445,0.174c-1.809,0-3.551-0.139-5.289-0.385      l4.315-34.835l-1.911-35.393c1.142-0.069,2.084-0.138,3.58-0.069c1.531,0.035,2.958,0.178,4.069,0.351L214.796,254.992z" fill="#FFFFFF"/></g><rect fill="#C0C1C2" height="8.17" transform="matrix(0.9325 -0.3612 0.3612 0.9325 -35.8632 149.2487)" width="1.492" x="380.559" y="166.473"/><rect fill="#C0C1C2" height="8.17" transform="matrix(0.3633 0.9317 -0.9317 0.3633 401.6985 -246.6563)" width="1.495" x="380.559" y="166.475"/><rect fill="#C0C1C2" height="8.172" transform="matrix(0.9941 0.1088 -0.1088 0.9941 24.8453 -40.2719)" width="1.489" x="380.561" y="203.356"/><rect fill="#C0C1C2" height="8.168" transform="matrix(-0.1111 0.9938 -0.9938 -0.1111 629.8423 -148.4417)" width="1.494" x="380.557" y="203.358"/><rect fill="#C0C1C2" height="8.172" transform="matrix(0.9941 0.1085 -0.1085 0.9941 35.7874 -39.5405)" width="1.485" x="380.561" y="305.06"/><rect fill="#C0C1C2" height="8.172" transform="matrix(-0.1088 0.9941 -0.9941 -0.1088 730.119 -36.2401)" width="1.489" x="380.559" y="305.062"/><rect fill="#C0C1C2" height="8.172" transform="matrix(0.9996 -0.0282 0.0282 0.9996 -9.616 10.8921)" width="1.489" x="380.559" y="342.235"/><rect fill="#C0C1C2" height="8.168" transform="matrix(0.0282 0.9996 -0.9996 0.0282 716.731 -44.6003)" width="1.489" x="380.559" y="342.235"/></g></g></svg>