<?xml version="1.0" ?><!DOCTYPE svg  PUBLIC '-//W3C//DTD SVG 1.1//EN'  'http://www.w3.org/Graphics/SVG/1.1/DTD/svg11.dtd'><svg enable-background="new 0 0 512 512" height="512px" id="Layer_1" version="1.1" viewBox="0 0 512 512" width="512px" xml:space="preserve" xmlns="http://www.w3.org/2000/svg" xmlns:xlink="http://www.w3.org/1999/xlink"><path d="M512.002,255.997c0,9.54-0.52,18.96-1.539,28.22c-0.53,4.87-1.2,9.71-2.011,14.5  c-16.939,100.879-92.88,181.73-191.12,205.879c-10.609,2.61-21.479,4.562-32.57,5.79c-9.439,1.07-19.039,1.61-28.76,1.61  c-141.39,0-256-114.61-256-256c0-141.38,114.61-256,256-256C397.383-0.003,512.002,114.617,512.002,255.997z" fill="#6A9CCC"/><g><path d="M378.893,135.937l2.37-3.14l-20.58-19.64l-7.72,6.41   c-7.421-4.56-15.439-7.69-23.7-9.4l-3.649-3.14l-1.399-8.84l-28.431,1.08l-0.939,11.81c-8.311,2.22-16.32,5.89-23.59,11.01   l-9.75-7.16l-19.43,20.771l7.94,9.42c-2.07,3.52-3.84,7.17-5.29,10.92c-1.72,4.46-2.99,9.07-3.83,13.73l-12.26,1.94l0.29,7.73   l-8.84,3.38l3.98,15.75c-9.86,6.54-18.29,14.69-25.05,23.98l-15.64-4.78l-2.31,5.22l-6.09,13.79l-1.01,2.29l-5.74,13.01l6.14,3.62   c-3.29,1.04-6.48,2.34-9.51,3.88c-2.33-2.021-4.4-3.82-4.41-3.82l0.02-0.02c-0.01,0-1.35-1.15-1.35-1.15s-0.36,0.34-0.98,0.89   l-5.75-5.03l0.01-0.01l-1.22-1.2l-18.44,16.791v0.01l9.38,13.5c-1.86,2.71-4.03,6.189-5.75,9.67c-1.05,2.1-1.73,4.061-2.31,5.82   l-13.3,0.449l-4.68,0.16l-1.75,25l9.21,1.541c-0.12,1.569-0.18,2.559-0.18,2.569c0,0.01,4.39,0.76,8.68,1.489   c0.12,0.601,0.26,1.201,0.41,1.801c-0.04,0.51-0.06,0.811-0.05,0.82c0,0.01,0.1,0.029,0.28,0.06c1.18,4.45,2.89,8.72,4.91,12.74   l-9.8,11.38l16.84,18.609c0,0,100.64,99.591,140.14,138.739c11.09-1.229,21.96-3.18,32.57-5.79   c98.24-24.148,174.181-105,191.12-205.879c0.811-4.789,1.479-9.63,2.011-14.5C466.053,234.137,378.893,135.937,378.893,135.937z    M176.933,254.947c-0.43,0.12-0.86,0.24-1.29,0.36c0.43-0.13,0.86-0.25,1.29-0.37C176.933,254.937,176.933,254.937,176.933,254.947   z" enable-background="new    " opacity="0.2"/><g><g><g><path d="M330.62,266.266l-28.406,1.096l-1.807-11.472c-8.855-1.637-17.474-4.876-25.388-9.761l-8.957,7.429      l-20.58-19.639l7.032-9.337c-0.622-0.907-1.213-1.826-1.786-2.77c1.602-0.749,3.233-1.452,4.925-2.089      c7.262-2.7,14.692-4.004,22.019-4.053c0.808,0.897,1.646,1.789,2.536,2.633c11.129,10.614,25.996,14.933,40.178,13.095      c10.72-1.396,21.041-6.318,29.072-14.726c0.57-0.601,1.111-1.212,1.652-1.825c16.92-19.609,15.657-49.359-3.291-67.421      c-19.543-18.64-50.607-17.908-69.25,1.64c-5.092,5.344-8.725,11.535-10.947,18.107c-1.738,5.186-2.585,10.586-2.552,15.982      c-0.849,0.116-1.699,0.218-2.552,0.353l-7.415-14.1l-26.183,10.032l-0.291-7.735l12.262-1.936      c0.833-4.661,2.107-9.269,3.825-13.733c1.453-3.746,3.218-7.399,5.296-10.922l-7.943-9.419l19.433-20.769l9.741,7.156      c7.272-5.113,15.28-8.791,23.596-11.004l0.941-11.808l28.43-1.083l1.795,11.368c9.398,1.522,18.566,4.855,26.949,10.011      l7.719-6.407l20.584,19.637l-5.996,7.97c5.046,7.34,8.623,15.412,10.748,23.792l10.707,0.862l1.066,28.417l-10.564,1.666      c-1.553,9.114-4.825,17.985-9.811,26.13l6.922,8.214l-5.508,5.889l-13.91,14.874l-8.824-6.479      c-5.983,4.1-12.442,7.218-19.156,9.375c-1.776,0.586-3.586,1.105-5.411,1.548L330.62,266.266z" fill="#002856"/></g><g><path d="M378.635,130.303l-6.002,7.967c5.055,7.346,8.629,15.427,10.752,23.789l2.629,2.5      c-1.594-7.614-6.17-17.141-10.748-23.792l5.996-7.97l-20.584-19.637l-0.01,0.008L378.635,130.303z"/><path d="M277.581,215.804c0.446,0.429,0.907,0.834,1.372,1.245c-0.434-0.457-0.857-0.915-1.279-1.378      c-0.076,0.01-0.148,0.01-0.218,0.017C277.498,215.729,277.541,215.769,277.581,215.804z"/><path d="M331.524,255.054c1.825-0.443,3.635-0.962,5.411-1.548c6.714-2.157,13.173-5.276,19.156-9.375l8.824,6.479l13.91-14.874      l5.508-5.889l-6.922-8.214c4.984-8.145,8.258-17.016,9.811-26.13l10.564-1.666l-1.066-28.417l-2.537-0.207l0.974,26.135      l-10.556,1.662c-1.555,9.111-4.836,17.988-9.815,26.126l6.92,8.217l-5.512,5.887l-13.908,14.876l-8.824-6.476      c-5.975,4.096-12.43,7.223-19.143,9.376c-1.793,0.583-3.601,1.104-5.427,1.543l-0.896,11.218l-26.195,0.994l0.412,2.59      l28.406-1.096L331.524,255.054z"/><path d="M300.407,255.889l-2.632-2.49c-8.854-1.637-17.474-4.878-25.389-9.766l-8.936,7.424l2.611,2.5l8.957-7.429      C282.239,250.586,292.066,254.604,300.407,255.889z"/></g></g><path d="M277.673,215.67c-7.327,0.048-14.757,1.353-22.019,4.053c-1.692,0.637-3.323,1.34-4.925,2.089    c-10.723,5.021-19.488,12.712-25.814,21.984c-3.04,4.44-5.516,9.26-7.373,14.317c-2.748-1.235-5.615-2.271-8.587-3.087    l-0.861-13.73l-0.107-1.874l-4.598-0.255l-20.428-1.153l-2.842,16.135c-1.957,0.42-3.875,0.948-5.761,1.552l-6.133-3.627    l5.741-13.002l1.007-2.295l6.085-13.785l2.313-5.226l15.642,4.785c6.754-9.294,15.191-17.447,25.049-23.984l-3.976-15.746    l8.836-3.378l26.183-10.032l7.415,14.1c0.853-0.135,1.703-0.237,2.551-0.353c10.74-1.448,21.455-1.105,31.791,0.924l7.935-13.462    l34.32,15.114l-4.429,14.503c5.972,4.202,11.478,9.11,16.423,14.613c-0.541,0.613-1.082,1.224-1.652,1.825    c-8.031,8.408-18.354,13.33-29.072,14.726C308.604,221.255,293.393,215.567,277.673,215.67z" fill="#FFFFFF"/><g><path d="M174.365,255.7c-3.76,1.184-7.384,2.684-10.796,4.536l-12.549-10.98l-18.615,16.779l9.617,13.611     c-4.049,5.91-6.827,11.17-8.207,15.379l-17.953,0.608l-1.648,25.001l17.262,2.879c0.986,6.401,3.257,12.521,6.087,18.148     l-9.796,11.377l16.854,18.604l11.54-8.134c5.275,3.923,11.227,7.027,17.641,9.104l0.841,13.383l25.018,1.406l2.211-12.512     c5.018-0.752,9.85-2.142,14.421-4.057l3.603-11.83c-3.136-2.324-6.134-4.85-9-7.539c-6.297,3.088-13.435,4.657-20.93,4.161     c-22.833-1.505-40.185-21.313-38.68-44.14c1.154-17.588,13.192-31.883,29.091-36.858c4.732-1.479,9.804-2.174,15.052-1.823     c6.645,0.44,12.805,2.465,18.188,5.619c13.129,7.707,21.564,22.334,20.488,38.521c-0.199,3.1-0.77,6.089-1.606,8.951     c4.831,4.828,10.377,8.83,16.393,11.896c0.827-2.198,1.583-4.435,2.244-6.757l12.75-0.528l1.65-25.006l-13.021-2.278     c-1.321-7.274-3.649-14.113-7.328-20.298l9.403-10.577l-16.724-18.598l-12.259,8.704c-2.558-1.64-5.256-3.097-8.054-4.345     c-2.752-1.232-5.625-2.269-8.597-3.083l-0.974-15.601l-25.02-1.411l-2.844,16.147C178.163,254.569,176.247,255.106,174.365,255.7     z" fill="#D92716"/><g><path d="M208.959,352.35c0.724-0.218,1.43-0.451,2.143-0.703c-0.069-0.063-0.14-0.117-0.207-0.182      C210.259,351.771,209.615,352.063,208.959,352.35z"/><path d="M132.331,351.384l9.797-11.378c-2.827-5.628-5.095-11.749-6.083-18.15l-17.267-2.877l1.553-23.502l-4.47,0.157      l-1.648,25.001l17.262,2.879c0.986,6.401,3.257,12.521,6.087,18.148l-9.796,11.377l16.854,18.604l3.703-2.609L132.331,351.384z"/><path d="M179.212,384.337l-0.882-13.491c-6.421-2.068-12.351-5.115-17.684-9.214l-4.567,1.656      c5.216,4.142,11.704,7.286,17.682,9.215l0.858,13.433l25.027,1.433l0.35-1.884L179.212,384.337z"/><path d="M133.814,295.023l4.466-1.948c2.005-5.036,5.036-10.535,8.252-15.232l-9.588-13.54l15.449-13.871l-1.379-1.192      L132.4,266.023l9.567,13.475C139.042,283.76,135.546,289.947,133.814,295.023z"/></g></g><g><path d="M181.156,294.118l-14.524,7.455l13.086,35.157l15.776-3.832c4.397,6.896,9.597,13.101,15.4,18.565     c2.866,2.688,5.864,5.216,9,7.539l-3.603,11.83l-0.864,2.812l34.322,15.106l7.541-12.786c11.468,2.525,23.459,3.03,35.44,1.232     l6.717,12.771l35.018-13.421l-3.471-13.731c10.604-6.782,19.606-15.418,26.715-25.332l13.475,4.131l15.144-34.316l-12.215-7.217     c2.313-11.111,2.729-22.698,1.008-34.273l12.494-6.428l-8.793-23.637l-13.916,14.87l-8.816-6.48     c-5.973,4.104-12.438,7.216-19.147,9.383c0.637,1.38,1.231,2.778,1.771,4.231c12.416,33.375-4.631,70.635-38.017,83.054     c-17.596,6.546-36.262,4.896-51.805-3.009c-6.016-3.064-11.562-7.068-16.393-11.896c-6.367-6.359-11.519-14.131-14.856-23.117     c-2.989-8.023-4.263-16.271-4.026-24.354c-5.383-3.155-11.543-5.179-18.188-5.618c-5.248-0.352-10.319,0.342-15.052,1.822     C179.996,281.066,180.224,287.59,181.156,294.118z" fill="#FFFFFF"/><g><path d="M337.12,253.451c-0.06,0.022-0.115,0.042-0.18,0.065c0.272,0.58,0.526,1.172,0.78,1.765      C337.534,254.67,337.323,254.056,337.12,253.451z"/><path d="M373.084,259.645c1.734,11.584,1.219,23.209-0.813,34.217l1.84,6.222c2.119-9.16,2.692-24.251,1.186-34.338      l12.404-6.396l-2.205-6.08L373.084,259.645z"/><path d="M299.448,389.971l35.018-13.422l-3.471-13.73c10.604-6.783,19.606-15.42,26.715-25.334l13.475,4.132l15.144-34.316      l-3.889-2.298l-13.466,30.518l-13.471-4.125c-7.109,9.912-16.111,18.551-26.717,25.336l3.471,13.729l-35.019,13.418      l-6.721-12.777c-11.979,1.801-23.97,1.301-35.436-1.222l-7.541,12.785l-30.734-13.53l-0.515,1.702l-0.864,2.812l34.322,15.106      l7.541-12.786c11.468,2.525,23.459,3.03,35.439,1.233L299.448,389.971z"/><path d="M218.34,354.145c-5.559-3.014-20.595-20.457-24.99-27.361l-15.811,3.843L166.7,301.543l-0.052,0.023l13.07,35.164      l15.786-3.836c4.387,6.901,9.416,12.938,15.219,18.407c1.852,1.732,6.912,6.222,9.17,7.702L218.34,354.145z"/></g></g></g></g></svg>