<?xml version="1.0" ?><!DOCTYPE svg  PUBLIC '-//W3C//DTD SVG 1.1//EN'  'http://www.w3.org/Graphics/SVG/1.1/DTD/svg11.dtd'><svg enable-background="new 0 0 512 512" height="512px" id="Layer_1" version="1.1" viewBox="0 0 512 512" width="512px" xml:space="preserve" xmlns="http://www.w3.org/2000/svg" xmlns:xlink="http://www.w3.org/1999/xlink"><g><g><path d="M512,256c0,141.393-114.607,256-256,256c-5.593,0-11.146-0.196-16.658-0.554     C105.75,502.861,0,391.8,0,256C0,114.609,114.65,0,256,0c139.385,0,252.773,111.379,255.923,250.016     C511.962,252.023,512,253.992,512,256z" fill="#F29C1F"/><path d="M511.923,250.016L371.554,109.608c-1.496-0.552-3.111-0.669-4.646-0.435l-2.046-6.183     c-0.946-2.834-3.192-5.081-6.026-6.104c-2.797-0.985-5.946-0.631-8.47,0.984l-15.988,10.2c-3.427,2.165-5.081,6.183-4.335,10.042     L98.738,265.607c-1.181-1.85-2.954-3.269-5.042-3.977c-2.835-0.984-5.946-0.593-8.508,1.023l-15.596,10.161     c-3.7,2.403-5.354,7.054-3.938,11.266l28.438,84.677c1.338,4.096,5.158,6.657,9.215,6.657c0.473,0,0.904-0.119,1.377-0.199     c1.419,4.177,71.958,73.808,134.658,136.23C244.854,511.804,250.407,512,256,512c141.393,0,256-114.607,256-256     C512,253.992,511.962,252.023,511.923,250.016z" fill="#231F20" opacity="0.2"/><g><path d="M436.081,212.711c2.399,7.781-0.612,15.623-6.731,17.516l-28.669,8.858l-15.615-50.516l28.669-8.862      c2.938-0.908,6.22-0.292,9.115,1.704c2.896,2.004,5.178,5.231,6.331,8.965L436.081,212.711z" fill="#FFFFFF"/><path d="M103.312,375.431c-4.081,0-7.877-2.585-9.234-6.653l-28.408-84.692      c-1.415-4.216,0.204-8.854,3.931-11.277l15.604-10.139c2.527-1.638,5.646-2.011,8.489-1.046      c2.834,0.977,5.065,3.204,6.046,6.046l30.858,89.377c0.861,2.508,0.673,5.258-0.539,7.623c-1.208,2.362-3.323,4.131-5.865,4.893      l-18.058,5.454C105.2,375.292,104.25,375.431,103.312,375.431z" fill="#102947"/><path d="M410.216,337.046c-4.158,0-7.908-2.646-9.243-6.653l-70.607-211.008      c-1.423-4.242,0.23-8.912,4.008-11.319l15.984-10.194c2.535-1.609,5.67-1.979,8.496-0.967c2.835,1.004,5.043,3.252,5.996,6.1      l73.4,219.361c0.938,2.812,0.55,5.904-1.065,8.393c-1.611,2.5-4.273,4.119-7.234,4.403l-18.785,1.843      C410.846,337.031,410.527,337.046,410.216,337.046z" fill="#102947"/><polygon fill="#102947" points="214.004,383.2 187.719,350.8 196.808,343.419 219.312,371.161 301.085,366.315 318.996,332.089       329.369,337.516 308.381,377.604     "/><g><polygon fill="#FFFFFF" points="339.277,112.254 90.519,270.846 101.192,302.654 363.484,184.596      "/><polygon fill="#D6E6DC" points="412.681,331.615 363.484,184.596 101.192,302.654 120.496,360.223      "/></g></g></g></g></svg>