<?xml version="1.0" ?><!DOCTYPE svg  PUBLIC '-//W3C//DTD SVG 1.1//EN'  'http://www.w3.org/Graphics/SVG/1.1/DTD/svg11.dtd'><svg height="512px" style="enable-background:new 0 0 512 512;" version="1.1" viewBox="0 0 512 512" width="512px" xml:space="preserve" xmlns="http://www.w3.org/2000/svg" xmlns:xlink="http://www.w3.org/1999/xlink"><g id="Layer_8"><g><circle cx="256" cy="256" r="256" style="fill:#4CC5AD;"/><path d="M383.75,200.109L383.75,200.109l-15.969,0.001H144.219H128.25v31.937v0.001l0,0l15.969,15.968    v116.272H128.25v31.938l29.691,29.692l85.789,85.789c4.065,0.191,8.155,0.292,12.27,0.292c43.993,0,85.393-11.099,121.556-30.646    c61.822-33.418,108.336-91.531,126.317-161.12L383.75,200.109z" style="fill:#3C9987;"/><g><g><rect height="159.688" style="fill:#FFEED2;" width="31.938" x="208.094" y="232.047"/><rect height="159.688" style="fill:#FFEED2;" width="31.938" x="271.969" y="232.047"/><rect height="159.688" style="fill:#FFEED2;" width="31.938" x="144.219" y="232.047"/><rect height="159.688" style="fill:#FFEED2;" width="31.938" x="335.844" y="232.047"/></g><polygon points="256,133.495 173.416,216.078 338.584,216.078    " style="fill:#FFEED2;"/><rect height="31.938" style="fill:#CCBEAC;" width="255.5" x="128.25" y="364.288"/><polygon points="189.385,200.109 322.615,200.109 256,133.495    " style="fill:none;"/><path d="M367.781,200.109L256,88.327L144.219,200.109H128.25v31.938h255.5v-31.938H367.781z      M189.385,200.109L256,133.495l66.615,66.614H189.385z" style="fill:#CCBEAC;"/></g><rect height="132.241" style="fill:none;" width="15.969" x="240.031" y="232.047"/><rect height="132.241" style="fill:none;" width="15.969" x="256" y="232.047"/><rect height="132.241" style="fill:none;" width="31.938" x="176.156" y="232.047"/><rect height="132.241" style="fill:none;" width="31.938" x="303.906" y="232.047"/><path d="M240.031,364.288V232.047H256V88.327L144.219,200.109H128.25v31.938h15.969v132.241    H128.25v31.938H256v-31.938H240.031z M208.094,364.288h-31.938V232.047h31.938V364.288z" style="opacity:0.3;fill:#FFEED2;"/></g></g><g id="Layer_1"/></svg>