<?xml version="1.0" ?><!DOCTYPE svg  PUBLIC '-//W3C//DTD SVG 1.1//EN'  'http://www.w3.org/Graphics/SVG/1.1/DTD/svg11.dtd'><svg enable-background="new 0 0 512 512.003" height="512.003px" id="Layer_1" version="1.1" viewBox="0 0 512 512.003" width="512px" xml:space="preserve" xmlns="http://www.w3.org/2000/svg" xmlns:xlink="http://www.w3.org/1999/xlink"><g><g><path d="M512,256.002c0,141.363-114.635,256.001-255.998,256.001c-13.105,0-25.948-1.001-38.533-2.865     C94.372,490.571,0,384.261,0,256.002C0,114.6,114.592,0,256.002,0C388.34,0,497.25,100.409,510.655,229.276     C511.525,238.036,512,246.98,512,256.002z" fill="#77B3D5"/><path d="M512,256.002c0,141.363-114.635,256.001-255.998,256.001c-13.105,0-25.948-1.001-38.533-2.865     l-85.389-80.401v-15.27c0-4.599,3.209-8.382,7.203-8.683v-7.203c0-4.815,3.251-8.714,7.246-8.714h14.099     c-0.39-35.238-3.209-73.721,25.339-101.756c0,0,34.237-24.815,41.918-32.458c1.256-1.256,2.038-2.466,2.604-3.645     c-0.393-0.431-0.782-0.862-1.133-1.294c-2.604-2.35-5.289-4.861-8.027-7.597c-1.646-1.609-3.167-3.297-4.6-4.992     c-2.601-2.388-5.246-4.899-7.981-7.596c-1.648-1.649-3.167-3.29-4.6-5.023c-2.604-2.35-5.293-4.861-7.981-7.558     c-1.648-1.642-3.17-3.336-4.6-5.031c-2.604-2.342-5.296-4.861-8.027-7.596c-22.477-22.258-23.56-50.154-23.171-80.486h-1.259     c-3.949,0-7.246-2.904-7.246-6.51v-6.071h-5.335c-3.995,0-7.246-2.951-7.246-6.51V90.385c0-1.826,0.867-3.467,2.211-4.646     c1.302-1.518,3.082-2.473,5.035-2.473h218.944c1.949,0,3.729,0.956,5.035,2.473c1.472,1.302,77.492,79.792,140.146,143.536     C511.525,238.036,512,246.98,512,256.002z" opacity="0.17"/><g><path d="M352.238,395.817H160.678c0.058-37.057-5.162-78.836,25.27-108.713c0,0,34.241-24.831,41.945-32.466      c7.692-7.619,0-15.485,0-15.485s-20.489-11.171-44.337-34.808c-24.033-23.806-23.637-54.067-23.074-86.833      c0.03-2.088,0.196-13.898,0.196-15.886h191.561c0,19.584,1.26,38.428-1.021,55.801c-0.594,4.6-1.441,9.099-2.624,13.482      c-6.306,24.045-25.559,30.662-63.582,68.243c0,0-7.692,7.866,0,15.485c7.716,7.635,41.969,32.466,41.969,32.466      C357.369,316.942,352.177,358.583,352.238,395.817z" fill="#E6E6E6"/><g><path d="M342.034,396.118H170.878c0,0,2.238-40.531,8.605-51.934c10.689-19.168,44.438-38.229,65.763-56.549       v-67.003c-12.916-13.56-37.908-34.061-47.596-52.088c-3.625-6.733-8.032-21.572-11.507-34.569       c29.95,23.382,50.94,20.793,70.251,13.313c22.049-8.536,41.938-23.436,70.539-13.313c-3.382,12.997-7.673,27.82-11.232,34.569       c-9.564,18.174-35.366,38.798-48.744,52.28v66.302c0,0,55.662,37.705,66.464,57.058       C339.796,355.586,342.034,396.118,342.034,396.118z" fill="#F1C40F"/><path d="M256.395,147.289l-0.247,148.382l-51.109,99.5l-34.16,0.947       c0,0,2.238-40.531,8.605-51.934c10.689-19.168,44.438-38.229,65.763-56.549v-67.003c-12.916-13.56-37.908-34.061-47.596-52.088       c-3.625-6.733-8.032-21.572-11.507-34.569C216.094,157.358,237.084,154.769,256.395,147.289z" fill="#FFFFFF" opacity="0.2"/></g><path d="M231.903,290.07c4.749-7.227,18.394-28.475,20.512-35.432c3.405-11.179,0-15.485,0-15.485      s-7.169-18.521-16.745-34.808c-17.908-30.462-23.636-54.067-23.073-86.833c0.03-2.088,0.192-13.898,0.192-15.886h-30.655      c0,1.987-0.162,13.798-0.192,15.886c-0.563,32.766-0.959,63.028,23.07,86.833c23.852,23.637,29.014,34.808,29.014,34.808      s7.692,7.866,0,15.485c-7.704,7.635-26.622,32.466-26.622,32.466c-30.428,29.877-25.208,71.656-25.27,108.713h30.655      C212.851,358.76,207.619,327.027,231.903,290.07z" fill="#F5F5F5" opacity="0.5"/><path d="M351.218,157.427l-190.633-46.187c0.031-1.803,0.051-2.874,0.062-3.713      c0.012-0.701,0.012-1.241,0.012-1.911c0.02-0.886,0.02-2.003,0.02-3.991h191.561      C352.238,121.21,353.498,140.054,351.218,157.427z" opacity="0.1"/><path d="M365.466,83.891h-218.94c-3.976,0-7.238,2.92-7.238,6.495v8.737v5.616c0,3.575,3.263,6.502,7.238,6.502      h218.94c3.976,0,7.234-2.928,7.234-6.502v-5.616v-8.737C372.7,86.811,369.441,83.891,365.466,83.891z" fill="#0D2038"/><path d="M365.466,90.801h-218.94c-3.976,0-7.238,3.921-7.238,8.713v-7.542      c0-4.792,3.263-8.721,7.238-8.721h218.94c3.976,0,7.234,3.929,7.234,8.721v7.542C372.7,94.723,369.441,90.801,365.466,90.801z" fill="#FFFFFF" opacity="0.2"/><path d="M372.7,412.851v-15.27c0-4.792-3.259-8.714-7.234-8.714h-218.94c-3.976,0-7.238,3.922-7.238,8.714v15.27      H372.7z" fill="#0D2038"/><path d="M372.7,412.851v-15.27c0-4.792-3.259-8.714-7.234-8.714h-218.94      c-3.976,0-7.238,3.922-7.238,8.714v15.27H372.7z" fill="#FFFFFF" opacity="0.2"/><path d="M379.915,428.745v-15.277c0-4.792-3.463-8.721-7.685-8.721H139.757c-4.218,0-7.681,3.929-7.681,8.721      v15.277H379.915z" fill="#0D2038"/></g></g></g></svg>