<?xml version="1.0" ?><!DOCTYPE svg  PUBLIC '-//W3C//DTD SVG 1.1//EN'  'http://www.w3.org/Graphics/SVG/1.1/DTD/svg11.dtd'><svg enable-background="new 0 0 512 512" height="512px" id="Layer_1" version="1.1" viewBox="0 0 512 512" width="512px" xml:space="preserve" xmlns="http://www.w3.org/2000/svg" xmlns:xlink="http://www.w3.org/1999/xlink"><g><g><g><path d="M512,256c0,5.632-0.188,11.23-0.547,16.758C503.21,400.213,401.68,502.271,274.448,511.352      c-4.488,0.307-8.993,0.512-13.55,0.597c-0.325,0-0.632,0.017-0.957,0.017C258.645,511.983,257.313,512,256,512      c-4.25,0-8.448-0.104-12.63-0.308c-3.482-0.17-6.928-0.392-10.377-0.717C102.382,499.354,0,389.632,0,256      C0,114.62,114.602,0,256,0C397.38,0,512,114.62,512,256z" fill="#89C0C7"/></g><path d="M511.58,272.758c-8.244,127.455-109.837,229.513-237.07,238.593c-4.486,0.307-9.023,0.512-13.58,0.597     l-53.052-53.06c-2.082-0.58-3.372-2.355-3.372-4.728v-53.213c0-0.273-18.262-18.483-18.262-18.483     c-6.707-7.202-10.752-16.862-10.752-27.493V143.565c0-6.895,5.088-12.135,11.983-12.135h20.443V55.023l6.922,5.238l10.211-7.68     l10.037,7.68l10.039-7.68l10.042,7.68l10.05-7.68l10.031,7.68l10.019-7.68l10.075,7.68l6.441-4.983v7.083L511.58,272.758z" opacity="0.17"/><g><g><path d="M310.567,383.425v70.454c0,2.9-2.364,5.257-5.26,5.257h-96.063c-2.896,0-5.26-2.357-5.26-5.257v-70.454       H310.567z" fill="#F39C12"/><rect height="75.716" width="29.157" x="223.82" y="383.422"/></g><path d="M310.567,387.742v10.57c-4.337,1.17-9,1.807-13.9,1.807H215.31c-3.937,0-7.74-0.407-11.327-1.183v-10.573      c3.586,0.773,7.39,1.183,11.327,1.183h81.356C301.567,389.545,306.23,388.915,310.567,387.742z" opacity="0.2"/><path d="M336.993,354.686c0,22.267-18.051,40.319-40.319,40.319h-81.357c-22.268,0-40.319-18.052-40.319-40.319      V143.281c0-6.893,5.588-12.481,12.481-12.481h137.032c6.893,0,12.481,5.588,12.481,12.481V354.686z" fill="#102947"/><path d="M296.677,388.282h-81.363c-22.264,0-40.317-18.05-40.317-40.317v6.717      c0,22.27,18.053,40.323,40.317,40.323h81.363c22.267,0,40.316-18.053,40.316-40.323v-6.717      C336.993,370.232,318.943,388.282,296.677,388.282z" opacity="0.5"/><path d="M303.35,163.952c-31.783,0.007-63.567,0.007-95.35,0c-16.637,0.01-16.637-18.933,0-18.933      c31.783,0,63.567,0,95.35,0C319.84,144.848,319.84,164.122,303.35,163.952z" opacity="0.5"/><path d="M312.693,247.619c0,3.033-2.458,5.491-5.491,5.491H201.289c-3.032,0-5.491-2.458-5.491-5.491v-65.908      c0-3.033,2.458-5.491,5.491-5.491h105.914c3.032,0,5.491,2.458,5.491,5.491V247.619z" fill="#EBF3FF"/><path d="M308.23,172.382H199.92c-3.1,0-5.613,2.463-5.613,5.49v9.6c0-3.03,2.513-5.487,5.613-5.487h108.31      c3.097,0,5.613,2.457,5.613,5.487v-9.6C313.843,174.845,311.327,172.382,308.23,172.382z" opacity="0.2"/><g><polygon fill="#FFFFFF" points="208.08,163.455 301.99,163.455 301.99,54.988 295.453,59.972 285.376,52.292 275.31,59.968        265.25,52.292 255.183,59.968 245.12,52.292 235.057,59.968 224.99,52.292 214.933,59.968 208.08,54.731      "/><rect height="9.593" opacity="0.2" width="93.91" x="208.08" y="153.862"/><g><path d="M290.5,83.785c-23.106,0-46.22,0-69.33,0c-3.497,0-3.49-5.244,0-5.244c23.11,0,46.224,0,69.33,0        C293.987,78.528,293.987,83.802,290.5,83.785z" fill="#435362"/><path d="M290.56,96.742c-23.11,0.007-46.22,0.007-69.327,0c-3.5,0-3.493-5.243,0-5.24        c23.106,0,46.217,0,69.327,0C294.047,91.485,294.047,96.758,290.56,96.742z" fill="#435362"/><path d="M290.62,109.702c-23.107,0.003-46.22,0.003-69.33,0c-3.497,0-3.493-5.243,0-5.24        c23.11,0,46.223,0,69.33,0C294.106,104.445,294.106,109.718,290.62,109.702z" fill="#435362"/><path d="M290.68,122.658c-23.107,0-46.22,0-69.327,0c-3.5,0-3.497-5.24,0-5.24c23.106,0,46.22,0,69.327,0        C294.167,117.405,294.167,122.675,290.68,122.658z" fill="#435362"/><path d="M258.787,135.615c-12.847,0.006-25.693,0.006-38.54,0c-1.943,0-1.94-5.244,0-5.24        c12.847,0,25.693,0,38.54,0C260.723,130.362,260.723,135.632,258.787,135.615z" fill="#435362"/></g></g><path d="M294.854,216.015c-28.363,0-56.724,0-85.087,0c-8.037,0.04-8.037-8.454,0-8.407      c28.363,0,56.724,0,85.087,0C302.933,207.602,302.933,216.019,294.854,216.015z" fill="#404B4F"/><path d="M282.253,229.548c-24.44,0-48.88,0-73.32,0c-6.926,0.04-6.926-8.453,0-8.407      c24.44,0.003,48.88,0.003,73.32,0C289.217,221.138,289.217,229.555,282.253,229.548z" fill="#404B4F"/><path d="M270.557,243.085c-20.803,0-41.6,0-62.4,0c-5.894,0.043-5.894-8.457,0-8.407      c20.8,0.003,41.597,0.003,62.4,0C276.48,234.675,276.48,243.088,270.557,243.085z" fill="#404B4F"/><path d="M228.08,290.375c0,2.497-1.744,4.52-3.894,4.52h-19.493c-2.15,0-3.894-2.023-3.894-4.52v-12.473      c0-2.497,1.744-4.52,3.894-4.52h19.493c2.15,0,3.894,2.023,3.894,4.52V290.375z" fill="#F4F4DE"/><path d="M304.87,290.375c0,2.497-1.744,4.52-3.89,4.52h-19.5c-2.146,0-3.89-2.023-3.89-4.52v-12.473      c0-2.497,1.744-4.52,3.89-4.52h19.5c2.146,0,3.89,2.023,3.89,4.52V290.375z" fill="#F4F4DE"/><path d="M266.473,290.375c0,2.497-1.74,4.52-3.89,4.52h-19.497c-2.15,0-3.893-2.023-3.893-4.52v-12.473      c0-2.497,1.743-4.52,3.893-4.52h19.497c2.15,0,3.89,2.023,3.89,4.52V290.375z" fill="#F4F4DE"/><path d="M228.08,319.175c0,2.5-1.744,4.517-3.894,4.517h-19.493c-2.15,0-3.894-2.017-3.894-4.517v-12.477      c0-2.5,1.744-4.52,3.894-4.52h19.493c2.15,0,3.894,2.02,3.894,4.52V319.175z" fill="#F4F4DE"/><path d="M304.87,319.175c0,2.5-1.744,4.517-3.89,4.517h-19.5c-2.146,0-3.89-2.017-3.89-4.517v-12.477      c0-2.5,1.744-4.52,3.89-4.52h19.5c2.146,0,3.89,2.02,3.89,4.52V319.175z" fill="#F4F4DE"/><path d="M266.473,319.175c0,2.5-1.74,4.517-3.89,4.517h-19.497c-2.15,0-3.893-2.017-3.893-4.517v-12.477      c0-2.5,1.743-4.52,3.893-4.52h19.497c2.15,0,3.89,2.02,3.89,4.52V319.175z" fill="#F4F4DE"/><path d="M228.08,347.972c0,2.497-1.744,4.517-3.894,4.517h-19.493c-2.15,0-3.894-2.02-3.894-4.517v-12.48      c0-2.493,1.744-4.52,3.894-4.52h19.493c2.15,0,3.894,2.027,3.894,4.52V347.972z" fill="#E64F30"/><path d="M304.87,347.972c0,2.497-1.744,4.517-3.89,4.517h-19.5c-2.146,0-3.89-2.02-3.89-4.517v-12.48      c0-2.493,1.744-4.52,3.89-4.52h19.5c2.146,0,3.89,2.027,3.89,4.52V347.972z" fill="#96C555"/><path d="M266.473,347.972c0,2.497-1.74,4.517-3.89,4.517h-19.497c-2.15,0-3.893-2.02-3.893-4.517v-12.48      c0-2.493,1.743-4.52,3.893-4.52h19.497c2.15,0,3.89,2.027,3.89,4.52V347.972z" fill="#F39C12"/><path d="M224.187,293.935h-19.493c-2.15,0-3.894-2.023-3.894-4.517v3.836c0,2.497,1.744,4.52,3.894,4.52h19.493      c2.15,0,3.894-2.023,3.894-4.52v-3.836C228.08,291.912,226.336,293.935,224.187,293.935z" opacity="0.5"/><path d="M300.98,293.935h-19.5c-2.146,0-3.89-2.023-3.89-4.517v3.836c0,2.497,1.744,4.52,3.89,4.52h19.5      c2.146,0,3.89-2.023,3.89-4.52v-3.836C304.87,291.912,303.126,293.935,300.98,293.935z" opacity="0.5"/><path d="M262.583,293.935h-19.497c-2.15,0-3.893-2.023-3.893-4.517v3.836c0,2.497,1.743,4.52,3.893,4.52h19.497      c2.15,0,3.89-2.023,3.89-4.52v-3.836C266.473,291.912,264.733,293.935,262.583,293.935z" opacity="0.5"/><path d="M224.187,322.732h-19.493c-2.15,0-3.894-2.021-3.894-4.521v3.84c0,2.5,1.744,4.52,3.894,4.52h19.493      c2.15,0,3.894-2.02,3.894-4.52v-3.84C228.08,320.711,226.336,322.732,224.187,322.732z" opacity="0.5"/><path d="M300.98,322.732h-19.5c-2.146,0-3.89-2.021-3.89-4.521v3.84c0,2.5,1.744,4.52,3.89,4.52h19.5      c2.146,0,3.89-2.02,3.89-4.52v-3.84C304.87,320.711,303.126,322.732,300.98,322.732z" opacity="0.5"/><path d="M262.583,322.732h-19.497c-2.15,0-3.893-2.021-3.893-4.521v3.84c0,2.5,1.743,4.52,3.893,4.52h19.497      c2.15,0,3.89-2.02,3.89-4.52v-3.84C266.473,320.711,264.733,322.732,262.583,322.732z" opacity="0.5"/><path d="M224.187,351.528h-19.493c-2.15,0-3.894-2.023-3.894-4.517v3.836c0,2.5,1.744,4.52,3.894,4.52h19.493      c2.15,0,3.894-2.02,3.894-4.52v-3.836C228.08,349.505,226.336,351.528,224.187,351.528z" opacity="0.5"/><path d="M300.98,351.528h-19.5c-2.146,0-3.89-2.023-3.89-4.517v3.836c0,2.5,1.744,4.52,3.89,4.52h19.5      c2.146,0,3.89-2.02,3.89-4.52v-3.836C304.87,349.505,303.126,351.528,300.98,351.528z" opacity="0.5"/><path d="M262.583,351.528h-19.497c-2.15,0-3.893-2.023-3.893-4.517v3.836c0,2.5,1.743,4.52,3.893,4.52h19.497      c2.15,0,3.89-2.02,3.89-4.52v-3.836C266.473,349.505,264.733,351.528,262.583,351.528z" opacity="0.5"/></g></g></g></svg>