<?xml version="1.0" ?><!DOCTYPE svg  PUBLIC '-//W3C//DTD SVG 1.1//EN'  'http://www.w3.org/Graphics/SVG/1.1/DTD/svg11.dtd'><svg enable-background="new 0 0 512 512" height="512px" id="Layer_1" version="1.1" viewBox="0 0 512 512" width="512px" xml:space="preserve" xmlns="http://www.w3.org/2000/svg" xmlns:xlink="http://www.w3.org/1999/xlink"><g><g><path d="M512,256c0,0.631,0,1.25-0.008,1.881c-0.058,8.177-0.492,16.262-1.3,24.234     c-10.97,108.192-89.312,196.489-192.427,222.246C298.342,509.354,277.477,512,256,512c-17.046,0-33.692-1.666-49.812-4.854     c-5.727-1.134-11.377-2.454-16.958-3.958c-1.396-0.377-2.792-0.762-4.177-1.162C78.181,471.277,0,372.77,0,256     C0,114.615,114.619,0,256,0c123.962,0,227.346,88.1,250.942,205.111c1.631,8.054,2.869,16.254,3.723,24.569     C511.546,238.334,512,247.111,512,256z" fill="#79B2D4"/><path d="M511.992,257.881c-0.058,8.177-0.492,16.262-1.3,24.234c-10.97,108.192-89.312,196.489-192.427,222.246     C298.342,509.354,277.477,512,256,512c-17.046,0-33.692-1.666-49.812-4.854c-5.727-1.134-11.377-2.454-16.958-3.958     c-38.423-42.831-66.181-72.419-69.254-72.419V110.954h269.531C389.508,114.035,445.492,180.692,511.992,257.881z" opacity="0.13"/><g><rect fill="#102947" height="319.815" width="269.531" x="119.977" y="110.954"/><polygon fill="#F5F5F5" points="378.4,118.019 378.4,418.869 183.738,418.869 131.123,366.258 131.123,118.019     "/><polygon fill="#FFFFFF" points="131.119,366.25 183.734,418.869 183.734,366.25     "/><polygon opacity="0.1" points="183.734,366.25 236.35,418.869 183.734,418.869     "/></g><rect clip-rule="evenodd" fill="#CCCCCC" fill-rule="evenodd" height="15.315" width="118.877" x="236.946" y="193.304"/><rect clip-rule="evenodd" fill="#CCCCCC" fill-rule="evenodd" height="15.319" width="118.877" x="236.946" y="228.435"/><rect clip-rule="evenodd" fill="#CCCCCC" fill-rule="evenodd" height="15.319" width="118.877" x="236.946" y="289.292"/><rect clip-rule="evenodd" fill="#CCCCCC" fill-rule="evenodd" height="15.319" width="118.877" x="236.946" y="327.285"/><path d="M143.639,183.977v65.35h65.346v-65.35H143.639z M201.162,241.5h-49.696v-49.696h49.696V241.5z" fill="#102947"/><path d="M143.639,282.827v65.35h65.346v-65.35H143.639z M201.162,340.35h-49.696v-49.696h49.696V340.35z" fill="#102947"/><polygon fill="#231F20" opacity="0.2" points="195.208,328.412 231.377,292.246 223.381,284.254 182.584,315.473      164.211,302.639 156.315,310.535 172.581,326.804 184.681,338.942 184.7,338.919 184.723,338.942    "/><polygon fill="#231F20" opacity="0.2" points="195.208,230.166 231.377,193.996 223.381,186.008 182.584,217.223      164.211,204.393 156.315,212.289 172.581,228.554 184.681,240.696 184.7,240.673 184.723,240.696    "/><polygon fill="#E85100" points="192.208,324.412 228.377,288.246 220.381,280.254 179.584,311.473 161.211,298.639      153.315,306.535 169.581,322.804 181.681,334.942 181.7,334.919 181.723,334.942    "/><polygon fill="#E85100" points="192.208,226.166 228.377,189.996 220.381,182.008 179.584,213.223 161.211,200.393      153.315,208.289 169.581,224.554 181.681,236.696 181.7,236.673 181.723,236.696    "/><path d="M378.4,153.742v182.927c-61.323-57.573-195.662-192.497-195.662-192.497V107.35     c0-8.558,6.938-15.496,15.496-15.496h22.989c5.511,0,9.98-4.469,9.98-9.981c0-11.361,9.908-17.131,21.266-17.131l6.154,0.739     c7.539,0,13.312-0.092,16.889,5.961l20.911,20.412h14.927c6.162,0,11.466,3.604,13.966,8.8c0,0,6.754,6.754,17.365,17.365     C352.196,127.535,364.804,140.143,378.4,153.742z" opacity="0.07"/><path d="M311.35,91.969h-22.992c-5.512,0-10.02-4.469-10.02-9.981c0-11.357-9.166-20.562-20.523-20.562h-3.023     h-3.023c-11.357,0-20.523,9.204-20.523,20.562c0,5.512-4.508,9.981-10.019,9.981h-22.993c-8.562,0-15.496,6.938-15.496,15.496     v36.827h144.107v-36.827C326.846,98.908,319.911,91.969,311.35,91.969z M254.742,98.365c-6.758,0-12.234-5.477-12.234-12.234     s5.449-12.332,12.207-12.332s12.262,5.574,12.262,12.332S261.5,98.365,254.742,98.365z" fill="#102947"/><path d="M311.35,91.854h-22.992c-5.512,0-9.981-4.469-9.981-9.981     c0-11.357-9.204-20.562-20.562-20.562h-6.046c-11.357,0-20.562,9.204-20.562,20.562c0,5.512-4.469,9.981-9.98,9.981h-22.993     c-7.919,0-14.442,5.942-15.373,13.611h143.861C325.788,97.796,319.27,91.854,311.35,91.854z M254.742,96.416     c-6.958,0-12.596-5.639-12.596-12.596c0-6.961,5.639-12.6,12.596-12.6c6.958,0,12.6,5.639,12.6,12.6     C267.342,90.777,261.7,96.416,254.742,96.416z" fill="#FFFFFF" opacity="0.8"/><rect fill="#FFFFFF" height="11.384" opacity="0.5" width="144.107" x="182.688" y="132.792"/><rect fill="#FFFFFF" height="27.327" opacity="0.7" width="144.107" x="182.738" y="105.465"/><g><path d="M266.016,73.242l-3.739,3.742c4.131,4.131,4.131,10.831,0,14.966c-4.135,4.131-10.834,4.131-14.965,0      l-3.742,3.742c6.196,6.196,16.246,6.196,22.446,0C272.215,89.492,272.215,79.442,266.016,73.242z" fill="#E1E6E6"/><path d="M247.312,76.984c4.131-4.13,10.831-4.13,14.965,0l3.739-3.742c-6.2-6.2-16.25-6.2-22.446,0      c-6.2,6.2-6.2,16.25,0,22.45l3.742-3.742C243.177,87.815,243.177,81.115,247.312,76.984z" fill="#BCBEC0"/></g></g></g></svg>